<svg width="26" height="26" viewBox="0 0 26 26" fill="none" xmlns="http://www.w3.org/2000/svg">
<rect width="26" height="26" rx="4" fill="#EFF2F4"/>
<path d="M11.0577 19.75C11.3022 19.75 11.4943 19.684 11.634 19.5521C11.7737 19.4201 11.8436 19.2357 11.8436 18.999L11.7271 12.4615C11.7271 12.3606 11.7495 12.2723 11.7941 12.1966C11.8387 12.121 11.9057 12.0637 11.9949 12.0249C12.2511 11.9124 12.4597 11.7891 12.6207 11.6552C12.7818 11.5213 12.8973 11.3496 12.9671 11.14C13.037 10.9305 13.0661 10.6549 13.0544 10.3134L12.8914 6.739C12.8798 6.47122 12.7459 6.33732 12.4898 6.33732C12.3772 6.33732 12.2879 6.37322 12.222 6.44502C12.156 6.51682 12.123 6.61869 12.123 6.75065L12.1638 10.2261C12.1638 10.3308 12.1337 10.4124 12.0735 10.4706C12.0134 10.5288 11.9367 10.5579 11.8436 10.5579C11.7427 10.5579 11.6612 10.5298 11.5991 10.4735C11.537 10.4172 11.5059 10.3406 11.5059 10.2435L11.4477 6.64586C11.4438 6.52167 11.4079 6.42464 11.34 6.35479C11.2721 6.28493 11.178 6.25 11.0577 6.25C10.9412 6.25 10.8481 6.28493 10.7782 6.35479C10.7084 6.42464 10.6735 6.52167 10.6735 6.64586L10.6152 10.2435C10.6152 10.3406 10.5832 10.4172 10.5192 10.4735C10.4552 10.5298 10.3746 10.5579 10.2776 10.5579C10.0603 10.5579 9.9516 10.4473 9.9516 10.2261L9.99235 6.75065C9.99235 6.61869 9.96033 6.51682 9.89629 6.44502C9.83226 6.37322 9.74202 6.33732 9.62559 6.33732C9.50528 6.33732 9.4102 6.37225 9.34034 6.44211C9.27049 6.51197 9.23168 6.61093 9.22391 6.739L9.06673 10.3134C9.05121 10.6549 9.07838 10.9305 9.14823 11.14C9.21809 11.3496 9.33355 11.5213 9.49461 11.6552C9.65567 11.7891 9.86428 11.9124 10.1204 12.0249C10.2136 12.0637 10.2815 12.121 10.3242 12.1966C10.3669 12.2723 10.3882 12.3606 10.3882 12.4615L10.2776 18.999C10.2737 19.2357 10.3416 19.4201 10.4814 19.5521C10.6211 19.684 10.8132 19.75 11.0577 19.75ZM15.6159 14.6737L15.4878 18.9699C15.4801 19.2222 15.548 19.4153 15.6916 19.5492C15.8352 19.6831 16.0273 19.75 16.2679 19.75C16.5124 19.75 16.7064 19.6889 16.85 19.5666C16.9936 19.4444 17.0655 19.2668 17.0655 19.0339V6.68661C17.0655 6.53913 17.0228 6.4295 16.9373 6.3577C16.852 6.2859 16.755 6.25 16.6463 6.25C16.5376 6.25 16.4425 6.28105 16.361 6.34314C16.2795 6.40524 16.1903 6.5042 16.0932 6.64004C15.8604 6.96992 15.6489 7.36287 15.4587 7.81889C15.2685 8.2749 15.1046 8.77361 14.9668 9.315C14.829 9.8564 14.7233 10.4182 14.6495 11.0003C14.5758 11.5825 14.5389 12.1646 14.5389 12.7467V13.032C14.5389 13.2338 14.5758 13.4085 14.6495 13.556C14.7233 13.7035 14.8319 13.8257 14.9755 13.9227L15.3248 14.1555C15.4257 14.2293 15.5004 14.3079 15.5489 14.3913C15.5975 14.4748 15.6198 14.5689 15.6159 14.6737Z" fill="#8B96A5"/>
</svg>
