<svg width="34" height="24" viewBox="0 0 34 24" fill="none" xmlns="http://www.w3.org/2000/svg">
<rect x="0.5" y="0.5" width="33" height="23" rx="3.5" fill="white"/>
<rect x="0.5" y="0.5" width="33" height="23" rx="3.5" stroke="#F1F3F4"/>
<path fill-rule="evenodd" clip-rule="evenodd" d="M10.1237 15.2034H11.4123C11.3766 15.1461 11.3351 15.09 11.2936 15.034C11.2031 14.9116 11.1127 14.7896 11.0838 14.6557C11.027 14.3755 11.0094 14.0887 10.9918 13.8017C10.9852 13.6952 10.9787 13.5886 10.9701 13.4824C10.9167 12.8071 10.864 12.1315 10.8112 11.4557L10.8112 11.4549L10.8111 11.4542L10.8111 11.4537C10.7329 10.4521 10.6547 9.45044 10.5743 8.44949C10.549 8.15356 10.4143 8.02134 10.1153 8.00874C9.95532 8.00245 9.79481 8.0035 9.63404 8.00455C9.47319 8.0056 9.31208 8.00665 9.15097 8.00035C8.96358 7.99406 8.90042 8.07171 8.86883 8.24801C8.80672 8.58382 8.73829 8.91858 8.66986 9.25333L8.66986 9.25334C8.60143 9.5881 8.533 9.92285 8.47089 10.2587C8.44836 10.3791 8.42183 10.4993 8.39529 10.6196C8.29279 11.0839 8.19009 11.5491 8.31719 12.0343C8.34147 12.1265 8.34825 12.2232 8.35329 12.2951C8.35525 12.3229 8.35694 12.3471 8.35929 12.3659C8.31112 12.4001 8.26143 12.4282 8.2161 12.4539L8.2161 12.4539L8.2161 12.4539C8.13066 12.5023 8.06071 12.5419 8.04557 12.5967C7.97938 12.8515 7.93345 13.1118 7.88638 13.3785C7.86906 13.4766 7.8516 13.5756 7.83291 13.6755C7.92926 13.6821 8.01396 13.6888 8.09866 13.6954L8.0988 13.6954L8.09883 13.6954C8.1751 13.7014 8.25136 13.7073 8.33614 13.7133C8.33614 13.8195 8.33578 13.924 8.33544 14.0273V14.0273V14.0273V14.0273V14.0273C8.33458 14.2809 8.33375 14.5271 8.33824 14.7732C8.34455 15.1006 8.4372 15.1951 8.77197 15.2014C9.09377 15.2058 9.41556 15.205 9.73735 15.2041C9.86614 15.2038 9.99493 15.2034 10.1237 15.2034ZM23.0225 13.4783L23.0327 13.4341C22.97 13.4565 22.9083 13.4838 22.8475 13.5107C22.7205 13.5669 22.5971 13.6215 22.4747 13.6272C21.9504 13.6545 21.4262 13.6545 20.904 13.6314C20.4724 13.6125 20.2723 13.3418 20.3671 12.922C20.5734 11.9964 20.7924 11.0709 21.0219 10.1495C21.1356 9.69194 21.4072 9.50304 21.8831 9.49675C22.1798 9.4936 22.4753 9.494 22.7714 9.49439H22.7716H22.7717H22.7719H22.772C22.8707 9.49452 22.9695 9.49465 23.0685 9.49465C23.3485 9.49465 23.5464 9.37502 23.6222 9.09798C23.6955 8.82687 23.7625 8.55326 23.8339 8.2616L23.834 8.2612L23.8346 8.25878L23.8347 8.25851C23.8553 8.17408 23.8764 8.08814 23.8981 8.00031H23.5654H20.5061C19.468 8.00031 18.7353 8.49352 18.3795 9.46527C18.2447 9.83256 18.1605 10.2187 18.0784 10.6028C18.0304 10.8241 17.981 11.0453 17.9316 11.2665C17.7621 12.0252 17.5924 12.7847 17.4783 13.5516C17.3352 14.5108 17.771 15.0754 18.7353 15.1404C19.5148 15.1941 20.2985 15.1906 21.0819 15.1871H21.0819H21.0819H21.082H21.082H21.0821C21.4012 15.1856 21.7202 15.1842 22.0389 15.1866C22.0598 15.1866 22.0806 15.1816 22.1015 15.1766C22.1164 15.173 22.1314 15.1695 22.1463 15.1677C22.5021 15.1236 22.6979 14.9117 22.7737 14.5717C22.8546 14.2047 22.9394 13.8378 23.0225 13.4783ZM14.8823 15.2013C14.6048 15.2013 14.3322 15.2019 14.0629 15.2024H14.0628H14.0628H14.0627C13.4454 15.2037 12.8458 15.205 12.2462 15.1992C11.9851 15.1971 11.9999 15.004 12.042 14.8214C12.1023 14.5631 12.163 14.3048 12.2238 14.0463C12.2988 13.7272 12.3739 13.4078 12.4483 13.0878C12.5143 12.8038 12.5797 12.5195 12.6451 12.235L12.6451 12.235L12.6451 12.2349L12.6451 12.2349L12.6451 12.2349L12.6451 12.2349L12.6451 12.2349C12.7905 11.6027 12.9359 10.9701 13.0884 10.3404C13.1558 10.0613 13.12 9.83462 12.8294 9.64153C12.865 9.63752 12.8959 9.6335 12.9236 9.6299C12.9829 9.62219 13.0278 9.61635 13.0737 9.61635H15.0571C15.5603 9.61635 15.6445 9.72129 15.5329 10.204C15.5224 10.2481 15.5119 10.2901 15.4971 10.3446C15.695 10.4244 15.834 10.3866 15.933 10.1977C15.9411 10.182 15.9492 10.1661 15.9573 10.15C16.0125 10.0413 16.0705 9.9272 16.1604 9.85771C16.3183 9.73388 16.4994 9.60375 16.6889 9.56807C16.8723 9.53469 17.0639 9.54146 17.2718 9.54881C17.3645 9.55209 17.4605 9.55548 17.5605 9.55548C17.526 9.69461 17.4943 9.8318 17.4631 9.96711C17.3916 10.2768 17.3225 10.5766 17.2258 10.8672C17.1415 11.117 16.8741 11.1737 16.6299 11.1926C16.4966 11.2028 16.3626 11.2021 16.2282 11.2014C16.1418 11.201 16.0553 11.2006 15.9688 11.203C15.5329 11.2156 15.3582 11.3605 15.2613 11.7781L15.261 11.7792L15.2608 11.7802L15.2606 11.781C15.0587 12.6427 14.8568 13.5043 14.6528 14.3638C14.5539 14.7773 14.5707 14.8571 14.8823 15.2013ZM26.5491 9.6125C26.1828 9.61341 25.8145 9.61433 25.4435 9.61433C25.4181 9.71435 25.3926 9.81225 25.3675 9.90869L25.3674 9.90917L25.3673 9.90942C25.3219 10.0839 25.2778 10.2536 25.2372 10.4224C25.1508 10.7708 25.2309 10.8862 25.5888 10.8946C25.889 10.9022 26.1904 10.901 26.4912 10.8997C26.6039 10.8993 26.7165 10.8988 26.8289 10.8988C27.3385 10.8988 27.4438 11.0352 27.3406 11.5347C27.1323 12.5346 26.9275 13.5362 26.723 14.5363L26.7229 14.5369L26.6668 14.811C26.6142 15.0691 26.7174 15.193 27.0142 15.1971C27.3933 15.2034 27.7723 15.2027 28.1514 15.2019C28.2777 15.2016 28.4039 15.2014 28.5302 15.2014H29.3366C29.0461 15.0251 29.0776 14.7795 29.1345 14.5297C29.191 14.2887 29.2482 14.0477 29.3055 13.8067L29.3059 13.805C29.4385 13.2468 29.5711 12.6882 29.6946 12.1287C29.7122 12.0484 29.7303 11.9682 29.7483 11.8879C29.8504 11.4328 29.9527 10.9771 29.9956 10.5168C30.0441 9.98582 29.684 9.62483 29.1429 9.61853C28.2828 9.60818 27.4216 9.61033 26.5491 9.6125ZM6.98033 8.02134H8.51104C8.35312 8.77271 8.19942 9.50309 8.04572 10.2314C8.03659 10.2746 8.02669 10.3178 8.01678 10.3611L8.01677 10.3611C7.99008 10.4776 7.96325 10.5948 7.95097 10.7141C7.88843 11.2846 7.61266 11.7684 7.32788 12.268C7.29626 12.3235 7.26454 12.3791 7.23299 12.4351C7.28351 12.4409 7.3291 12.4459 7.37596 12.4509L7.37602 12.4509L7.37608 12.4509C7.43074 12.4568 7.48714 12.4629 7.55513 12.4708C7.53621 12.5616 7.51777 12.6522 7.49937 12.7425L7.49937 12.7425C7.43997 13.0342 7.38113 13.3231 7.30879 13.6084C7.29826 13.6524 7.15298 13.6923 7.07507 13.6839C6.87505 13.6629 6.77398 13.7532 6.7024 13.9253C6.65449 14.0399 6.59679 14.151 6.53914 14.2619C6.50811 14.3217 6.4771 14.3814 6.44763 14.4416C6.25603 14.8278 6.26445 14.8949 6.57396 15.1993C6.35503 15.1993 6.13807 15.2001 5.92258 15.2009L5.92225 15.2009H5.9222C5.36688 15.203 4.82132 15.205 4.27684 15.193C4.00102 15.1888 3.92943 14.9999 4.0705 14.7228C4.50002 13.8854 4.93165 13.0501 5.36539 12.2148C5.65274 11.6587 5.94061 11.1031 6.22848 10.5476L6.22864 10.5473L6.22881 10.547C6.51669 9.9914 6.80457 9.43583 7.09192 8.87975C7.31089 8.45159 7.30247 8.37813 6.98033 8.02134ZM26.8327 11.8653C26.8482 11.7963 26.8637 11.7274 26.8796 11.6586C26.6908 11.6586 26.5042 11.656 26.3192 11.6535C25.8975 11.6478 25.4843 11.6422 25.0731 11.667C24.6941 11.688 24.3782 11.9062 24.1635 12.2232C23.696 12.9158 23.5255 13.686 23.6097 14.513C23.6476 14.874 23.8645 15.1153 24.2245 15.151C24.6225 15.193 25.0309 15.2119 25.4289 15.1762C26.0647 15.1174 26.448 14.6347 26.4374 13.9757C26.05 13.9043 25.9826 13.8015 26.0647 13.4132L26.0648 13.4129C26.0879 13.2976 26.1111 13.1822 26.1405 13.0669C26.2079 12.8024 26.3069 12.5632 26.6101 12.4792C26.6522 12.4666 26.7027 12.4141 26.7133 12.3701C26.7566 12.2032 26.7946 12.0342 26.8327 11.8653Z" fill="#2755A5"/>
</svg>
