<svg width="18" height="18" viewBox="0 0 25 24" fill="none" xmlns="http://www.w3.org/2000/svg">
<path d="M4.73426 9.14576C4.58225 9.57903 4.78747 9.93629 5.10671 10.0502C5.34993 10.1415 5.58556 10.0275 5.78318 9.86786C6.47486 9.35859 7.13614 9.13056 7.92663 9.4194C8.71712 9.70065 9.03636 10.2859 9.17317 11.0992C9.21117 11.3652 9.30238 11.578 9.53041 11.6616C9.77363 11.7528 9.97886 11.6465 10.1841 11.4716C10.6401 11.084 11.2558 10.8864 11.8411 10.9168L8.47389 20.1442C8.35228 20.471 8.5271 20.8435 8.86153 20.9651C9.18077 21.0791 9.56081 20.9043 9.68243 20.5775L13.042 11.35C13.5057 11.7072 13.8401 12.2545 13.9389 12.8474C13.9921 13.0982 14.0757 13.3186 14.3114 13.4022C14.547 13.4859 14.7522 13.3718 14.9574 13.2046C15.5883 12.6726 16.1963 12.4293 16.9869 12.7106C17.7773 13.007 18.1422 13.5999 18.3398 14.4512C18.4006 14.6944 18.4994 14.93 18.7426 15.0136C19.0619 15.1277 19.4647 14.9908 19.6092 14.5576C20.6429 11.7225 19.936 6.99472 15.3603 4.97289L15.7555 3.90117C15.8847 3.52112 15.7403 3.17909 15.3755 3.04227C15.0259 2.91305 14.6838 3.08788 14.547 3.46032L14.1593 4.53964C9.35559 3.14108 5.76798 6.29544 4.73426 9.14576ZM6.51286 8.26407C7.80501 6.28024 10.2373 5.0261 12.9584 5.48975C11.7346 6.29544 10.5565 7.7092 9.78884 9.53344C9.4848 8.94814 8.99075 8.5453 8.33707 8.31727C7.7214 8.09684 7.12093 8.07404 6.51286 8.26407ZM10.7085 9.91346C11.575 7.85361 13.0344 6.37145 14.357 5.83939C15.041 7.10113 15.2082 9.16857 14.547 11.3196C14.1822 10.6887 13.5665 10.1795 12.8748 9.92104C12.1831 9.67023 11.385 9.67023 10.7085 9.91346ZM15.4895 11.6085C16.0824 9.71582 16.09 7.88402 15.6719 6.47786C18.0434 7.87642 19.0999 10.3999 18.8111 12.741C18.4691 12.2089 17.9902 11.8364 17.3897 11.6085C16.736 11.3728 16.0976 11.3576 15.4895 11.6085Z" fill="#8B96A5"/>
</svg>
