<svg width="25" height="24" viewBox="0 0 25 24" fill="none" xmlns="http://www.w3.org/2000/svg">
<path d="M6.83546 19.6876H17.6567C19.362 19.6876 20.25 18.8075 20.25 17.1257V7.56189C20.25 5.88016 19.362 5 17.6567 5H6.83546C5.13802 5 4.25 5.8723 4.25 7.56189V17.1257C4.25 18.8075 5.13802 19.6876 6.83546 19.6876ZM6.8276 18.1238C6.17534 18.1238 5.81385 17.7859 5.81385 17.0943V9.86444C5.81385 9.17289 6.17534 8.83497 6.8276 8.83497H17.6645C18.3168 8.83497 18.6783 9.17289 18.6783 9.86444V17.0943C18.6783 17.7859 18.3168 18.1238 17.6645 18.1238H6.8276ZM10.7333 11.5462H11.197C11.4799 11.5462 11.5742 11.4597 11.5742 11.1847V10.721C11.5742 10.4381 11.4799 10.3517 11.197 10.3517H10.7333C10.4504 10.3517 10.3561 10.4381 10.3561 10.721V11.1847C10.3561 11.4597 10.4504 11.5462 10.7333 11.5462ZM13.303 11.5462H13.7667C14.0417 11.5462 14.1361 11.4597 14.1361 11.1847V10.721C14.1361 10.4381 14.0417 10.3517 13.7667 10.3517H13.303C13.0201 10.3517 12.9258 10.4381 12.9258 10.721V11.1847C12.9258 11.4597 13.0201 11.5462 13.303 11.5462ZM15.8649 11.5462H16.3286C16.6115 11.5462 16.7058 11.4597 16.7058 11.1847V10.721C16.7058 10.4381 16.6115 10.3517 16.3286 10.3517H15.8649C15.5899 10.3517 15.4956 10.4381 15.4956 10.721V11.1847C15.4956 11.4597 15.5899 11.5462 15.8649 11.5462ZM8.17141 14.0766H8.62721C8.91012 14.0766 9.00442 13.9902 9.00442 13.7073V13.2436C9.00442 12.9686 8.91012 12.8821 8.62721 12.8821H8.17141C7.88851 12.8821 7.7942 12.9686 7.7942 13.2436V13.7073C7.7942 13.9902 7.88851 14.0766 8.17141 14.0766ZM10.7333 14.0766H11.197C11.4799 14.0766 11.5742 13.9902 11.5742 13.7073V13.2436C11.5742 12.9686 11.4799 12.8821 11.197 12.8821H10.7333C10.4504 12.8821 10.3561 12.9686 10.3561 13.2436V13.7073C10.3561 13.9902 10.4504 14.0766 10.7333 14.0766ZM13.303 14.0766H13.7667C14.0417 14.0766 14.1361 13.9902 14.1361 13.7073V13.2436C14.1361 12.9686 14.0417 12.8821 13.7667 12.8821H13.303C13.0201 12.8821 12.9258 12.9686 12.9258 13.2436V13.7073C12.9258 13.9902 13.0201 14.0766 13.303 14.0766ZM15.8649 14.0766H16.3286C16.6115 14.0766 16.7058 13.9902 16.7058 13.7073V13.2436C16.7058 12.9686 16.6115 12.8821 16.3286 12.8821H15.8649C15.5899 12.8821 15.4956 12.9686 15.4956 13.2436V13.7073C15.4956 13.9902 15.5899 14.0766 15.8649 14.0766ZM8.17141 16.5992H8.62721C8.91012 16.5992 9.00442 16.5128 9.00442 16.2377V15.7741C9.00442 15.4912 8.91012 15.4047 8.62721 15.4047H8.17141C7.88851 15.4047 7.7942 15.4912 7.7942 15.7741V16.2377C7.7942 16.5128 7.88851 16.5992 8.17141 16.5992ZM10.7333 16.5992H11.197C11.4799 16.5992 11.5742 16.5128 11.5742 16.2377V15.7741C11.5742 15.4912 11.4799 15.4047 11.197 15.4047H10.7333C10.4504 15.4047 10.3561 15.4912 10.3561 15.7741V16.2377C10.3561 16.5128 10.4504 16.5992 10.7333 16.5992ZM13.303 16.5992H13.7667C14.0417 16.5992 14.1361 16.5128 14.1361 16.2377V15.7741C14.1361 15.4912 14.0417 15.4047 13.7667 15.4047H13.303C13.0201 15.4047 12.9258 15.4912 12.9258 15.7741V16.2377C12.9258 16.5128 13.0201 16.5992 13.303 16.5992Z" fill="#8B96A5"/>
</svg>
