<svg width="18" height="18" viewBox="0 0 25 24" fill="none" xmlns="http://www.w3.org/2000/svg">
<path fill-rule="evenodd" clip-rule="evenodd" d="M16.3814 12.9796C18.2811 12.3814 19.6549 10.1191 19.6549 7.39251C19.6549 4.88534 17.9019 3 15.3749 3C13.0783 3 11.4319 4.55716 11.1508 6.72308C10.5258 6.06997 9.64443 5.67386 8.60559 5.67386C6.50857 5.67386 5.05322 7.28797 5.05322 9.37179C5.05322 11.5099 6.0896 13.3246 7.56441 13.9137L7.35531 14.7301C7.28255 14.9682 7.42147 15.2196 7.72577 15.2196H8.06414C8.11698 15.9573 8.43085 16.3265 8.70412 16.6479C8.93003 16.9136 9.1282 17.1467 9.1282 17.5283C9.1282 17.8904 8.93888 18.1057 8.71605 18.3591C8.3974 18.7215 8.01022 19.1618 8.01022 20.2207C8.01022 20.4456 8.18222 20.6375 8.41375 20.6375C8.6519 20.6375 8.84374 20.4456 8.84374 20.2207C8.84374 19.5881 9.12231 19.2291 9.40052 18.8706C9.67799 18.513 9.95509 18.1559 9.95509 17.5283C9.95509 16.8437 9.66925 16.4941 9.39371 16.157C9.17546 15.89 8.96367 15.631 8.90554 15.2196H9.22742C9.53834 15.2196 9.66403 14.9682 9.59788 14.7301L9.40599 13.9983C10.6331 13.6325 11.592 12.4397 11.9759 10.8916C12.5574 11.92 13.394 12.6706 14.3701 12.9792L14.1378 13.8688C14.0585 14.1334 14.2106 14.4179 14.548 14.4179H14.8933C14.9517 15.277 15.324 15.7556 15.6493 16.1737C15.9185 16.5198 16.1555 16.8244 16.1555 17.269C16.1555 17.7084 15.9247 17.9919 15.6558 18.3221C15.2811 18.7824 14.8324 19.3335 14.8324 20.5237C14.8324 20.7817 15.0375 21 15.2955 21C15.5535 21 15.7718 20.7817 15.7718 20.5237C15.7718 19.8018 16.0987 19.3559 16.4267 18.9084C16.7569 18.4579 17.0882 18.0058 17.0882 17.269C17.0882 16.4918 16.7492 16.0395 16.4223 15.6036C16.1586 15.2518 15.9028 14.9106 15.8395 14.4179H16.2084C16.5458 14.4179 16.6913 14.1334 16.6186 13.8688L16.3814 12.9796ZM12.107 7.39251C12.107 9.98567 13.5292 12.1422 15.3749 12.1422C17.2139 12.1422 18.656 9.98567 18.656 7.39251C18.656 5.50055 17.2933 3.9989 15.3749 3.9989C13.4565 3.9989 12.107 5.50055 12.107 7.39251ZM8.60559 6.67275C7.09732 6.67275 6.05874 7.87672 6.05874 9.37179C6.05874 11.4357 7.15686 13.1093 8.60559 13.1093C10.0543 13.1093 11.1525 11.4357 11.1525 9.37179C11.1525 7.87672 10.1205 6.67275 8.60559 6.67275Z" fill="#8B96A5"/>
</svg>
