<svg width="18" height="18" viewBox="0 0 25 24" fill="none" xmlns="http://www.w3.org/2000/svg">
<path d="M4.2893 12.6176C6.68931 9.34413 10.3687 7.27942 14.6216 7.27942C16.3335 7.27942 17.9393 7.60589 19.4658 8.25884L19.2717 7.1206C17.8335 6.59118 16.2364 6.3 14.6216 6.3C10.104 6.3 6.0893 8.54119 3.55695 11.9647L4.2893 12.6176ZM19.2894 16.1736L20.2246 15.9C18.8923 11.2324 11.2511 10.2177 11.2511 6.47648C11.2511 5.35589 11.8246 4.5353 12.8746 3.97941L12.2658 3.19412C11.057 3.89118 10.2717 5.06471 10.2717 6.47648C10.2717 11.003 18.1246 12.1677 19.2894 16.1736ZM6.43342 18.2559L7.56283 18.3618C6.23048 15.8206 7.54519 12.1059 7.3246 8.91178C7.26284 8.06471 6.73342 6.53824 5.78048 6.30883L5.53342 7.26178C5.95695 7.31472 6.30989 8.40001 6.34519 8.99119C6.53931 11.7971 5.3393 15.4059 6.43342 18.2559ZM13.5452 20.3559L14.3305 19.7647C9.1599 13.3412 8.39225 6.3353 9.23931 4.42942L8.17166 4.57942C7.50989 7.32354 8.60402 14.1795 13.5452 20.3559ZM12.354 21C17.2776 21 21.354 16.9148 21.354 12C21.354 7.07648 17.2688 3 12.3452 3C7.43048 3 3.354 7.07648 3.354 12C3.354 16.9148 7.43931 21 12.354 21ZM12.354 19.8C8.09225 19.8 4.55401 16.2618 4.55401 12C4.55401 7.73825 8.08343 4.2 12.3452 4.2C16.607 4.2 20.154 7.73825 20.154 12C20.154 16.2618 16.6158 19.8 12.354 19.8Z" fill="#8B96A5"/>
</svg>
