<svg width="18" height="18" viewBox="0 0 25 24" fill="none" xmlns="http://www.w3.org/2000/svg">
<path fill-rule="evenodd" clip-rule="evenodd" d="M6.42754 3C6.75803 3 7.02595 3.26792 7.02595 3.59841V4.55369H17.682V3.59841C17.682 3.26792 17.9499 3 18.2804 3C18.6109 3 18.8788 3.26792 18.8788 3.59841V5.81696C18.8788 5.8498 18.8761 5.88202 18.8711 5.91342V9.41753C18.8762 9.47697 18.8788 9.53683 18.8788 9.59695V10.5056C19.4026 10.6195 19.8875 10.8815 20.2724 11.2664C20.8007 11.7947 21.0974 12.5112 21.0974 13.2583V14.1803H21.0975V17.7359L21.0976 17.742V20.4016C21.0976 20.7321 20.8297 21 20.4992 21C20.1687 21 19.9008 20.7321 19.9008 20.4016V18.3404H4.8076V20.4016C4.8076 20.7321 4.53969 21 4.2092 21C3.87871 21 3.61079 20.7321 3.61079 20.4016V18.3404V17.742V15.3384H3.61069V13.302C3.60492 12.9299 3.67296 12.5602 3.81091 12.2144C3.94954 11.867 4.156 11.5506 4.41823 11.2838C4.68046 11.017 4.99321 10.805 5.33823 10.6604C5.49719 10.5938 5.66153 10.542 5.82913 10.5056V9.59695V5.81696V4.55369V3.59841C5.82913 3.26792 6.09705 3 6.42754 3ZM7.02595 5.81696L7.02595 5.75051H17.6742V7.71013C17.4025 7.58405 17.1041 7.51692 16.7988 7.51692H13.8356C13.2839 7.51692 12.7549 7.73606 12.3648 8.12615L12.354 8.13704L12.3432 8.12615C12.15 7.933 11.9207 7.77978 11.6684 7.67525C11.416 7.57072 11.1455 7.51692 10.8724 7.51692H7.90915C7.60093 7.51692 7.29976 7.58533 7.02595 7.71374V5.8175L7.02595 5.81696ZM6.07487 11.677H18.633C18.931 11.7434 19.2068 11.8934 19.4261 12.1127C19.7299 12.4166 19.9006 12.8286 19.9006 13.2583V14.1415H4.8075V13.2919L4.80741 13.2867C4.80365 13.0715 4.84278 12.8578 4.92251 12.658C5.00224 12.4581 5.12099 12.2761 5.2718 12.1227C5.42262 11.9692 5.6025 11.8474 5.80093 11.7642C5.8897 11.727 5.98138 11.6978 6.07487 11.677ZM7.02595 9.59695V10.4414H11.7556V9.59695L11.7556 9.59287C11.755 9.47827 11.7322 9.36486 11.6883 9.25896C11.644 9.1518 11.5789 9.05444 11.4969 8.97242C11.4149 8.89041 11.3175 8.82535 11.2104 8.78097C11.1032 8.73658 10.9884 8.71374 10.8724 8.71374H7.90915C7.67491 8.71374 7.45026 8.80679 7.28463 8.97242C7.119 9.13806 7.02595 9.36271 7.02595 9.59695ZM17.6742 9.48019V10.4414L12.9524 10.4414V9.59695L12.9524 9.59283C12.9535 9.36008 13.0464 9.13709 13.2111 8.97242C13.3767 8.80679 13.6013 8.71374 13.8356 8.71374H16.7988C17.033 8.71374 17.2577 8.80679 17.4233 8.97242C17.5612 9.11029 17.6488 9.28905 17.6742 9.48019ZM4.8076 17.1436V15.3772H19.9007V17.1436H4.8076Z" fill="#8B96A5"/>
</svg>
