<svg width="24" height="24" viewBox="0 0 24 24" fill="none" xmlns="http://www.w3.org/2000/svg">
<path fill-rule="evenodd" clip-rule="evenodd" d="M10.7186 4C7.8715 4 6 6.13974 6 8.71862V9.61451C6 10.0287 6.33579 10.3645 6.75 10.3645C7.16421 10.3645 7.5 10.0287 7.5 9.61451V8.71862C7.5 6.91388 8.7532 5.5 10.7186 5.5C11.8874 5.5 12.6652 5.88041 13.1568 6.41833C13.6586 6.96748 13.9372 7.76356 13.9372 8.71862V11.8924H11.7121C11.3834 11.8924 11.1168 12.1589 11.1168 12.4877C11.1168 12.8165 11.3834 13.083 11.7121 13.083H13.9372V14.805H11.7123C11.3835 14.805 11.117 15.0715 11.117 15.4003C11.117 15.7291 11.3835 15.9956 11.7123 15.9956H13.9372V19.4277C13.9372 19.8419 14.273 20.1777 14.6872 20.1777C15.1014 20.1777 15.4372 19.8419 15.4372 19.4277V15.9956H17.6624C17.9912 15.9956 18.2577 15.7291 18.2577 15.4003C18.2577 15.0715 17.9912 14.805 17.6624 14.805H15.4372V13.083H17.6623C17.991 13.083 18.2576 12.8165 18.2576 12.4877C18.2576 12.1589 17.991 11.8924 17.6623 11.8924H15.4372V8.71862C15.4372 7.48187 15.0749 6.29364 14.2641 5.40643C13.443 4.50799 12.2365 4 10.7186 4Z" fill="#8B96A5"/>
</svg>
