<svg width="18" height="18" viewBox="0 0 25 24" fill="none" xmlns="http://www.w3.org/2000/svg">
<path d="M16.8226 14.7405C12.4647 14.7405 9.7598 12.1147 9.7598 7.89916C9.7598 6.69699 9.95753 5.63717 10.2502 5.06772C10.3688 4.83836 10.3925 4.72763 10.3925 4.56945C10.3925 4.30845 10.1473 4 9.81516 4C9.75189 4 9.60162 4.02373 9.38016 4.11073C6.45382 5.29709 4.39746 8.38162 4.39746 11.7034C4.39746 16.5042 7.88535 20 12.6861 20C16.1266 20 18.9185 18.1968 20.1998 15.2387C20.2947 15.0332 20.3105 14.8591 20.3105 14.7721C20.3105 14.4479 20.0337 14.2264 19.7885 14.2264C19.6619 14.2264 19.5671 14.2343 19.3772 14.3055C18.7366 14.5665 17.7717 14.7405 16.8226 14.7405ZM5.63918 11.648C5.63918 9.18834 6.92045 6.84726 8.9689 5.55808C8.71581 6.29363 8.58135 7.10826 8.58135 8.00989C8.58135 12.953 11.5947 15.8952 16.6407 15.8952C17.4553 15.8952 18.1434 15.8003 18.7998 15.5709C17.5977 17.5561 15.2803 18.7662 12.7336 18.7662C8.6288 18.7662 5.63918 15.7766 5.63918 11.648Z" fill="#8B96A5"/>
</svg>
