<svg width="18" height="18" viewBox="0 0 24 24" fill="none" xmlns="http://www.w3.org/2000/svg">
<mask id="mask0_713_773" style="mask-type:alpha" maskUnits="userSpaceOnUse" x="0" y="0" width="24" height="24">
<rect width="24" height="24" fill="#D9D9D9"/>
</mask>
<g mask="url(#mask0_713_773)">
<path d="M19 9C19.2833 9 19.5208 8.90417 19.7125 8.7125C19.9042 8.52083 20 8.28333 20 8C20 7.71667 19.9042 7.47917 19.7125 7.2875C19.5208 7.09583 19.2833 7 19 7C18.7167 7 18.4792 7.09583 18.2875 7.2875C18.0958 7.47917 18 7.71667 18 8C18 8.28333 18.0958 8.52083 18.2875 8.7125C18.4792 8.90417 18.7167 9 19 9ZM18.9986 10C18.4316 10 17.9567 9.80877 17.574 9.4263C17.1913 9.04383 17 8.56991 17 8.00453C17 7.45023 17.1912 6.97756 17.5737 6.58652C17.9562 6.19551 18.4301 6 18.9955 6C19.5498 6 20.0224 6.19458 20.4135 6.58372C20.8045 6.97287 21 7.44542 21 8.00135C21 8.5684 20.8054 9.04327 20.4163 9.42595C20.0271 9.80865 19.5546 10 18.9986 10ZM12 8C12.4167 8 12.7708 7.85833 13.0625 7.575C13.3542 7.29167 13.5 6.93333 13.5 6.5C13.5 6.08333 13.3542 5.72917 13.0625 5.4375C12.7708 5.14583 12.4167 5 12 5C11.5667 5 11.2083 5.14583 10.925 5.4375C10.6417 5.72917 10.5 6.08333 10.5 6.5C10.5 6.93333 10.6417 7.29167 10.925 7.575C11.2083 7.85833 11.5667 8 12 8ZM12.0012 9C11.2991 9 10.7067 8.75953 10.224 8.27858C9.74134 7.79764 9.5 7.20685 9.5 6.5062C9.5 5.81745 9.74047 5.22756 10.2214 4.73652C10.7023 4.24551 11.2931 4 11.9938 4C12.6825 4 13.2724 4.24393 13.7635 4.7318C14.2545 5.21967 14.5 5.80868 14.5 6.49883C14.5 7.20089 14.2561 7.79327 13.7682 8.27595C13.2803 8.75865 12.6913 9 12.0012 9ZM7.46155 13.375C7.46155 13.9776 7.74103 14.6378 8.3 15.3558C8.85898 16.0737 9.97053 17.1897 11.6346 18.7038L12 19.0308L12.4038 18.6462C13.9705 17.2295 15.0513 16.1466 15.6462 15.3975C16.241 14.6484 16.5385 13.9743 16.5385 13.375C16.5385 12.8415 16.3617 12.3893 16.0081 12.0182C15.6546 11.6471 15.2185 11.4616 14.7 11.4616C14.3884 11.4616 14.0936 11.5308 13.8154 11.6692C13.5372 11.8077 13.2994 11.9942 13.1019 12.2289L12.075 13.4616H11.9192L10.8731 12.2289C10.6756 11.9942 10.4407 11.8077 10.1683 11.6692C9.89584 11.5308 9.60642 11.4616 9.3 11.4616C8.75788 11.4616 8.31595 11.6471 7.9742 12.0182C7.63243 12.3893 7.46155 12.8415 7.46155 13.375ZM6.46152 13.375C6.46152 12.6199 6.73909 11.9455 7.29423 11.3519C7.84936 10.7583 8.51795 10.4615 9.3 10.4615C9.79103 10.4615 10.2484 10.5782 10.6721 10.8115C11.0958 11.0449 11.4551 11.3487 11.75 11.7231L12 12.0115L12.25 11.7038C12.5577 11.3423 12.9192 11.0449 13.3346 10.8115C13.75 10.5782 14.2051 10.4615 14.7 10.4615C15.4692 10.4615 16.1346 10.7601 16.6962 11.3572C17.2577 11.9542 17.5385 12.6269 17.5385 13.375C17.5385 14.1558 17.2337 14.9529 16.624 15.7663C16.0144 16.5798 14.8269 17.7923 13.0615 19.4038L12 20.3846L10.9769 19.4616C9.15256 17.7821 7.9439 16.5462 7.35095 15.7538C6.758 14.9615 6.46152 14.1686 6.46152 13.375ZM5 9C5.28333 9 5.52083 8.90417 5.7125 8.7125C5.90417 8.52083 6 8.28333 6 8C6 7.71667 5.90417 7.47917 5.7125 7.2875C5.52083 7.09583 5.28333 7 5 7C4.71667 7 4.47917 7.09583 4.2875 7.2875C4.09583 7.47917 4 7.71667 4 8C4 8.28333 4.09583 8.52083 4.2875 8.7125C4.47917 8.90417 4.71667 9 5 9ZM12.075 21V20H20V13.6154C20 13.4487 19.9391 13.3045 19.8173 13.1827C19.6955 13.0609 19.5513 13 19.3846 13H17.1269V12H19.3846C19.8289 12 20.2091 12.1582 20.5255 12.4745C20.8418 12.7909 21 13.1711 21 13.6154V20.191C21 20.424 20.9226 20.617 20.7678 20.7702C20.613 20.9234 20.4212 21 20.1923 21H12.075ZM4 20H12.075V21H3.80768C3.57884 21 3.38702 20.9226 3.2322 20.7678C3.0774 20.613 3 20.4212 3 20.1923V13.6218C3 13.1701 3.15481 12.7868 3.46442 12.4721C3.77404 12.1574 4.15769 12 4.61538 12H6.87308V13H4.61538C4.43589 13 4.28846 13.0609 4.17308 13.1827C4.05769 13.3045 4 13.4487 4 13.6154V20ZM4.99865 10C4.4316 10 3.95673 9.80877 3.57402 9.4263C3.19134 9.04383 3 8.56991 3 8.00453C3 7.45023 3.19123 6.97756 3.5737 6.58652C3.95617 6.19551 4.43009 6 4.99548 6C5.54978 6 6.02244 6.19458 6.41348 6.58372C6.80449 6.97287 7 7.44542 7 8.00135C7 8.5684 6.80542 9.04327 6.41628 9.42595C6.02713 9.80865 5.55458 10 4.99865 10Z" fill="#8B96A5"/>
</g>
</svg>
