<svg width="18" height="18" viewBox="0 0 25 24" fill="none" xmlns="http://www.w3.org/2000/svg">
<path fill-rule="evenodd" clip-rule="evenodd" d="M12.8972 4.54312C12.8972 4.24317 12.654 4 12.3541 4C12.0541 4 11.811 4.24317 11.811 4.54312V5.8949C11.811 6.19486 12.0541 6.43803 12.3541 6.43803C12.654 6.43803 12.8972 6.19486 12.8972 5.8949V4.54312ZM17.8869 11.3603C17.8869 11.0604 18.1301 10.8172 18.43 10.8172H19.7748C20.0747 10.8172 20.3179 11.0604 20.3179 11.3603C20.3179 11.6603 20.0747 11.9034 19.7748 11.9034H18.43C18.1301 11.9034 17.8869 11.6603 17.8869 11.3603ZM4.93326 10.8172C4.6333 10.8172 4.39014 11.0604 4.39014 11.3603C4.39014 11.6603 4.6333 11.9034 4.93326 11.9034H6.28504C6.585 11.9034 6.82816 11.6603 6.82816 11.3603C6.82816 11.0604 6.585 10.8172 6.28504 10.8172H4.93326ZM7.49311 5.73104C7.281 5.51893 6.93712 5.51893 6.72501 5.73104C6.51291 5.94314 6.51291 6.28703 6.72501 6.49913L7.67548 7.4496C7.88758 7.6617 8.23147 7.6617 8.44357 7.4496C8.65568 7.23749 8.65568 6.89361 8.44357 6.6815L7.49311 5.73104ZM17.9833 6.49913C18.1954 6.28703 18.1954 5.94314 17.9833 5.73104C17.7712 5.51893 17.4273 5.51893 17.2152 5.73104L16.2648 6.6815C16.0527 6.89361 16.0527 7.23749 16.2648 7.4496C16.4769 7.6617 16.8207 7.6617 17.0329 7.4496L17.9833 6.49913ZM3.96582 14.0569C3.96582 13.7569 4.20899 13.5137 4.50894 13.5137H8.30976C7.9517 12.8531 7.76083 12.1085 7.76258 11.3456L7.76258 11.3449L8.3057 11.3462H7.76258L7.76258 11.3456C7.76275 10.1281 8.24647 8.96051 9.10737 8.09961C9.96843 7.23855 11.1363 6.75481 12.354 6.75481C13.5717 6.75481 14.7396 7.23855 15.6006 8.09961C16.4613 8.96029 16.945 10.1275 16.9454 11.3446C16.9497 12.1073 16.7614 12.8522 16.4059 13.5137H20.1992C20.4992 13.5137 20.7423 13.7569 20.7423 14.0569C20.7423 14.3568 20.4992 14.6 20.1992 14.6H4.50894C4.20899 14.6 3.96582 14.3568 3.96582 14.0569ZM15.1101 13.5137C15.5981 12.9008 15.8639 12.1375 15.8592 11.3495L15.8592 11.3462C15.8592 10.4166 15.4899 9.52505 14.8325 8.8677C14.1752 8.21035 13.2836 7.84106 12.354 7.84106C11.4244 7.84106 10.5328 8.21035 9.87546 8.8677C9.21812 9.52505 8.84883 10.4166 8.84883 11.3462L8.84882 11.3476C8.8469 12.1375 9.11666 12.9017 9.60921 13.5137H15.1101ZM5.60922 16.2173C5.30926 16.2173 5.0661 16.4604 5.0661 16.7604C5.0661 17.0604 5.30926 17.3035 5.60922 17.3035H19.0988C19.3988 17.3035 19.642 17.0604 19.642 16.7604C19.642 16.4604 19.3988 16.2173 19.0988 16.2173H5.60922ZM7.0869 19.4569C7.0869 19.1569 7.33007 18.9138 7.63003 18.9138H17.0784C17.3783 18.9138 17.6215 19.1569 17.6215 19.4569C17.6215 19.7568 17.3783 20 17.0784 20H7.63003C7.33007 20 7.0869 19.7568 7.0869 19.4569Z" fill="#8B96A5"/>
</svg>
