<svg width="18" height="18" viewBox="0 0 25 24" fill="none" xmlns="http://www.w3.org/2000/svg">
<path d="M6.47069 12.7956C7.28091 12.7956 7.98894 12.4233 8.4342 11.8321C8.87215 12.4233 9.58018 12.7956 10.3904 12.7956C11.2079 12.7956 11.9159 12.4233 12.3539 11.8321C12.7919 12.4233 13.4999 12.7956 14.3174 12.7956C15.1349 12.7956 15.8357 12.4233 16.2809 11.8321C16.7189 12.4233 17.4269 12.7956 18.2371 12.7956C19.6386 12.7956 20.7408 11.6935 20.7408 10.3066V10.1825C20.7408 9.89781 20.6678 9.64233 20.5218 9.39416L18.5875 6.08759V5.48175C18.5875 4.55474 18.0181 4 17.0765 4H7.63857C6.69697 4 6.12032 4.55474 6.12032 5.48175V6.08759L4.18602 9.39416C4.04003 9.64233 3.96704 9.89781 3.96704 10.1825V10.3066C3.96704 11.6935 5.06923 12.7956 6.47069 12.7956ZM7.22251 5.86131V5.68613C7.22251 5.32117 7.4342 5.10219 7.79186 5.10219H16.916C17.2736 5.10219 17.4853 5.32117 17.4853 5.68613V5.86131H7.22251ZM5.22981 9.75183L6.81375 6.9635H17.8356L19.4634 9.75183H5.22981ZM5.06193 10.781H7.87945C7.71887 11.3722 7.22251 11.7665 6.47069 11.7665C5.71887 11.7665 5.22251 11.3722 5.06193 10.781ZM8.98894 10.781H11.7991C11.6386 11.3722 11.1422 11.7665 10.3904 11.7665C9.64587 11.7665 9.14222 11.3722 8.98894 10.781ZM12.9087 10.781H15.7262C15.5656 11.3722 15.0692 11.7665 14.3174 11.7665C13.5656 11.7665 13.0692 11.3722 12.9087 10.781ZM16.8357 10.781H19.6459C19.4853 11.3722 18.9889 11.7665 18.2371 11.7665C17.4926 11.7665 16.9889 11.3722 16.8357 10.781ZM6.86485 20H17.8429C18.8794 20 19.4853 19.4088 19.4853 18.3869V12.1898L18.3101 12.2336V18.0876C18.3101 18.562 18.0619 18.8248 17.5948 18.8248H7.12033C6.65317 18.8248 6.3977 18.562 6.3977 18.0876V12.2263L5.22251 12.2117V18.3869C5.22251 19.4088 5.82835 20 6.86485 20Z" fill="#8B96A5"/>
</svg>
