<svg width="18" height="18" viewBox="0 0 25 24" fill="none" xmlns="http://www.w3.org/2000/svg">
<path d="M19.933 4V5.68421C19.933 13.7912 15.4084 17.4737 9.82778 17.4737H6.66399C6.52673 18.2417 6.45936 19.0796 6.45936 20H4.77515C4.77515 18.8522 4.87283 17.8105 5.06651 16.8573C4.87283 15.7676 4.77515 14.2888 4.77515 12.4211C4.77515 7.77011 8.54525 4 13.1962 4C14.8804 4 16.5646 4.84211 19.933 4ZM13.1962 5.68421C9.47578 5.68421 6.45936 8.70063 6.45936 12.4211C6.45936 12.7259 6.46188 13.0198 6.46778 13.3019C7.52378 11.6362 9.07073 10.32 11.0943 9.16379L11.9297 10.6257C9.52546 12 7.93052 13.5613 7.11283 15.7895H9.82778C14.893 15.7895 18.1402 12.4438 18.2463 6.01095C17.0909 6.12295 16.0173 6.05137 14.6926 5.85263C13.7242 5.70695 13.5339 5.68421 13.1962 5.68421Z" fill="#8B96A5"/>
</svg>
