<svg width="18" height="18" viewBox="0 0 25 24" fill="none" xmlns="http://www.w3.org/2000/svg">
<path fill-rule="evenodd" clip-rule="evenodd" d="M7.381 4.23358C5.89503 4.23358 4.67738 5.38241 4.56778 6.84034V7.26931C4.67738 8.72725 5.89503 9.87608 7.381 9.87608C8.93913 9.87608 10.2022 8.61296 10.2022 7.05483C10.2022 5.4967 8.93913 4.23358 7.381 4.23358ZM7.381 3C5.58057 3 4.05421 4.17342 3.52498 5.79721L3.52441 5.79698C3.40176 6.09546 3.33721 6.41461 3.33423 6.7373L3.3342 6.7373V6.74299V6.79754C3.32888 6.88262 3.32617 6.96841 3.32617 7.05483C3.32617 7.14125 3.32888 7.22704 3.3342 7.31212V10.4609C3.3342 12.0947 3.93352 14.6574 4.8103 16.8009C5.25045 17.8769 5.77645 18.8875 6.36131 19.6406C6.92092 20.3613 7.65455 21 8.53237 21C10.9234 21 12.9569 19.9257 14.5547 18.6072C16.0544 17.3697 17.2075 15.8873 17.9627 14.7726C18.6943 14.6011 19.3719 14.2459 19.9303 13.7387C20.5564 13.17 21.0067 12.434 21.2279 11.6176C21.4491 10.8013 21.432 9.93866 21.1786 9.1317C20.9252 8.32474 20.4462 7.60717 19.7981 7.06376C19.1499 6.52035 18.3598 6.17381 17.521 6.06508C16.6822 5.95636 15.8298 6.09 15.0646 6.4502C14.2993 6.81041 13.6531 7.38213 13.2024 8.09782C12.821 8.70343 12.593 9.39071 12.5354 10.1003C11.7779 10.5027 11.0658 10.9861 10.4116 11.542L10.3829 11.5665L10.3573 11.5943C9.93507 12.0529 9.61197 12.5937 9.40817 13.1828C9.36722 13.3012 9.33127 13.421 9.30034 13.5419C8.74896 12.7733 8.28279 11.9462 7.91047 11.0754C9.8997 10.816 11.4358 9.1148 11.4358 7.05483C11.4358 4.81541 9.62041 3 7.381 3ZM4.56778 10.4609V9.97501C5.16454 10.55 5.93711 10.9439 6.79693 11.0679C7.36283 12.517 8.16596 13.862 9.17355 15.0478C9.19963 15.6232 9.29594 16.1933 9.46037 16.7454L10.6426 16.3933C10.5026 15.9232 10.4224 15.4373 10.404 14.9471L10.4035 14.9347L10.4026 14.9223C10.3672 14.4699 10.4256 14.015 10.574 13.5861C10.7183 13.1688 10.9449 12.7849 11.2402 12.4569C11.9031 11.8976 12.6318 11.4212 13.41 11.0383L13.7571 10.8675L13.7545 10.4807C13.7504 9.87037 13.921 9.27164 14.2462 8.75521C14.5715 8.23878 15.0377 7.82624 15.5899 7.56632C16.1421 7.30641 16.7572 7.20998 17.3624 7.28843C17.9677 7.36688 18.5378 7.61694 19.0055 8.00905C19.4732 8.40117 19.8189 8.91895 20.0017 9.50123C20.1845 10.0835 20.1968 10.706 20.0372 11.295C19.8776 11.8841 19.5527 12.4152 19.101 12.8255C18.6492 13.2359 18.0894 13.5083 17.4877 13.6107L17.224 13.6555L17.0766 13.8787C16.3623 14.9599 15.236 16.4457 13.7696 17.6558C12.3031 18.8659 10.5388 19.7664 8.53237 19.7664C8.26285 19.7664 7.85014 19.5466 7.33561 18.884C6.84634 18.254 6.37041 17.3566 5.95205 16.3339C5.11181 14.2797 4.56778 11.8813 4.56778 10.4609ZM7.61392 7.05483C7.61392 7.18352 7.5096 7.28784 7.38091 7.28784C7.25222 7.28784 7.1479 7.18352 7.1479 7.05483C7.1479 6.92614 7.25222 6.82182 7.38091 6.82182C7.5096 6.82182 7.61392 6.92614 7.61392 7.05483ZM7.38091 6.05426C6.82831 6.05426 6.38034 6.50223 6.38034 7.05483C6.38034 7.60743 6.82831 8.0554 7.38091 8.0554C7.93351 8.0554 8.38148 7.60743 8.38148 7.05483C8.38148 6.50223 7.93351 6.05426 7.38091 6.05426Z" fill="#8B96A5"/>
</svg>
