<svg width="26" height="26" viewBox="0 0 26 26" fill="none" xmlns="http://www.w3.org/2000/svg">
<rect width="26" height="26" rx="4" fill="#EFF2F4"/>
<path d="M6.51534 17.4876H6.835C6.96996 17.4876 7.07917 17.4467 7.16264 17.365C7.2461 17.2833 7.28783 17.1732 7.28783 17.0347V16.2462C7.3198 16.2534 7.37219 16.2596 7.445 16.2649C7.51781 16.2702 7.58618 16.2729 7.65011 16.2729H17.9749C18.0388 16.2729 18.1081 16.2702 18.1827 16.2649C18.2573 16.2596 18.3088 16.2534 18.3372 16.2462V17.0347C18.3372 17.1732 18.3789 17.2833 18.4624 17.365C18.5458 17.4467 18.655 17.4876 18.79 17.4876H19.1096C19.2482 17.4876 19.3583 17.4467 19.44 17.365C19.5217 17.2833 19.5625 17.1732 19.5625 17.0347V13.3854C19.5625 12.8775 19.4284 12.4894 19.1603 12.2213C18.8921 11.9531 18.5023 11.8191 17.9909 11.8191H7.63413C7.12624 11.8191 6.73732 11.9531 6.46739 12.2213C6.19746 12.4894 6.0625 12.8775 6.0625 13.3854V17.0347C6.0625 17.1732 6.10334 17.2833 6.18503 17.365C6.26672 17.4467 6.37683 17.4876 6.51534 17.4876ZM7.12801 15.4951C7.00725 15.4951 6.94687 15.4258 6.94687 15.2873V13.2628C6.94687 13.0604 7.00903 12.8988 7.13334 12.778C7.25765 12.6573 7.4228 12.5969 7.6288 12.5969H18.0015C18.2075 12.5969 18.3718 12.6573 18.4943 12.778C18.6169 12.8988 18.6781 13.0604 18.6781 13.2628V15.2873C18.6781 15.4258 18.6178 15.4951 18.497 15.4951H7.12801ZM7.44766 11.9309H8.8488V10.8335C8.8488 10.5884 8.91629 10.3993 9.05125 10.2661C9.18622 10.1329 9.37978 10.0663 9.63196 10.0663H11.5019C11.7505 10.0663 11.9423 10.1329 12.0773 10.2661C12.2123 10.3993 12.2798 10.5884 12.2798 10.8335V11.9309H13.3452V10.8335C13.3452 10.5884 13.4127 10.3993 13.5477 10.2661C13.6827 10.1329 13.8745 10.0663 14.1231 10.0663H15.993C16.2452 10.0663 16.4388 10.1329 16.5738 10.2661C16.7087 10.3993 16.7762 10.5884 16.7762 10.8335V11.9309H18.1773V9.99172C18.1773 9.49803 18.0495 9.12599 17.7937 8.87559C17.538 8.6252 17.1704 8.5 16.6909 8.5H8.93405C8.45812 8.5 8.09141 8.6252 7.83391 8.87559C7.57641 9.12599 7.44766 9.49803 7.44766 9.99172V11.9309Z" fill="#8B96A5"/>
</svg>
