<svg width="30" height="30" viewBox="0 0 30 30" fill="none" xmlns="http://www.w3.org/2000/svg">
<g id="Group 232">
<path id="Subtract" fill-rule="evenodd" clip-rule="evenodd" d="M15 30C23.2843 30 30 23.2843 30 15C30 6.71573 23.2843 0 15 0C6.71573 0 0 6.71573 0 15C0 23.2843 6.71573 30 15 30ZM18.2313 8.4875C17.3906 8.45 17.1375 8.44063 15 8.44063C12.8625 8.44063 12.6094 8.45 11.7688 8.4875C10.9906 8.52188 10.5656 8.65312 10.2844 8.7625C9.9125 8.90625 9.64688 9.07812 9.36563 9.35938C9.0875 9.6375 8.9125 9.90625 8.76875 10.2781C8.65938 10.5594 8.52812 10.9812 8.49375 11.7625C8.45625 12.6031 8.44688 12.8563 8.44688 14.9938C8.44688 17.1281 8.45625 17.3813 8.49375 18.225C8.52812 19.0031 8.65938 19.4281 8.76875 19.7094C8.9125 20.0813 9.08438 20.3469 9.36563 20.6281C9.64375 20.9062 9.9125 21.0813 10.2844 21.225C10.5656 21.3344 10.9875 21.4656 11.7688 21.5C12.6094 21.5375 12.8625 21.5469 15 21.5469C17.1344 21.5469 17.3875 21.5375 18.2313 21.5C19.0094 21.4656 19.4344 21.3344 19.7156 21.225C20.0875 21.0813 20.3531 20.9094 20.6344 20.6281C20.9125 20.35 21.0875 20.0813 21.2313 19.7094C21.3406 19.4281 21.4719 19.0063 21.5063 18.225C21.5438 17.3844 21.5531 17.1313 21.5531 14.9938C21.5531 12.8594 21.5438 12.6062 21.5063 11.7625C21.4719 10.9844 21.3406 10.5594 21.2313 10.2781C21.0875 9.90625 20.9156 9.64062 20.6344 9.35938C20.3563 9.08125 20.0875 8.90625 19.7156 8.7625C19.4344 8.65312 19.0125 8.52188 18.2313 8.4875ZM11.7031 7.04688C12.5563 7.00938 12.8281 7 15 7C17.1719 7 17.4438 7.00938 18.3 7.05C19.15 7.0875 19.7313 7.225 20.2406 7.42188C20.7656 7.625 21.2125 7.9 21.6563 8.34375C22.1031 8.7875 22.375 9.23438 22.5719 9.76562C22.7688 10.2719 22.9063 10.8562 22.9438 11.7063C22.9813 12.5594 22.9906 12.8313 22.9906 15.0031C22.9906 17.175 22.9813 17.4469 22.9438 18.3C22.9063 19.15 22.7688 19.7313 22.5719 20.2406C22.3688 20.7656 22.0938 21.2125 21.65 21.6562C21.2063 22.1 20.7594 22.375 20.2344 22.5781C19.7281 22.775 19.1438 22.9125 18.2938 22.95C17.4406 22.9875 17.1688 22.9969 14.9969 22.9969C12.825 22.9969 12.5531 22.9875 11.7 22.95C10.85 22.9125 10.2688 22.775 9.75938 22.5781C9.23438 22.375 8.7875 22.1 8.34375 21.6562C7.89687 21.2125 7.625 20.7656 7.41875 20.2375C7.22188 19.7313 7.08437 19.1469 7.04688 18.2969C7.00938 17.4438 7 17.1719 7 15C7 12.8281 7.00938 12.5562 7.04688 11.7C7.08437 10.85 7.22188 10.2688 7.41875 9.75938C7.625 9.23438 7.89687 8.7875 8.34375 8.34375C8.7875 7.89687 9.23438 7.625 9.7625 7.41875C10.2688 7.22188 10.8531 7.08437 11.7031 7.04688ZM15 10.8906C12.7312 10.8906 10.8906 12.7312 10.8906 15C10.8906 17.2687 12.7312 19.1094 15 19.1094C17.2687 19.1094 19.1094 17.2687 19.1094 15C19.1094 12.7312 17.2687 10.8906 15 10.8906ZM15 17.6656C13.5281 17.6656 12.3344 16.4719 12.3344 15C12.3344 13.5281 13.5281 12.3344 15 12.3344C16.4719 12.3344 17.6656 13.5281 17.6656 15C17.6656 16.4719 16.4719 17.6656 15 17.6656ZM19.2719 11.6875C19.8 11.6875 20.2313 11.2593 20.2313 10.7281C20.2313 10.2 19.8 9.76872 19.2719 9.76872C18.7437 9.76872 18.3125 10.1968 18.3125 10.7281C18.3125 11.2562 18.7406 11.6875 19.2719 11.6875Z" fill="white"/>
</g>
</svg>
