<svg width="49" height="48" viewBox="0 0 49 48" fill="none" xmlns="http://www.w3.org/2000/svg">
<path d="M48.5 24C48.5 37.2548 37.7548 48 24.5 48C11.2452 48 0.5 37.2548 0.5 24C0.5 10.7452 11.2452 0 24.5 0C37.7548 0 48.5 10.7452 48.5 24ZM6.5 24C6.5 33.9411 14.5589 42 24.5 42C34.4411 42 42.5 33.9411 42.5 24C42.5 14.0589 34.4411 6 24.5 6C14.5589 6 6.5 14.0589 6.5 24Z" fill="#E3F0FF"/>
<path d="M12.4549 6.79781C11.5046 5.44059 11.8276 3.55117 13.2927 2.77746C15.7415 1.48428 18.4026 0.621076 21.1598 0.233566C24.9104 -0.293545 28.7325 0.0744819 32.3136 1.30756C35.8947 2.54063 39.1332 4.60374 41.7642 7.3282C44.3951 10.0527 46.344 13.3611 47.4513 16.9831C48.5587 20.605 48.7931 24.4377 48.1354 28.1676C47.4777 31.8975 45.9466 35.4188 43.6672 38.4436C41.3879 41.4684 38.425 43.9108 35.0209 45.5711C32.5183 46.7916 29.8295 47.5641 27.0762 47.8613C25.4289 48.0392 24.1046 46.6534 24.1335 44.9968C24.1624 43.3402 25.5375 42.0463 27.1759 41.8C28.9808 41.5286 30.7398 40.9835 32.3907 40.1783C34.9438 38.9331 37.1659 37.1013 38.8754 34.8327C40.5849 32.5641 41.7333 29.9231 42.2265 27.1257C42.7198 24.3282 42.544 21.4538 41.7135 18.7373C40.883 16.0208 39.4214 13.5395 37.4481 11.4962C35.4749 9.4528 33.0461 7.90547 30.3602 6.98067C27.6744 6.05586 24.8078 5.77984 21.9949 6.17517C20.176 6.43081 18.4129 6.96245 16.7648 7.74679C15.2687 8.45879 13.4052 8.15502 12.4549 6.79781Z" fill="#0D6EFD"/>
</svg>
