<svg width="150" height="46" viewBox="0 0 150 46" fill="none" xmlns="http://www.w3.org/2000/svg">
<path fill-rule="evenodd" clip-rule="evenodd" d="M23.1192 17.4495C23.5151 17.6322 23.9109 17.8149 24.2561 18.0991C26.7228 20.0075 26.3776 23.8445 23.8196 25.6413C21.0687 27.7831 12.0546 33.3864 10.2681 33.7925C7.45626 34.4421 3.59891 33.6707 3.08121 29.9859C3 29.4276 2.9797 28.6459 3.0203 28.0876C3.27408 24.616 4.68506 14.9422 4.81702 14.2925C4.83303 14.2144 4.84866 14.135 4.86448 14.0545C5.00908 13.3189 5.17032 12.4988 5.80166 11.8766C6.55283 11.1457 7.97396 10.6991 10.0448 11.8461C10.0737 11.8617 10.1124 11.8822 10.1567 11.9056C10.3144 11.989 10.5429 12.1098 10.6538 12.1811C10.8974 12.3232 10.7147 12.5973 10.4609 12.5059C9.04996 12.0187 7.36491 13.0033 7.2431 14.6173C7.21264 15.1147 7.22279 27.2756 7.2431 27.6308C7.25325 27.8745 7.33445 28.3922 7.52732 28.7373C8.04502 29.661 9.28344 30.4122 10.8568 29.6813C11.9125 29.1941 22.2157 23.1949 22.2157 23.1949C23.982 21.7636 22.9263 19.5913 22.033 19.0838C20.2363 18.0585 15.3537 15.2974 15.3537 15.2974C14.5146 14.7837 13.698 14.3085 12.9941 13.8989C12.4462 13.5801 11.9666 13.301 11.5979 13.0744C11.3847 12.9526 11.5674 12.6278 11.7907 12.7496C12.0445 12.8409 12.9987 13.2267 14.2472 13.7342C14.453 13.6265 14.7829 13.4529 15.1815 13.243C16.474 12.5625 18.4896 11.5014 19.343 11.0747C20.0028 10.7397 22.1954 11.6025 21.6676 12.2623C20.7236 13.4297 19.5156 14.8305 18.8152 15.6223C20.7743 16.4344 22.5304 17.1855 23.1192 17.4495ZM17.6173 17.3886C17.6173 17.3886 16.7038 21.0124 15.912 23.6517C15.6075 24.6465 13.5976 23.0934 13.5265 22.19C13.3946 20.4135 13.1611 14.7087 13.1611 14.7087L17.6173 17.3886Z" fill="white"/>
<path d="M52.0687 12.71H50.2871C49.9784 12.71 49.7314 12.7276 49.5815 12.8246C49.4845 12.8864 49.3345 13.0451 49.1934 13.2833L43.3811 23.2674L37.5689 13.2833C37.4277 13.0628 37.3219 12.904 37.1808 12.8246C37.0308 12.7276 36.7839 12.71 36.4752 12.71H34.6936C34.2879 12.71 34.0056 12.7982 33.8469 12.9658C33.6881 13.1422 33.5999 13.4068 33.5999 13.7684V31.2405C33.5999 31.5845 33.6793 31.8491 33.8469 32.0167C34.0056 32.1931 34.279 32.2724 34.6671 32.2724H36.1577C36.5634 32.2724 36.8456 32.1842 37.0044 32.0167C37.1631 31.8403 37.2513 31.5845 37.2513 31.2405V19.2896L41.5113 26.6277C41.5113 26.6277 42.0493 27.739 43.2929 27.739C44.7747 27.739 45.251 26.6101 45.251 26.6101L49.5109 19.2808V31.2317C49.5109 31.5757 49.5991 31.8403 49.7667 32.0079C49.9431 32.1842 50.2165 32.2636 50.6046 32.2636H52.0952C52.4744 32.2636 52.7567 32.1754 52.9154 32.0079C53.0742 31.8315 53.1624 31.5757 53.1624 31.2317V13.7596C53.1624 13.3979 53.083 13.1245 52.9154 12.9569C52.7567 12.7805 52.4656 12.7012 52.0687 12.7012V12.71Z" fill="white"/>
<path d="M71.9487 12.71H69.585C69.3557 12.71 69.1881 12.7452 69.0823 12.807C68.9764 12.8775 68.8794 12.9922 68.7824 13.1686L63.5434 22.3236L58.278 13.1686C58.1633 12.9922 58.0663 12.8775 57.9781 12.807C57.8899 12.7364 57.7223 12.71 57.4753 12.71H55.0763C54.7324 12.71 54.556 12.8511 54.556 13.1421C54.556 13.2568 54.5912 13.3803 54.6706 13.5126L61.6824 25.6928V31.2493C61.6824 31.5933 61.7706 31.8579 61.9382 32.0255C62.1146 32.2019 62.388 32.2812 62.7761 32.2812H64.3019C64.7076 32.2812 64.9899 32.193 65.1486 32.0255C65.3074 31.8491 65.3956 31.5933 65.3956 31.2493V25.7193L72.3721 13.5126C72.4515 13.3803 72.4868 13.2568 72.4868 13.1421C72.4868 12.8511 72.3104 12.71 71.9664 12.71H71.9487Z" fill="white"/>
<path d="M88.0366 12.71H74.2776C73.8895 12.71 73.6338 12.7893 73.4838 12.9569C73.3427 13.1245 73.2722 13.3803 73.2722 13.7507V14.5269C73.2722 14.8885 73.3427 15.1531 73.4838 15.303C73.6249 15.4529 73.8895 15.5323 74.2776 15.5323H79.3138V31.2493C79.3138 31.5933 79.402 31.8579 79.5695 32.0255C79.7459 32.2019 80.0193 32.2812 80.4074 32.2812H81.9068C82.3125 32.2812 82.5948 32.193 82.7535 32.0255C82.9123 31.8491 83.0005 31.5933 83.0005 31.2493V15.5323H88.0366C88.4159 15.5323 88.6893 15.4529 88.8392 15.303C88.9892 15.1531 89.0685 14.8885 89.0685 14.5269V13.7507C89.0685 13.3891 88.9892 13.1245 88.8392 12.9569C88.6893 12.7982 88.4159 12.71 88.0366 12.71Z" fill="white"/>
<path d="M99 12.2778C95.8337 12.2778 93.3994 13.1686 91.706 14.9591C90.0037 16.7407 89.157 19.2543 89.157 22.5001C89.157 25.7458 90.0037 28.2594 91.706 30.041C93.4082 31.8226 95.8337 32.7223 99 32.7223C102.149 32.7223 104.574 31.8315 106.285 30.041C107.996 28.2594 108.852 25.7458 108.852 22.5001C108.852 19.2543 107.996 16.7407 106.285 14.9591C104.574 13.1775 102.149 12.2778 99 12.2778ZM103.604 28.1007C102.546 29.3796 101.011 30.0146 99 30.0146C96.9891 30.0146 95.4456 29.3796 94.3784 28.1007C93.3112 26.8218 92.782 24.9608 92.782 22.5001C92.782 20.0393 93.3112 18.1783 94.3784 16.9171C95.4456 15.647 96.9803 15.0208 99 15.0208C101.011 15.0208 102.554 15.6558 103.604 16.9171C104.662 18.1871 105.192 20.0481 105.192 22.5001C105.192 24.952 104.662 26.8218 103.604 28.1007Z" fill="white"/>
<path d="M127.62 12.71H126.12C125.732 12.71 125.459 12.7982 125.282 12.9657C125.106 13.1421 125.027 13.4067 125.027 13.7683V25.4547C125.027 26.954 124.586 28.083 123.713 28.8503C122.839 29.6176 121.596 30.0057 119.982 30.0057C118.368 30.0057 117.098 29.6265 116.224 28.8503C115.351 28.083 114.91 26.954 114.91 25.4547V13.7683C114.91 13.4067 114.822 13.1333 114.655 12.9657C114.478 12.7893 114.205 12.71 113.817 12.71H112.291C111.903 12.71 111.629 12.7982 111.471 12.9657C111.303 13.1421 111.224 13.4067 111.224 13.7683V25.3665C111.224 26.8658 111.585 28.1712 112.317 29.2825C113.049 30.3938 114.072 31.2493 115.395 31.8314C116.718 32.4135 118.244 32.7134 119.973 32.7134C121.684 32.7134 123.201 32.4135 124.524 31.8226C125.847 31.2317 126.879 30.3762 127.62 29.2737C128.361 28.1712 128.731 26.8658 128.731 25.3753V13.7772C128.731 13.0716 128.361 12.71 127.611 12.71H127.62Z" fill="white"/>
<path d="M142.693 24.6432L143.389 24.458C144.598 23.9817 145.524 23.2673 146.15 22.3148C146.785 21.3622 147.103 20.2156 147.103 18.875C147.103 16.8376 146.52 15.303 145.365 14.271C144.201 13.2303 142.507 12.7188 140.285 12.7188H132.77C132.382 12.7188 132.109 12.8069 131.95 12.9745C131.791 13.1509 131.703 13.4155 131.703 13.7771V31.2493C131.703 31.5933 131.782 31.8579 131.95 32.0254C132.109 32.2018 132.382 32.2812 132.77 32.2812H134.296C134.702 32.2812 134.984 32.193 135.143 32.0254C135.302 31.849 135.39 31.5933 135.39 31.2493V24.9431H139.121L143.001 31.7697C143.107 31.9637 143.204 32.1224 143.319 32.1842C143.433 32.2547 143.619 32.2812 143.866 32.2812L146.203 32.2459C146.547 32.2459 146.723 32.1048 146.723 31.8138C146.723 31.7167 146.697 31.6109 146.635 31.4962L142.701 24.6344L142.693 24.6432ZM139.535 22.1825H135.39V15.5323H139.967C141.14 15.5323 142.013 15.7969 142.587 16.3349C143.16 16.8729 143.451 17.7196 143.451 18.8662C143.451 20.0128 143.134 20.8771 142.499 21.3975C141.864 21.9179 140.876 22.1736 139.535 22.1736V22.1825Z" fill="white"/>
</svg>
