<svg width="150" height="46" viewBox="0 0 150 46" fill="none" xmlns="http://www.w3.org/2000/svg">
<path fill-rule="evenodd" clip-rule="evenodd" d="M23.1192 17.4495C23.5151 17.6322 23.9109 17.8149 24.2561 18.0991C26.7228 20.0075 26.3776 23.8445 23.8196 25.6413C21.0687 27.7831 12.0546 33.3864 10.2681 33.7925C7.45626 34.4421 3.59891 33.6707 3.08121 29.9859C3 29.4276 2.9797 28.6459 3.0203 28.0876C3.27408 24.616 4.68506 14.9422 4.81702 14.2925C4.83303 14.2144 4.84866 14.135 4.86448 14.0545C5.00908 13.3189 5.17032 12.4988 5.80166 11.8766C6.55283 11.1457 7.97396 10.6991 10.0448 11.8461C10.0737 11.8617 10.1124 11.8822 10.1567 11.9056C10.3144 11.989 10.5429 12.1098 10.6538 12.1811C10.8974 12.3232 10.7147 12.5973 10.4609 12.5059C9.04996 12.0187 7.36491 13.0033 7.2431 14.6173C7.21264 15.1147 7.22279 27.2756 7.2431 27.6308C7.25325 27.8745 7.33445 28.3922 7.52732 28.7373C8.04502 29.661 9.28344 30.4122 10.8568 29.6813C11.9125 29.1941 22.2157 23.1949 22.2157 23.1949C23.982 21.7636 22.9263 19.5913 22.033 19.0838C20.2363 18.0585 15.3537 15.2974 15.3537 15.2974C14.5146 14.7837 13.698 14.3085 12.9941 13.8989C12.4462 13.5801 11.9666 13.301 11.5979 13.0744C11.3847 12.9526 11.5674 12.6278 11.7907 12.7496C12.0445 12.8409 12.9987 13.2267 14.2472 13.7342C14.453 13.6265 14.7829 13.4529 15.1815 13.243C16.474 12.5625 18.4896 11.5014 19.343 11.0747C20.0028 10.7397 22.1954 11.6025 21.6676 12.2623C20.7236 13.4297 19.5156 14.8305 18.8152 15.6223C20.7743 16.4344 22.5304 17.1855 23.1192 17.4495ZM17.6173 17.3886C17.6173 17.3886 16.7038 21.0124 15.912 23.6517C15.6075 24.6465 13.5976 23.0934 13.5265 22.19C13.3946 20.4135 13.1611 14.7087 13.1611 14.7087L17.6173 17.3886Z" fill="#1C1C1C"/>
<path d="M52.0689 12.7099H50.2873C49.9786 12.7099 49.7316 12.7275 49.5817 12.8245C49.4847 12.8863 49.3347 13.045 49.1936 13.2832L43.3813 23.2672L37.569 13.2832C37.4279 13.0627 37.3221 12.9039 37.181 12.8245C37.031 12.7275 36.7841 12.7099 36.4754 12.7099H34.6938C34.288 12.7099 34.0058 12.7981 33.8471 12.9656C33.6883 13.142 33.6001 13.4066 33.6001 13.7683V31.2404C33.6001 31.5844 33.6795 31.849 33.8471 32.0166C34.0058 32.1929 34.2792 32.2723 34.6673 32.2723H36.1579C36.5636 32.2723 36.8458 32.1841 37.0046 32.0166C37.1633 31.8402 37.2515 31.5844 37.2515 31.2404V19.2895L41.5115 26.6276C41.5115 26.6276 42.0495 27.7389 43.2931 27.7389C44.7749 27.7389 45.2511 26.61 45.2511 26.61L49.5111 19.2807V31.2316C49.5111 31.5756 49.5993 31.8402 49.7669 32.0077C49.9433 32.1841 50.2167 32.2635 50.6048 32.2635H52.0954C52.4746 32.2635 52.7568 32.1753 52.9156 32.0077C53.0744 31.8313 53.1626 31.5756 53.1626 31.2316V13.7594C53.1626 13.3978 53.0832 13.1244 52.9156 12.9568C52.7568 12.7804 52.4658 12.701 52.0689 12.701V12.7099Z" fill="#1C1C1C"/>
<path d="M71.9489 12.71H69.5852C69.3559 12.71 69.1883 12.7452 69.0825 12.807C68.9766 12.8775 68.8796 12.9922 68.7826 13.1686L63.5436 22.3236L58.2781 13.1686C58.1635 12.9922 58.0665 12.8775 57.9783 12.807C57.8901 12.7364 57.7225 12.71 57.4755 12.71H55.0765C54.7325 12.71 54.5562 12.8511 54.5562 13.1421C54.5562 13.2568 54.5914 13.3803 54.6708 13.5126L61.6826 25.6928V31.2493C61.6826 31.5933 61.7708 31.8579 61.9384 32.0255C62.1148 32.2019 62.3882 32.2812 62.7763 32.2812H64.3021C64.7078 32.2812 64.9901 32.193 65.1488 32.0255C65.3076 31.8491 65.3958 31.5933 65.3958 31.2493V25.7193L72.3723 13.5126C72.4517 13.3803 72.4869 13.2568 72.4869 13.1421C72.4869 12.8511 72.3105 12.71 71.9666 12.71H71.9489Z" fill="#1C1C1C"/>
<path d="M88.0369 12.71H74.2779C73.8899 12.71 73.6341 12.7893 73.4841 12.9569C73.343 13.1245 73.2725 13.3803 73.2725 13.7507V14.5269C73.2725 14.8885 73.343 15.1531 73.4841 15.303C73.6253 15.4529 73.8899 15.5323 74.2779 15.5323H79.3141V31.2493C79.3141 31.5933 79.4023 31.8579 79.5698 32.0255C79.7462 32.2019 80.0197 32.2812 80.4077 32.2812H81.9071C82.3128 32.2812 82.5951 32.193 82.7538 32.0255C82.9126 31.8491 83.0008 31.5933 83.0008 31.2493V15.5323H88.0369C88.4162 15.5323 88.6896 15.4529 88.8395 15.303C88.9895 15.1531 89.0688 14.8885 89.0688 14.5269V13.7507C89.0688 13.3891 88.9895 13.1245 88.8395 12.9569C88.6896 12.7982 88.4162 12.71 88.0369 12.71Z" fill="#1C1C1C"/>
<path d="M99.0002 12.2777C95.8339 12.2777 93.3996 13.1685 91.7062 14.9589C90.0039 16.7406 89.1572 19.2542 89.1572 22.4999C89.1572 25.7456 90.0039 28.2593 91.7062 30.0409C93.4084 31.8225 95.8339 32.7222 99.0002 32.7222C102.149 32.7222 104.574 31.8313 106.285 30.0409C107.996 28.2593 108.852 25.7456 108.852 22.4999C108.852 19.2542 107.996 16.7406 106.285 14.9589C104.574 13.1773 102.149 12.2777 99.0002 12.2777ZM103.604 28.1005C102.546 29.3794 101.011 30.0145 99.0002 30.0145C96.9893 30.0145 95.4458 29.3794 94.3786 28.1005C93.3114 26.8217 92.7822 24.9607 92.7822 22.4999C92.7822 20.0392 93.3114 18.1782 94.3786 16.917C95.4458 15.6469 96.9804 15.0207 99.0002 15.0207C101.011 15.0207 102.555 15.6557 103.604 16.917C104.663 18.187 105.192 20.048 105.192 22.4999C105.192 24.9519 104.663 26.8217 103.604 28.1005Z" fill="#1C1C1C"/>
<path d="M127.62 12.71H126.12C125.732 12.71 125.459 12.7982 125.282 12.9657C125.106 13.1421 125.027 13.4067 125.027 13.7683V25.4547C125.027 26.954 124.586 28.083 123.713 28.8503C122.839 29.6176 121.596 30.0057 119.982 30.0057C118.368 30.0057 117.098 29.6265 116.224 28.8503C115.351 28.083 114.91 26.954 114.91 25.4547V13.7683C114.91 13.4067 114.822 13.1333 114.655 12.9657C114.478 12.7893 114.205 12.71 113.817 12.71H112.291C111.903 12.71 111.629 12.7982 111.471 12.9657C111.303 13.1421 111.224 13.4067 111.224 13.7683V25.3665C111.224 26.8658 111.585 28.1712 112.317 29.2825C113.049 30.3938 114.072 31.2493 115.395 31.8314C116.718 32.4135 118.244 32.7134 119.973 32.7134C121.684 32.7134 123.201 32.4135 124.524 31.8226C125.847 31.2317 126.879 30.3762 127.62 29.2737C128.361 28.1712 128.731 26.8658 128.731 25.3753V13.7772C128.731 13.0716 128.361 12.71 127.611 12.71H127.62Z" fill="#1C1C1C"/>
<path d="M142.693 24.6433L143.389 24.4581C144.598 23.9818 145.524 23.2674 146.15 22.3149C146.785 21.3623 147.103 20.2158 147.103 18.8751C147.103 16.8377 146.521 15.3031 145.365 14.2712C144.201 13.2304 142.507 12.7189 140.285 12.7189H132.77C132.382 12.7189 132.109 12.8071 131.95 12.9746C131.791 13.151 131.703 13.4156 131.703 13.7773V31.2494C131.703 31.5934 131.783 31.858 131.95 32.0256C132.109 32.202 132.382 32.2813 132.77 32.2813H134.296C134.702 32.2813 134.984 32.1931 135.143 32.0256C135.302 31.8492 135.39 31.5934 135.39 31.2494V24.9432H139.121L143.001 31.7698C143.107 31.9638 143.204 32.1226 143.319 32.1843C143.434 32.2549 143.619 32.2813 143.866 32.2813L146.203 32.246C146.547 32.246 146.723 32.1049 146.723 31.8139C146.723 31.7169 146.697 31.611 146.635 31.4964L142.701 24.6345L142.693 24.6433ZM139.535 22.1826H135.39V15.5324H139.967C141.14 15.5324 142.014 15.797 142.587 16.335C143.16 16.873 143.451 17.7197 143.451 18.8663C143.451 20.0129 143.134 20.8772 142.499 21.3976C141.864 21.918 140.876 22.1738 139.535 22.1738V22.1826Z" fill="#1C1C1C"/>
</svg>
