<svg width="123" height="129" viewBox="0 0 123 129" fill="none" xmlns="http://www.w3.org/2000/svg">
<path d="M61.1054 85.514C84.6723 85.514 103.778 66.408 103.778 42.757C103.778 19.106 84.5881 0 61.1054 0C37.5386 0 18.4326 19.106 18.4326 42.757C18.4326 66.408 37.5386 85.514 61.1054 85.514Z" fill="#EAEEF9"/>
<g filter="url(#filter0_d_389_2528)">
<path d="M100.231 69.3127L100.268 64.9766L79.2955 46.773C79.5094 45.4005 79.6379 43.873 79.6514 42.2557C79.7022 36.3788 78.2563 31.6063 76.4222 31.596C74.6811 31.5865 73.2186 35.8739 73.0316 41.3358L67.5019 36.5362C67.2756 19.6508 64.9018 15.1488 61.9793 15.1329C59.053 15.1166 56.6003 19.605 56.0902 36.5445L50.5632 41.2122C50.4689 35.7486 49.0804 31.4461 47.3398 31.4357C45.506 31.4265 43.9783 36.182 43.9283 42.0594C43.9143 43.6773 44.017 45.2057 44.2074 46.5798L22.925 64.5515L22.8887 68.8881L56.1375 52.8468C56.5094 65.3718 57.5745 78.2705 59.0407 85.2336L48.037 92.2977L48.0065 95.8501L61.6091 93.0335L75.1624 95.9999L75.1922 92.4471L63.7414 85.165C65.3191 78.1892 66.5963 65.3446 67.1796 52.8679L100.231 69.3127Z" fill="url(#paint0_linear_389_2528)"/>
</g>
<path d="M106.429 70.3431C108.335 70.3431 109.88 68.7981 109.88 66.8923C109.88 64.9864 108.335 63.4414 106.429 63.4414C104.524 63.4414 102.979 64.9864 102.979 66.8923C102.979 68.7981 104.524 70.3431 106.429 70.3431Z" fill="#EAEEF9"/>
<path d="M111.479 56.8774C112.78 56.8774 113.835 55.8223 113.835 54.5207C113.835 53.2192 112.78 52.1641 111.479 52.1641C110.177 52.1641 109.122 53.2192 109.122 54.5207C109.122 55.8223 110.177 56.8774 111.479 56.8774Z" fill="#EAEEF9"/>
<path d="M20.7053 14.647C22.0069 14.647 23.062 13.5918 23.062 12.2903C23.062 10.9887 22.0069 9.93359 20.7053 9.93359C19.4038 9.93359 18.3486 10.9887 18.3486 12.2903C18.3486 13.5918 19.4038 14.647 20.7053 14.647Z" fill="#EAEEF9"/>
<path d="M6.31225 60.0952C8.72943 60.0952 10.6889 58.1357 10.6889 55.7185C10.6889 53.3013 8.72943 51.3418 6.31225 51.3418C3.89506 51.3418 1.93555 53.3013 1.93555 55.7185C1.93555 58.1357 3.89506 60.0952 6.31225 60.0952Z" fill="#EAEEF9"/>
<path d="M92.9302 43.7665L95.2048 43.0809C95.3696 43.0331 95.3696 42.7939 95.2048 42.7461L92.9302 42.0605C92.8718 42.0446 92.8293 42.0021 92.8133 41.9436L92.1278 39.6743C92.0799 39.5096 91.8408 39.5096 91.793 39.6743L91.1074 41.9436C91.0915 42.0021 91.0489 42.0446 90.9905 42.0605L88.7212 42.7461C88.5565 42.7939 88.5565 43.0331 88.7212 43.0809L90.9958 43.7665C91.0543 43.7824 91.0968 43.8249 91.1127 43.8834L91.7983 46.1579C91.8461 46.3227 92.0853 46.3227 92.1331 46.1579L92.8186 43.8834C92.8293 43.8249 92.8718 43.7824 92.9302 43.7665Z" fill="#ADB6C8"/>
<path d="M79.4635 19.36L81.738 18.6745C81.9028 18.6266 81.9028 18.3875 81.738 18.3397L79.4635 17.6541C79.405 17.6382 79.3625 17.5957 79.3465 17.5372L78.661 15.2681C78.6131 15.1033 78.374 15.1033 78.3262 15.2681L77.6406 17.5372C77.6247 17.5957 77.5821 17.6382 77.5237 17.6541L75.2544 18.3397C75.0897 18.3875 75.0897 18.6266 75.2544 18.6745L77.529 19.36C77.5875 19.3759 77.63 19.4185 77.6459 19.4769L78.3315 21.7514C78.3793 21.9161 78.6185 21.9161 78.6663 21.7514L79.3518 19.4769C79.3625 19.4185 79.405 19.3759 79.4635 19.36Z" fill="#ADB6C8"/>
<path d="M45.2549 22.1983L47.2451 21.5984C47.3893 21.5566 47.3893 21.3473 47.2451 21.3055L45.2549 20.7057C45.2037 20.6917 45.1665 20.6545 45.1526 20.6034L44.5527 18.6179C44.5109 18.4737 44.3016 18.4737 44.2598 18.6179L43.6599 20.6034C43.6459 20.6545 43.6087 20.6917 43.5576 20.7057L41.572 21.3055C41.4278 21.3473 41.4278 21.5566 41.572 21.5984L43.5622 22.1983C43.6134 22.2122 43.6506 22.2494 43.6645 22.3006L44.2644 24.2907C44.3063 24.4349 44.5155 24.4349 44.5574 24.2907L45.1572 22.3006C45.1665 22.2494 45.2037 22.2122 45.2549 22.1983Z" fill="#ADB6C8"/>
<path d="M30.9463 58.7489L32.9365 58.0633C33.0807 58.0155 33.0807 57.7763 32.9365 57.7285L30.9463 57.0429C30.8951 57.027 30.8579 56.9845 30.844 56.926L30.2441 54.6568C30.2023 54.492 29.993 54.492 29.9512 54.6568L29.3513 56.926C29.3373 56.9845 29.3001 57.027 29.249 57.0429L27.2634 57.7285C27.1192 57.7763 27.1192 58.0155 27.2634 58.0633L29.2536 58.7489C29.3048 58.7648 29.342 58.8073 29.3559 58.8658L29.9558 61.1404C29.9977 61.3051 30.2069 61.3051 30.2488 61.1404L30.8486 58.8658C30.8579 58.8073 30.8951 58.7648 30.9463 58.7489Z" fill="#ADB6C8"/>
<path d="M27.7596 32.8299L29.1812 32.4015C29.2842 32.3716 29.2842 32.2221 29.1812 32.1922L27.7596 31.7638C27.7231 31.7538 27.6965 31.7272 27.6866 31.6907L27.2581 30.2725C27.2282 30.1696 27.0787 30.1696 27.0488 30.2725L26.6203 31.6907C26.6104 31.7272 26.5838 31.7538 26.5473 31.7638L25.129 32.1922C25.026 32.2221 25.026 32.3716 25.129 32.4015L26.5506 32.8299C26.5871 32.8399 26.6137 32.8664 26.6237 32.903L27.0521 34.3245C27.082 34.4274 27.2315 34.4274 27.2614 34.3245L27.6899 32.903C27.6965 32.8664 27.7231 32.8399 27.7596 32.8299Z" fill="#ADB6C8"/>
<path d="M42.91 46.8904L44.3316 46.462C44.4346 46.4321 44.4346 46.2827 44.3316 46.2528L42.91 45.8243C42.8735 45.8144 42.8469 45.7878 42.8369 45.7513L42.4085 44.3331C42.3786 44.2301 42.2291 44.2301 42.1992 44.3331L41.7707 45.7513C41.7608 45.7878 41.7342 45.8144 41.6977 45.8243L40.2794 46.2528C40.1764 46.2827 40.1764 46.4321 40.2794 46.462L41.701 46.8904C41.7375 46.9004 41.7641 46.927 41.7741 46.9635L42.2025 48.385C42.2324 48.488 42.3819 48.488 42.4118 48.385L42.8403 46.9635C42.8469 46.927 42.8735 46.9004 42.91 46.8904Z" fill="#ADB6C8"/>
<path d="M54.9647 6.83381L56.3863 6.40536C56.4893 6.37547 56.4893 6.22602 56.3863 6.19612L54.9647 5.76768C54.9282 5.75772 54.9016 5.73115 54.8916 5.69461L54.4632 4.27644C54.4333 4.17348 54.2838 4.17348 54.2539 4.27644L53.8254 5.69461C53.8155 5.73115 53.7889 5.75772 53.7524 5.76768L52.3341 6.19612C52.2311 6.22602 52.2311 6.37547 52.3341 6.40536L53.7557 6.83381C53.7922 6.84377 53.8188 6.87034 53.8287 6.90687L54.2572 8.32837C54.2871 8.43133 54.4366 8.43133 54.4665 8.32837L54.895 6.90687C54.9016 6.87034 54.9282 6.84377 54.9647 6.83381Z" fill="#ADB6C8"/>
<path d="M88.6503 67.7283L90.0719 67.2999C90.1748 67.27 90.1748 67.1205 90.0719 67.0907L88.6503 66.6622C88.6137 66.6522 88.5871 66.6257 88.5772 66.5891L88.1487 65.171C88.1188 65.068 87.9693 65.068 87.9394 65.171L87.511 66.5891C87.501 66.6257 87.4744 66.6522 87.4379 66.6622L86.0196 67.0907C85.9166 67.1205 85.9166 67.27 86.0196 67.2999L87.4412 67.7283C87.4778 67.7383 87.5043 67.7649 87.5143 67.8014L87.9428 69.2229C87.9727 69.3259 88.1221 69.3259 88.152 69.2229L88.5805 67.8014C88.5871 67.7649 88.6137 67.7383 88.6503 67.7283Z" fill="#ADB6C8"/>
<defs>
<filter id="filter0_d_389_2528" x="0.888672" y="4.13281" width="121.379" height="124.867" filterUnits="userSpaceOnUse" color-interpolation-filters="sRGB">
<feFlood flood-opacity="0" result="BackgroundImageFix"/>
<feColorMatrix in="SourceAlpha" type="matrix" values="0 0 0 0 0 0 0 0 0 0 0 0 0 0 0 0 0 0 127 0" result="hardAlpha"/>
<feOffset dy="11"/>
<feGaussianBlur stdDeviation="11"/>
<feColorMatrix type="matrix" values="0 0 0 0 0.397708 0 0 0 0 0.47749 0 0 0 0 0.575 0 0 0 0.27 0"/>
<feBlend mode="normal" in2="BackgroundImageFix" result="effect1_dropShadow_389_2528"/>
<feBlend mode="normal" in="SourceGraphic" in2="effect1_dropShadow_389_2528" result="shape"/>
</filter>
<linearGradient id="paint0_linear_389_2528" x1="61.7516" y1="24.5279" x2="64.6976" y2="122.582" gradientUnits="userSpaceOnUse">
<stop stop-color="#FBFCFE"/>
<stop offset="0.683563" stop-color="#EFF2F7"/>
</linearGradient>
</defs>
</svg>
