<svg width="103" height="103" viewBox="0 0 103 103" fill="none" xmlns="http://www.w3.org/2000/svg">
<path d="M22.8843 16.3842C22.4616 16.3842 22.0562 16.2163 21.7573 15.9174C21.4584 15.6185 21.2905 15.2132 21.2905 14.7905V12.5273C21.2905 12.1047 21.4584 11.6993 21.7573 11.4004C22.0562 11.1015 22.4616 10.9336 22.8843 10.9336C23.307 10.9336 23.7123 11.1015 24.0112 11.4004C24.3101 11.6993 24.478 12.1047 24.478 12.5273V14.7905C24.478 15.2132 24.3101 15.6185 24.0112 15.9174C23.7123 16.2163 23.307 16.3842 22.8843 16.3842Z" fill="#0B69FF"/>
<path d="M30.04 19.3489C29.7262 19.3445 29.4206 19.2475 29.1617 19.0701C28.9028 18.8927 28.702 18.6428 28.5845 18.3517C28.4671 18.0606 28.4382 17.7414 28.5015 17.4339C28.5648 17.1265 28.7175 16.8446 28.9403 16.6236L30.5341 15.0299C30.8327 14.733 31.2366 14.5664 31.6577 14.5664C32.0787 14.5664 32.4827 14.733 32.7813 15.0299C32.9307 15.178 33.0492 15.3543 33.1301 15.5485C33.211 15.7427 33.2527 15.951 33.2527 16.1614C33.2527 16.3718 33.211 16.5801 33.1301 16.7743C33.0492 16.9686 32.9307 17.1448 32.7813 17.293L31.1875 18.8867C31.0367 19.0364 30.8575 19.1543 30.6605 19.2337C30.4634 19.3131 30.2524 19.3522 30.04 19.3489Z" fill="#0B69FF"/>
<path d="M35.3153 26.5039H33.0044C32.5817 26.5039 32.1763 26.336 31.8774 26.0371C31.5786 25.7382 31.4106 25.3328 31.4106 24.9102C31.4106 24.4875 31.5786 24.0821 31.8774 23.7832C32.1763 23.4843 32.5817 23.3164 33.0044 23.3164H35.3153C35.738 23.3164 36.1434 23.4843 36.4423 23.7832C36.7412 24.0821 36.9091 24.4875 36.9091 24.9102C36.9091 25.3328 36.7412 25.7382 36.4423 26.0371C36.1434 26.336 35.738 26.5039 35.3153 26.5039Z" fill="#0B69FF"/>
<path d="M31.634 35.2546C31.4242 35.2558 31.2163 35.2156 31.0221 35.1363C30.8279 35.057 30.6513 34.9401 30.5024 34.7924L28.9086 33.1986C28.6085 32.8985 28.4399 32.4915 28.4399 32.0671C28.4399 31.6426 28.6085 31.2356 28.9086 30.9355C29.2088 30.6354 29.6158 30.4668 30.0402 30.4668C30.4646 30.4668 30.8717 30.6354 31.1718 30.9355L32.7655 32.5293C32.9893 32.7512 33.1423 33.0346 33.205 33.3434C33.2678 33.6523 33.2376 33.9729 33.1182 34.2646C32.9988 34.5563 32.7955 34.8061 32.5342 34.9823C32.2728 35.1585 31.9651 35.2532 31.6499 35.2546H31.634Z" fill="#0B69FF"/>
<path d="M22.8843 38.8722C22.4616 38.8722 22.0562 38.7043 21.7573 38.4054C21.4584 38.1065 21.2905 37.7011 21.2905 37.2784V35.0312C21.2905 34.6086 21.4584 34.2032 21.7573 33.9043C22.0562 33.6054 22.4616 33.4375 22.8843 33.4375C23.307 33.4375 23.7123 33.6054 24.0112 33.9043C24.3101 34.2032 24.478 34.6086 24.478 35.0312V37.2784C24.478 37.7011 24.3101 38.1065 24.0112 38.4054C23.7123 38.7043 23.307 38.8722 22.8843 38.8722Z" fill="#0B69FF"/>
<path d="M14.1343 35.2532C13.8177 35.2551 13.5078 35.1626 13.244 34.9876C12.9802 34.8126 12.7745 34.563 12.6531 34.2706C12.5317 33.9783 12.5001 33.6564 12.5624 33.346C12.6247 33.0356 12.7779 32.7508 13.0027 32.5279L14.5965 30.9342C14.8951 30.6373 15.299 30.4707 15.72 30.4707C16.1411 30.4707 16.545 30.6373 16.8436 30.9342C16.993 31.0823 17.1116 31.2586 17.1925 31.4528C17.2734 31.647 17.3151 31.8553 17.3151 32.0657C17.3151 32.2761 17.2734 32.4844 17.1925 32.6786C17.1116 32.8728 16.993 33.0491 16.8436 33.1973L15.2499 34.791C14.953 35.0855 14.5524 35.2515 14.1343 35.2532Z" fill="#0B69FF"/>
<path d="M12.7482 26.5039H10.501C10.0783 26.5039 9.67291 26.336 9.37403 26.0371C9.07514 25.7382 8.90723 25.3328 8.90723 24.9102C8.90723 24.4875 9.07514 24.0821 9.37403 23.7832C9.67291 23.4843 10.0783 23.3164 10.501 23.3164H12.7482C13.1709 23.3164 13.5762 23.4843 13.8751 23.7832C14.174 24.0821 14.3419 24.4875 14.3419 24.9102C14.3419 25.3328 14.174 25.7382 13.8751 26.0371C13.5762 26.336 13.1709 26.5039 12.7482 26.5039Z" fill="#0B69FF"/>
<path d="M15.7124 19.3489C15.292 19.3429 14.891 19.1711 14.5968 18.8708L13.003 17.277C12.7062 16.9784 12.5396 16.5745 12.5396 16.1535C12.5396 15.7324 12.7062 15.3285 13.003 15.0299C13.3016 14.733 13.7055 14.5664 14.1266 14.5664C14.5476 14.5664 14.9516 14.733 15.2502 15.0299L16.8439 16.6236C17.1408 16.9222 17.3074 17.3262 17.3074 17.7472C17.3074 18.1682 17.1408 18.5722 16.8439 18.8708C16.6963 19.0214 16.5203 19.1412 16.3261 19.2233C16.1318 19.3053 15.9232 19.348 15.7124 19.3489Z" fill="#0B69FF"/>
<path d="M22.8842 32.1308C21.4563 32.1308 20.0605 31.7074 18.8732 30.914C17.6859 30.1207 16.7606 28.9932 16.2141 27.674C15.6677 26.3547 15.5247 24.9031 15.8033 23.5026C16.0819 22.1021 16.7695 20.8157 17.7792 19.806C18.7888 18.7963 20.0753 18.1087 21.4758 17.8301C22.8762 17.5516 24.3279 17.6945 25.6471 18.241C26.9663 18.7874 28.0939 19.7128 28.8872 20.9001C29.6805 22.0873 30.1039 23.4832 30.1039 24.9111C30.1039 25.8592 29.9172 26.798 29.5544 27.674C29.1915 28.5499 28.6597 29.3458 27.9893 30.0162C27.3189 30.6866 26.523 31.2184 25.6471 31.5812C24.7712 31.944 23.8323 32.1308 22.8842 32.1308ZM22.8842 20.8789C22.0867 20.8789 21.3072 21.1154 20.6441 21.5585C19.981 22.0015 19.4642 22.6313 19.159 23.368C18.8538 24.1048 18.7739 24.9156 18.9295 25.6977C19.0851 26.4799 19.4691 27.1984 20.0331 27.7623C20.597 28.3262 21.3154 28.7102 22.0976 28.8658C22.8798 29.0214 23.6905 28.9415 24.4273 28.6364C25.1641 28.3312 25.7938 27.8144 26.2369 27.1513C26.6799 26.4882 26.9164 25.7086 26.9164 24.9111C26.9164 24.3816 26.8121 23.8573 26.6095 23.368C26.4069 22.8788 26.1099 22.4343 25.7354 22.0599C25.361 21.6855 24.9165 21.3885 24.4273 21.1858C23.9381 20.9832 23.4138 20.8789 22.8842 20.8789Z" fill="#0B69FF"/>
<path d="M48.4161 67.0652C48.1423 67.0643 47.8734 66.993 47.6352 66.858C47.4469 66.7553 47.2814 66.6157 47.1484 66.4475C47.0153 66.2793 46.9176 66.086 46.8611 65.8792C46.8046 65.6723 46.7903 65.4562 46.8193 65.2437C46.8482 65.0313 46.9197 64.8268 47.0296 64.6427L59.2217 43.398C59.3214 43.2075 59.4585 43.0392 59.6249 42.9031C59.7913 42.767 59.9835 42.666 60.1899 42.6061C60.3963 42.5462 60.6127 42.5287 60.8261 42.5546C61.0395 42.5805 61.2454 42.6493 61.4315 42.7569C61.6176 42.8645 61.78 43.0086 61.909 43.1805C62.0379 43.3525 62.1308 43.5488 62.1819 43.7575C62.2331 43.9663 62.2414 44.1833 62.2066 44.3954C62.1717 44.6075 62.0942 44.8103 61.9789 44.9917L49.8027 66.2364C49.6664 66.4856 49.466 66.6938 49.2222 66.8395C48.9784 66.9852 48.7001 67.0631 48.4161 67.0652Z" fill="#0B69FF"/>
<path d="M70.3781 28.4488C70.0974 28.4459 69.8225 28.3689 69.5812 28.2256C69.2167 28.0154 68.9501 27.6695 68.8396 27.2634C68.7291 26.8574 68.7837 26.4241 68.9915 26.0581L69.9478 24.3688C70.1591 24.001 70.5079 23.7323 70.9174 23.6217C71.3268 23.5111 71.7635 23.5677 72.1312 23.7791C72.4989 23.9904 72.7677 24.3392 72.8782 24.7487C72.9888 25.1582 72.9322 25.5948 72.7209 25.9625L71.7646 27.6519C71.6242 27.8951 71.422 28.0969 71.1785 28.2368C70.9351 28.3768 70.6589 28.4499 70.3781 28.4488Z" fill="#0B69FF"/>
<path d="M78.1871 55.4633C77.74 55.4662 77.3001 55.3507 76.9121 55.1286L66.6961 49.3114C66.5114 49.2073 66.3493 49.0674 66.2193 48.8998C66.0893 48.7323 65.9941 48.5405 65.9391 48.3357C65.8842 48.1308 65.8707 47.9171 65.8995 47.707C65.9282 47.4969 65.9986 47.2946 66.1065 47.1121C71.0311 38.4421 72.0033 32.0989 69.0708 27.7321C68.8704 27.4345 68.7763 27.0779 68.8037 26.7202C68.831 26.3625 68.9783 26.0244 69.2217 25.7608C69.465 25.4972 69.7902 25.3233 70.1446 25.2675C70.499 25.2116 70.8619 25.277 71.1746 25.453C75.9871 28.1878 79.6113 32.6137 81.3431 37.8711C83.075 43.1284 82.7908 48.8418 80.5458 53.9014C80.3931 54.2337 80.1723 54.5302 79.8978 54.7718C79.6232 55.0134 79.3011 55.1947 78.9521 55.3039C78.7062 55.394 78.4485 55.4476 78.1871 55.4633ZM69.6605 47.3192L77.9002 52.0208C79.3071 48.5658 79.6674 44.7734 78.9363 41.1152C78.2052 37.4571 76.415 34.0945 73.7883 31.4455C74.378 35.8124 73.0074 41.0717 69.6446 47.3192H69.6605Z" fill="#0B69FF"/>
<path d="M53.7708 41.7078C53.4916 41.7098 53.2168 41.6383 52.9739 41.5007L42.7739 35.6994C42.4619 35.5182 42.1905 35.2747 41.9767 34.984C41.7628 34.6934 41.611 34.3618 41.5308 34.01C41.4512 33.6575 41.4469 33.2921 41.5184 32.9378C41.5898 32.5835 41.7352 32.2483 41.9452 31.9541C45.1343 27.4266 49.8994 24.2534 55.3064 23.0565C60.7134 21.8595 66.3725 22.725 71.1746 25.4835C71.4816 25.6575 71.7222 25.9284 71.8586 26.2539C71.9951 26.5793 72.0196 26.9408 71.9285 27.2817C71.8373 27.6227 71.6356 27.9237 71.355 28.1376C71.0743 28.3515 70.7306 28.4663 70.3777 28.4638C65.1502 28.1928 60.1617 32.241 55.2371 40.911C55.0902 41.1663 54.8754 41.376 54.6166 41.5167C54.3577 41.6573 54.065 41.7235 53.7708 41.7078ZM44.8777 33.261L53.1174 38.0422C56.783 31.9541 60.608 28.0972 64.6561 26.376C61.047 25.4759 57.2537 25.6478 53.7408 26.8707C50.2278 28.0935 47.1477 30.3143 44.8777 33.261Z" fill="#0B69FF"/>
<path d="M67.4933 49.5187C67.2141 49.5206 66.9393 49.4492 66.6965 49.3115L52.9743 41.5021C52.6097 41.2919 52.3431 40.946 52.2327 40.5399C52.1222 40.1339 52.1768 39.7006 52.3846 39.3347C57.9627 29.5172 63.8755 24.8953 70.4736 25.2778C70.7211 25.29 70.9623 25.3597 71.1781 25.4815C71.3939 25.6032 71.5783 25.7736 71.7168 25.979C75.3983 31.4615 74.458 38.9043 68.8799 48.7218C68.7395 48.9651 68.5373 49.1668 68.2938 49.3068C68.0503 49.4467 67.7742 49.5198 67.4933 49.5187ZM56.0343 39.5259L66.9515 45.7415C70.9836 38.219 71.8443 32.5453 69.5652 28.4493C64.8158 28.5928 60.3693 32.2265 56.0343 39.5259Z" fill="#0B69FF"/>
<path d="M80.7852 75.7986H32.4786C32.316 75.7981 32.1545 75.7712 32.0005 75.7189C31.7378 75.6565 31.4994 75.5178 31.3152 75.3204L11.9511 55.8926C10.8708 54.8031 10.2646 53.331 10.2646 51.7967C10.2646 50.2624 10.8708 48.7902 11.9511 47.7007C13.055 46.642 14.5254 46.0508 16.055 46.0508C17.5846 46.0508 19.055 46.642 20.1589 47.7007L36.6223 65.7101H80.7852C82.321 65.7143 83.7925 66.3274 84.877 67.4149C85.9615 68.5024 86.5705 69.9755 86.5705 71.5114C86.5705 75.7986 82.363 75.7986 80.7852 75.7986ZM33.1002 72.6111H80.7852C83.383 72.6111 83.383 72.1807 83.383 71.5911C83.383 70.9006 83.1098 70.2382 82.6231 69.7485C82.1363 69.2587 81.4756 68.9815 80.7852 68.9773H35.9211C35.6999 68.9788 35.4808 68.9342 35.2777 68.8464C35.0747 68.7586 34.8921 68.6295 34.7417 68.4673L17.7842 49.9001C17.2862 49.4499 16.6387 49.2006 15.9674 49.2006C15.296 49.2006 14.6485 49.4499 14.1505 49.9001C13.9076 50.1428 13.7149 50.4311 13.5835 50.7483C13.452 51.0655 13.3844 51.4055 13.3844 51.7489C13.3844 52.0922 13.452 52.4323 13.5835 52.7495C13.7149 53.0667 13.9076 53.3549 14.1505 53.5976L33.1002 72.6111Z" fill="#0B69FF"/>
<path d="M88.1799 81.7754H18.2621C17.18 81.7754 16.1423 81.3455 15.3771 80.5804C14.612 79.8152 14.1821 78.7775 14.1821 77.6954V76.5957C14.2071 75.5303 14.648 74.5169 15.4104 73.7723C16.1729 73.0277 17.1964 72.611 18.2621 72.6113H88.1799C89.2578 72.6113 90.2915 73.0395 91.0537 73.8017C91.8158 74.5638 92.244 75.5975 92.244 76.6754V77.7751C92.2232 78.8405 91.7864 79.8556 91.0269 80.6031C90.2674 81.3507 89.2456 81.7714 88.1799 81.7754ZM18.2621 75.7988C18.0282 75.7988 17.8035 75.8906 17.6366 76.0546C17.4697 76.2185 17.3738 76.4415 17.3696 76.6754V77.7751C17.3696 78.0118 17.4637 78.2388 17.631 78.4062C17.7984 78.5735 18.0254 78.6676 18.2621 78.6676H88.1799C88.4139 78.6634 88.6368 78.5675 88.8008 78.4006C88.9647 78.2337 89.0565 78.0091 89.0565 77.7751V76.5957C89.0565 76.3632 88.9641 76.1403 88.7998 75.9759C88.6354 75.8115 88.4124 75.7191 88.1799 75.7191L18.2621 75.7988Z" fill="#0B69FF"/>
<path d="M27.9204 91.7363H22.5654C22.1427 91.7363 21.7374 91.5684 21.4385 91.2695C21.1396 90.9706 20.9717 90.5653 20.9717 90.1426V80.1816C20.9717 79.759 21.1396 79.3536 21.4385 79.0547C21.7374 78.7558 22.1427 78.5879 22.5654 78.5879H28.0001C28.4228 78.5879 28.8282 78.7558 29.1271 79.0547C29.426 79.3536 29.5939 79.759 29.5939 80.1816V90.1426C29.5941 90.3588 29.5504 90.5727 29.4654 90.7715C29.3804 90.9702 29.2558 91.1496 29.0993 91.2987C28.9427 91.4477 28.7575 91.5634 28.5548 91.6387C28.3522 91.7139 28.1363 91.7471 27.9204 91.7363ZM24.1592 88.5488H26.4064V81.7754H24.1592V88.5488Z" fill="#0B69FF"/>
<path d="M83.9567 91.7363H78.522C78.0993 91.7363 77.6939 91.5684 77.395 91.2695C77.0961 90.9706 76.9282 90.5653 76.9282 90.1426V80.1816C76.9282 79.759 77.0961 79.3536 77.395 79.0547C77.6939 78.7558 78.0993 78.5879 78.522 78.5879H83.9567C84.3793 78.5879 84.7847 78.7558 85.0836 79.0547C85.3825 79.3536 85.5504 79.759 85.5504 80.1816V90.1426C85.5504 90.5653 85.3825 90.9706 85.0836 91.2695C84.7847 91.5684 84.3793 91.7363 83.9567 91.7363ZM80.1157 88.5488H82.3629V81.7754H80.1157V88.5488Z" fill="#0B69FF"/>
</svg>
