<svg width="132" height="115" viewBox="0 0 132 115" fill="none" xmlns="http://www.w3.org/2000/svg">
<g id="no result">
<g id="no result_2">
<path id="Vector" d="M65.2397 96.0001C90.6701 96.0001 111.287 75.3832 111.287 49.862C111.287 24.3407 90.5793 3.72388 65.2397 3.72388C39.8092 3.72388 19.1924 24.3407 19.1924 49.862C19.1924 75.3832 39.8092 96.0001 65.2397 96.0001Z" fill="#EAEEF9"/>
<path id="Vector_2" d="M113.739 5.08609C115.143 5.08609 116.282 3.94753 116.282 2.54304C116.282 1.13856 115.143 0 113.739 0C112.334 0 111.196 1.13856 111.196 2.54304C111.196 3.94753 112.334 5.08609 113.739 5.08609Z" fill="#E7EBF6"/>
<path id="Vector_3" d="M21.6446 19.527C23.0491 19.527 24.1877 18.3884 24.1877 16.984C24.1877 15.5795 23.0491 14.4409 21.6446 14.4409C20.2401 14.4409 19.1016 15.5795 19.1016 16.984C19.1016 18.3884 20.2401 19.527 21.6446 19.527Z" fill="#E7EBF6"/>
<path id="Vector_4" d="M6.11342 68.5713C8.72175 68.5713 10.8362 66.4569 10.8362 63.8485C10.8362 61.2402 8.72175 59.1257 6.11342 59.1257C3.50509 59.1257 1.39062 61.2402 1.39062 63.8485C1.39062 66.4569 3.50509 68.5713 6.11342 68.5713Z" fill="#E7EBF6"/>
</g>
<g id="no result_3">
<g id="Vector_5" filter="url(#filter0_d_132_3935)">
<path d="M109.117 25.6274V79.0655C109.117 80.6334 107.81 81.9399 106.242 81.9399H25.04C23.4721 82.0053 22.1655 80.6987 22.1655 79.1308V25.6274C22.1655 23.9942 23.4721 22.7529 25.04 22.7529H106.242C107.876 22.7529 109.117 24.0595 109.117 25.6274Z" fill="url(#paint0_linear_132_3935)"/>
</g>
<path id="Vector_6" d="M109.117 25.6274V29.743H22.1655V25.6274C22.1655 23.9942 23.4721 22.7529 25.04 22.7529H106.242C107.876 22.7529 109.117 24.0595 109.117 25.6274Z" fill="url(#paint1_linear_132_3935)"/>
<path id="Vector_7" d="M53.653 50.4517C54.9879 50.4517 56.0701 49.3695 56.0701 48.0346C56.0701 46.6996 54.9879 45.6174 53.653 45.6174C52.318 45.6174 51.2358 46.6996 51.2358 48.0346C51.2358 49.3695 52.318 50.4517 53.653 50.4517Z" fill="#989FB0"/>
<path id="Vector_8" d="M77.6945 50.4517C79.0294 50.4517 80.1116 49.3695 80.1116 48.0346C80.1116 46.6996 79.0294 45.6174 77.6945 45.6174C76.3595 45.6174 75.2773 46.6996 75.2773 48.0346C75.2773 49.3695 76.3595 50.4517 77.6945 50.4517Z" fill="#989FB0"/>
<path id="Vector_9" d="M69.5932 66.3263H62.0152C60.8393 66.3263 59.8594 65.3464 59.8594 64.1705C59.8594 62.9946 60.8393 62.0146 62.0152 62.0146H69.5279C70.7038 62.0146 71.6837 62.9946 71.6837 64.1705C71.749 65.3464 70.7691 66.3263 69.5932 66.3263Z" fill="#989FB0"/>
<path id="Vector_10" d="M26.0204 27.4564C26.5616 27.4564 27.0004 27.0177 27.0004 26.4765C27.0004 25.9353 26.5616 25.4966 26.0204 25.4966C25.4793 25.4966 25.0405 25.9353 25.0405 26.4765C25.0405 27.0177 25.4793 27.4564 26.0204 27.4564Z" fill="#F9FAFB"/>
<path id="Vector_11" d="M29.0908 27.4564C29.632 27.4564 30.0707 27.0177 30.0707 26.4765C30.0707 25.9353 29.632 25.4966 29.0908 25.4966C28.5496 25.4966 28.1108 25.9353 28.1108 26.4765C28.1108 27.0177 28.5496 27.4564 29.0908 27.4564Z" fill="#F9FAFB"/>
<path id="Vector_12" d="M32.226 27.4564C32.7672 27.4564 33.2059 27.0177 33.2059 26.4765C33.2059 25.9353 32.7672 25.4966 32.226 25.4966C31.6848 25.4966 31.2461 25.9353 31.2461 26.4765C31.2461 27.0177 31.6848 27.4564 32.226 27.4564Z" fill="#F9FAFB"/>
<path id="Vector_13" d="M105.589 15.8279C104.936 15.8279 104.413 15.3053 104.413 14.652V1.52112C104.413 0.867837 104.936 0.345215 105.589 0.345215C106.242 0.345215 106.765 0.867837 106.765 1.52112V14.652C106.765 15.3053 106.242 15.8279 105.589 15.8279Z" fill="#989FB0"/>
<path id="Vector_14" d="M115.126 25.8885C115.126 25.2353 115.649 24.7126 116.302 24.7126H129.433C130.087 24.7126 130.609 25.2353 130.609 25.8885C130.609 26.5418 130.087 27.0644 129.433 27.0644H116.302C115.649 27.0644 115.126 26.5418 115.126 25.8885Z" fill="#989FB0"/>
<path id="Vector_15" d="M114.082 17.3962C113.624 16.9389 113.624 16.1549 114.082 15.6976L123.424 6.4211C123.881 5.9638 124.665 5.9638 125.122 6.4211C125.579 6.87839 125.579 7.66232 125.122 8.11962L115.846 17.3962C115.323 17.8535 114.539 17.8535 114.082 17.3962Z" fill="#989FB0"/>
</g>
</g>
<defs>
<filter id="filter0_d_132_3935" x="0.165527" y="11.7529" width="130.951" height="103.189" filterUnits="userSpaceOnUse" color-interpolation-filters="sRGB">
<feFlood flood-opacity="0" result="BackgroundImageFix"/>
<feColorMatrix in="SourceAlpha" type="matrix" values="0 0 0 0 0 0 0 0 0 0 0 0 0 0 0 0 0 0 127 0" result="hardAlpha"/>
<feOffset dy="11"/>
<feGaussianBlur stdDeviation="11"/>
<feColorMatrix type="matrix" values="0 0 0 0 0.397708 0 0 0 0 0.47749 0 0 0 0 0.575 0 0 0 0.27 0"/>
<feBlend mode="normal" in2="BackgroundImageFix" result="effect1_dropShadow_132_3935"/>
<feBlend mode="normal" in="SourceGraphic" in2="effect1_dropShadow_132_3935" result="shape"/>
</filter>
<linearGradient id="paint0_linear_132_3935" x1="65.6128" y1="21.3838" x2="65.6128" y2="82.5804" gradientUnits="userSpaceOnUse">
<stop stop-color="#FDFEFF"/>
<stop offset="0.9964" stop-color="#ECF0F5"/>
</linearGradient>
<linearGradient id="paint1_linear_132_3935" x1="105.668" y1="22.7529" x2="24.9673" y2="26.248" gradientUnits="userSpaceOnUse">
<stop stop-color="#B0BACC"/>
<stop offset="1" stop-color="#969EAE"/>
</linearGradient>
</defs>
</svg>
