<svg width="18" height="18" viewBox="0 0 18 18" fill="none" xmlns="http://www.w3.org/2000/svg">
<g id="Facilities">
<path id="Shape" fill-rule="evenodd" clip-rule="evenodd" d="M6.56388 2.52101C6.45835 2.28872 6.1845 2.18595 5.9522 2.29148C5.71991 2.39701 5.61715 2.67086 5.72267 2.90316L7.50444 6.82527H6.14341H2.71197C2.45683 6.82527 2.25 7.0321 2.25 7.28724V10.1437C2.25 10.3989 2.45683 10.6057 2.71197 10.6057H9.22185L11.4357 15.479C11.5412 15.7113 11.8151 15.814 12.0474 15.7085C12.2797 15.603 12.3824 15.3291 12.2769 15.0968L10.2367 10.6057H13.5751C13.8303 10.6057 14.0371 10.3989 14.0371 10.1437V7.28724C14.0371 7.0321 13.8303 6.82527 13.5751 6.82527H8.51925L6.56388 2.52101ZM7.92417 7.74921H6.60539V9.68178H8.80211L7.92417 7.74921ZM9.81692 9.68178L8.93898 7.74921H13.1131V9.68178H9.81692ZM15.2878 6.25038C15.543 6.25038 15.7498 6.45721 15.7498 6.71235V10.7127C15.7498 10.9678 15.543 11.1746 15.2878 11.1746C15.0327 11.1746 14.8259 10.9678 14.8259 10.7127V6.71235C14.8259 6.45721 15.0327 6.25038 15.2878 6.25038ZM5.68144 7.74921H3.17394V9.68178H5.68144V7.74921Z" fill="#8B96A5"/>
</g>
</svg>
