<svg width="18" height="18" viewBox="0 0 25 24" fill="none" xmlns="http://www.w3.org/2000/svg">
<path fill-rule="evenodd" clip-rule="evenodd" d="M9.10609 3.36134C8.96539 3.05162 8.60024 2.9146 8.29052 3.05531C7.98079 3.19601 7.84378 3.56115 7.98448 3.87088L10.3602 9.10036H8.54547H3.97021C3.63002 9.10036 3.35425 9.37613 3.35425 9.71632V13.525C3.35425 13.8652 3.63002 14.141 3.97021 14.141H12.65L15.6019 20.6387C15.7426 20.9484 16.1077 21.0854 16.4174 20.9447C16.7272 20.804 16.8642 20.4388 16.7235 20.1291L14.0031 14.141H18.4544C18.7946 14.141 19.0704 13.8652 19.0704 13.525V9.71632C19.0704 9.37613 18.7946 9.10036 18.4544 9.10036H11.7132L9.10609 3.36134ZM10.9198 10.3323H9.16143V12.909H12.0904L10.9198 10.3323ZM13.4435 12.909L12.2729 10.3323H17.8384V12.909H13.4435ZM20.738 8.33384C21.0782 8.33384 21.354 8.60961 21.354 8.94979V14.2835C21.354 14.6237 21.0782 14.8995 20.738 14.8995C20.3978 14.8995 20.1221 14.6237 20.1221 14.2835V8.94979C20.1221 8.60961 20.3978 8.33384 20.738 8.33384ZM7.92951 10.3323H4.58617V12.909H7.92951V10.3323Z" fill="#8B96A5"/>
</svg>
