<svg width="134" height="132" viewBox="0 0 134 132" fill="none" xmlns="http://www.w3.org/2000/svg">
<path d="M66.7161 105C93.4008 105 115.041 83.522 115.041 57C115.041 30.478 93.4008 9 66.7161 9C40.0313 9 18.3906 30.478 18.3906 57C18.3906 83.522 40.0313 105 66.7161 105Z" fill="#EAEEF9"/>
<path d="M113.806 34.0579C115.648 34.0579 117.142 32.5645 117.142 30.7223C117.142 28.8801 115.648 27.3867 113.806 27.3867C111.964 27.3867 110.471 28.8801 110.471 30.7223C110.471 32.5645 111.964 34.0579 113.806 34.0579Z" fill="#EAEEF9"/>
<path d="M110.471 23.2376C111.729 23.2376 112.749 22.2177 112.749 20.9596C112.749 19.7015 111.729 18.6816 110.471 18.6816C109.213 18.6816 108.193 19.7015 108.193 20.9596C108.193 22.2177 109.213 23.2376 110.471 23.2376Z" fill="#EAEEF9"/>
<path d="M18.2135 30.7219C19.4716 30.7219 20.4915 29.7021 20.4915 28.444C20.4915 27.1859 19.4716 26.166 18.2135 26.166C16.9554 26.166 15.9355 27.1859 15.9355 28.444C15.9355 29.7021 16.9554 30.7219 18.2135 30.7219Z" fill="#EAEEF9"/>
<path d="M13.0879 80.838C15.4244 80.838 17.3184 78.9439 17.3184 76.6075C17.3184 74.271 15.4244 72.377 13.0879 72.377C10.7515 72.377 8.85742 74.271 8.85742 76.6075C8.85742 78.9439 10.7515 80.838 13.0879 80.838Z" fill="#EAEEF9"/>
<g filter="url(#filter0_d_1297_10104)">
<path d="M111.238 45.1163V89.1629C111.238 89.3445 111.238 89.4353 111.238 89.617C111.147 92.1599 109.966 94.3395 108.15 95.8834C106.606 97.2457 104.517 98.1538 102.247 98.1538H31.1365C29.5926 98.1538 28.1395 97.7906 26.868 97.064C26.3231 96.7916 25.7782 96.4283 25.3241 95.9742C24.3251 95.1569 23.417 93.9762 22.9629 92.7048C22.5996 91.7966 22.3271 90.7976 22.3271 89.7986V45.1163C22.3271 45.1163 26.0507 41.9376 31.4089 37.5784C36.9488 32.9467 44.2142 26.9527 50.5715 21.6853C54.2042 18.5975 53.8409 18.9607 59.4716 14.2382C63.7401 10.6055 70.0065 10.6055 74.2749 14.2382C75.3647 15.1464 76.5454 16.2362 77.6352 17.1444C79.9964 19.0515 82.5393 21.2312 85.2639 23.5016C90.9854 28.2241 97.2518 33.4916 102.156 37.5784C107.151 41.6652 110.784 44.753 111.238 45.1163Z" fill="url(#paint0_linear_1297_10104)"/>
</g>
<path d="M102.156 37.4878V53.2901L86.6264 62.6444L81.9947 65.4597L72.1864 71.3629L67.5547 74.1782L65.5567 75.3589L63.6495 74.1782L59.2902 71.3629L49.936 65.4597L45.5767 62.6444L31.2275 53.6534V37.5787C36.7674 32.947 44.0328 26.953 50.3901 21.6855L85.1733 23.4111C90.9856 28.2244 97.2521 33.401 102.156 37.4878Z" fill="#989FB0"/>
<path d="M99.0685 24.9554V52.7457L84.9009 61.1917L80.7233 63.7346L71.7324 69.0021L67.5547 71.5449L65.7384 72.5439L64.0128 71.5449L60.0169 69.0021L51.48 63.7346L47.484 61.1917L34.4062 53.0181V24.9554C34.4062 22.0493 36.7675 19.688 39.7645 19.688H93.7103C96.6164 19.5972 99.0685 22.0493 99.0685 24.9554Z" fill="white"/>
<path opacity="0.5" d="M22.6904 44.9355L65.3748 47.7509L110.602 44.9355L108.877 53.0183C108.877 53.0183 66.3738 75.1779 66.6462 75.1779C66.9187 75.1779 22.7812 48.9315 22.7812 48.9315L22.6904 44.9355Z" fill="url(#paint1_linear_1297_10104)"/>
<path d="M111.238 45.1172V89.6179C111.147 92.1608 109.966 94.3404 108.15 95.8843C106.606 97.2466 104.517 98.1548 102.247 98.1548H31.1365C29.5926 98.1548 28.1395 97.7915 26.868 97.065C26.3231 96.7925 25.7782 96.4292 25.3241 95.9751C24.3251 95.1578 23.417 93.9771 22.9629 92.7057C22.5996 91.7975 22.3271 90.7985 22.3271 89.7995V89.7087V45.1172L62.1053 70.0013L65.5564 72.1809L66.737 71.4543L67.8269 70.8186L111.238 45.1172Z" fill="#738DFF"/>
<path d="M108.241 95.8843C106.697 97.2466 104.608 98.1548 102.338 98.1548H31.1365C29.5926 98.1548 28.1395 97.7915 26.868 97.065C26.3231 96.7925 25.7782 96.4292 25.3241 95.9751C24.3251 95.1578 23.417 93.9771 22.9629 92.7057C22.5996 91.7975 22.3271 90.7985 22.3271 89.7995V89.7087V45.1172L26.9589 47.9325L66.737 71.4543L67.8269 72.0901L67.9177 72.1809L103.609 93.2506L108.241 95.8843Z" fill="url(#paint2_linear_1297_10104)"/>
<path d="M67.8269 70.7265V73.8143L26.8681 97.0637C26.3231 96.7912 25.7782 96.4279 25.3242 95.9739C24.3252 95.1565 23.417 93.9759 22.9629 92.7044L62.8319 69.0918L66.283 71.2714L66.7371 71.4531L67.8269 70.7265Z" fill="url(#paint3_linear_1297_10104)"/>
<path d="M22.3271 45.1172L66.737 71.4543" stroke="white" stroke-miterlimit="10"/>
<path d="M111.238 45.1172V89.6179C111.147 92.1608 109.966 94.3404 108.15 95.8843C106.606 97.2466 104.517 98.1548 102.247 98.1548H31.1366C29.5927 98.1548 28.1396 97.7915 26.8681 97.065C26.3232 96.7925 25.7783 96.4292 25.3242 95.9751L29.8651 93.2506L65.5565 72.1809L66.7371 71.4543L67.8269 70.8186L106.515 47.8417L111.238 45.1172Z" fill="url(#paint4_linear_1297_10104)"/>
<path d="M111.238 45.1172L67.8269 70.7278L66.7371 71.4543L65.5565 72.1809L25.3242 95.8843" stroke="white" stroke-miterlimit="10"/>
<path d="M100.521 76.2675H76.9082C76.3633 76.2675 75.9092 75.8134 75.9092 75.2685C75.9092 74.7236 76.3633 74.2695 76.9082 74.2695H100.521C101.066 74.2695 101.52 74.7236 101.52 75.2685C101.611 75.8134 101.157 76.2675 100.521 76.2675Z" fill="#CED7E2"/>
<path d="M100.521 83.0781H76.9082C76.3633 83.0781 75.9092 82.624 75.9092 82.0791C75.9092 81.5342 76.3633 81.0801 76.9082 81.0801H100.521C101.066 81.0801 101.52 81.5342 101.52 82.0791C101.611 82.624 101.157 83.0781 100.521 83.0781Z" fill="#CED7E2"/>
<path d="M105.426 97.2461L108.332 95.793C108.241 95.8838 108.241 95.8838 108.15 95.9746C108.15 95.9746 108.15 95.9746 108.059 95.9746L105.426 97.2461Z" fill="#526DFF"/>
<path d="M64.4643 54.4091C63.7604 54.4091 63.0979 54.1504 62.5596 53.5899L53.4092 44.0615C52.374 42.9836 52.374 41.1728 53.4092 40.0949C54.4443 39.017 56.1833 39.017 57.2184 40.0949L64.4643 47.64L81.5231 29.9197C82.5582 28.8419 84.2972 28.8419 85.3324 29.9197C86.3675 30.9976 86.3675 32.8084 85.3324 33.8863L66.3689 53.5899C65.872 54.1504 65.1682 54.4091 64.4643 54.4091Z" fill="url(#paint5_linear_1297_10104)"/>
<defs>
<filter id="filter0_d_1297_10104" x="0.327148" y="0.513672" width="132.91" height="130.641" filterUnits="userSpaceOnUse" color-interpolation-filters="sRGB">
<feFlood flood-opacity="0" result="BackgroundImageFix"/>
<feColorMatrix in="SourceAlpha" type="matrix" values="0 0 0 0 0 0 0 0 0 0 0 0 0 0 0 0 0 0 127 0" result="hardAlpha"/>
<feOffset dy="11"/>
<feGaussianBlur stdDeviation="11"/>
<feColorMatrix type="matrix" values="0 0 0 0 0.397708 0 0 0 0 0.47749 0 0 0 0 0.575 0 0 0 0.27 0"/>
<feBlend mode="normal" in2="BackgroundImageFix" result="effect1_dropShadow_1297_10104"/>
<feBlend mode="normal" in="SourceGraphic" in2="effect1_dropShadow_1297_10104" result="shape"/>
</filter>
<linearGradient id="paint0_linear_1297_10104" x1="66.7469" y1="12.5293" x2="66.7469" y2="77.1998" gradientUnits="userSpaceOnUse">
<stop stop-color="#B0BACC"/>
<stop offset="1" stop-color="#969EAE"/>
</linearGradient>
<linearGradient id="paint1_linear_1297_10104" x1="66.6072" y1="84.7658" x2="66.6072" y2="46.9735" gradientUnits="userSpaceOnUse">
<stop stop-color="#8A90B5"/>
<stop offset="1" stop-color="#A7AED2" stop-opacity="0"/>
</linearGradient>
<linearGradient id="paint2_linear_1297_10104" x1="65.256" y1="43.8904" x2="65.256" y2="98.7265" gradientUnits="userSpaceOnUse">
<stop stop-color="#FDFEFF"/>
<stop offset="0.9964" stop-color="#ECF0F5"/>
</linearGradient>
<linearGradient id="paint3_linear_1297_10104" x1="47.9568" y1="85.6393" x2="44.4744" y2="80.5424" gradientUnits="userSpaceOnUse">
<stop stop-color="#D5D8E4"/>
<stop offset="1" stop-color="#E1E4F0" stop-opacity="0"/>
</linearGradient>
<linearGradient id="paint4_linear_1297_10104" x1="68.253" y1="43.8904" x2="68.253" y2="98.7265" gradientUnits="userSpaceOnUse">
<stop stop-color="#FDFEFF"/>
<stop offset="0.9964" stop-color="#ECF0F5"/>
</linearGradient>
<linearGradient id="paint5_linear_1297_10104" x1="69.3734" y1="29.9901" x2="69.3734" y2="44.1895" gradientUnits="userSpaceOnUse">
<stop stop-color="#B0BACC"/>
<stop offset="1" stop-color="#969EAE"/>
</linearGradient>
</defs>
</svg>
