<svg width="18" height="18" viewBox="0 0 25 24" fill="none" xmlns="http://www.w3.org/2000/svg">
<path fill-rule="evenodd" clip-rule="evenodd" d="M12.3688 4C12.6783 4 12.9291 4.25085 12.9291 4.56029V5.88215C12.9291 6.19159 12.6783 6.44244 12.3688 6.44244C12.0594 6.44244 11.8085 6.19159 11.8085 5.88215V4.56029C11.8085 4.25085 12.0594 4 12.3688 4ZM10.9463 9.84775C10.9463 9.06212 11.5832 8.42524 12.3688 8.42524C13.1544 8.42524 13.7913 9.06212 13.7913 9.84775C13.7913 10.6334 13.1544 11.2703 12.3688 11.2703C11.5832 11.2703 10.9463 10.6334 10.9463 9.84775ZM12.3688 7.30467C10.9643 7.30467 9.8257 8.44324 9.8257 9.84775C9.8257 11.2523 10.9643 12.3908 12.3688 12.3908C13.7733 12.3908 14.9119 11.2523 14.9119 9.84775C14.9119 8.44324 13.7733 7.30467 12.3688 7.30467ZM16.7688 18.112L16.3197 17.5102L15.8707 18.112C15.6929 18.3502 15.4621 18.5436 15.1964 18.6768C14.9308 18.8101 14.6377 18.8794 14.3405 18.8794C14.0434 18.8794 13.7503 18.8101 13.4847 18.6768C13.219 18.5436 12.9882 18.3502 12.8104 18.112L12.3621 17.5111L11.9128 18.1114C11.7344 18.3498 11.5028 18.5434 11.2365 18.6767C10.9701 18.81 10.6764 18.8794 10.3786 18.8794C10.0808 18.8794 9.78703 18.81 9.52071 18.6767C9.25439 18.5434 9.02281 18.3498 8.84435 18.1114L8.39579 17.5121L7.94723 18.1114C7.76877 18.3498 7.53718 18.5434 7.27087 18.6767C7.00455 18.81 6.71082 18.8794 6.41299 18.8794C6.11516 18.8794 5.82144 18.81 5.55512 18.6767C5.2888 18.5434 5.05722 18.3498 4.87875 18.1114C4.69333 17.8636 4.34219 17.8131 4.09446 17.9985C3.84673 18.184 3.79621 18.5351 3.98164 18.7828C4.26445 19.1607 4.63144 19.4674 5.05349 19.6787C5.47553 19.89 5.94101 20 6.41299 20C6.88497 20 7.35045 19.89 7.77249 19.6787C7.99735 19.5661 8.20659 19.4265 8.39579 19.2634C8.58499 19.4265 8.79422 19.5661 9.01908 19.6787C9.44113 19.89 9.90661 20 10.3786 20C10.8506 20 11.316 19.89 11.7381 19.6787C11.9628 19.5662 12.1718 19.4267 12.3609 19.2638C12.5495 19.4266 12.7581 19.566 12.9823 19.6785C13.4039 19.8899 13.8689 20 14.3405 20C14.8122 20 15.2772 19.8899 15.6988 19.6785C15.9228 19.5661 16.1312 19.4268 16.3197 19.2642C16.5082 19.4268 16.7166 19.5661 16.9406 19.6785C17.3622 19.8899 17.8273 20 18.2989 20C18.7705 20 19.2356 19.8899 19.6571 19.6785C20.0787 19.4671 20.4451 19.1601 20.7271 18.7822C20.9122 18.5342 20.8611 18.1831 20.6131 17.998C20.3651 17.813 20.014 17.864 19.829 18.112C19.6513 18.3502 19.4204 18.5436 19.1548 18.6768C18.8891 18.8101 18.5961 18.8794 18.2989 18.8794C18.0017 18.8794 17.7086 18.8101 17.443 18.6768C17.1774 18.5436 16.9465 18.3502 16.7688 18.112ZM12.9291 13.8134C12.9291 13.5039 12.6783 13.2531 12.3688 13.2531C12.0594 13.2531 11.8085 13.5039 11.8085 13.8134V15.1425C11.8085 15.4519 12.0594 15.7028 12.3688 15.7028C12.6783 15.7028 12.9291 15.4519 12.9291 15.1425V13.8134ZM15.7742 9.84771C15.7742 9.53827 16.0251 9.28742 16.3345 9.28742H17.6636C17.9731 9.28742 18.2239 9.53827 18.2239 9.84771C18.2239 10.1571 17.9731 10.408 17.6636 10.408H16.3345C16.0251 10.408 15.7742 10.1571 15.7742 9.84771ZM7.07417 9.28742C6.76474 9.28742 6.51389 9.53827 6.51389 9.84771C6.51389 10.1571 6.76474 10.408 7.07417 10.408H8.4033C8.71274 10.408 8.96359 10.1571 8.96359 9.84771C8.96359 9.53827 8.71274 9.28742 8.4033 9.28742H7.07417ZM16.5055 5.71111C16.7243 5.92992 16.7243 6.28467 16.5055 6.50348L15.5686 7.4404C15.3498 7.65921 14.995 7.65921 14.7762 7.4404C14.5574 7.2216 14.5574 6.86684 14.7762 6.64804L15.7131 5.71111C15.9319 5.4923 16.2867 5.4923 16.5055 5.71111ZM9.96151 13.0475C10.1803 12.8286 10.1803 12.4739 9.96151 12.2551C9.74271 12.0363 9.38795 12.0363 9.16915 12.2551L8.23222 13.192C8.01341 13.4108 8.01341 13.7656 8.23222 13.9844C8.45102 14.2032 8.80578 14.2032 9.02459 13.9844L9.96151 13.0475ZM14.7762 12.2551C14.995 12.0363 15.3498 12.0363 15.5686 12.2551L16.5055 13.192C16.7243 13.4108 16.7243 13.7656 16.5055 13.9844C16.2867 14.2032 15.9319 14.2032 15.7131 13.9844L14.7762 13.0475C14.5574 12.8286 14.5574 12.4739 14.7762 12.2551ZM9.02459 5.71111C8.80578 5.4923 8.45102 5.4923 8.23222 5.71111C8.01341 5.92992 8.01341 6.28467 8.23222 6.50348L9.16915 7.4404C9.38795 7.65921 9.74271 7.65921 9.96151 7.4404C10.1803 7.22159 10.1803 6.86684 9.96151 6.64804L9.02459 5.71111Z" fill="#8B96A5"/>
</svg>
