<svg width="19" height="18" viewBox="0 0 24 25" fill="none" xmlns="http://www.w3.org/2000/svg">
<path fill-rule="evenodd" clip-rule="evenodd" d="M3.42754 0C3.75803 0 4.02595 0.267917 4.02595 0.59841V1.55369H14.682V0.59841C14.682 0.267917 14.9499 0 15.2804 0C15.6109 0 15.8788 0.267917 15.8788 0.59841V2.81696C15.8788 2.8498 15.8761 2.88202 15.8711 2.91342V6.41753C15.8762 6.47697 15.8788 6.53683 15.8788 6.59695V7.50563C16.4026 7.61949 16.8875 7.88151 17.2724 8.26644C17.8007 8.79472 18.0974 9.51122 18.0974 10.2583V11.1803H18.0975V14.7359L18.0976 14.742V17.4016C18.0976 17.7321 17.8297 18 17.4992 18C17.1687 18 16.9008 17.7321 16.9008 17.4016V15.3404H1.8076V17.4016C1.8076 17.7321 1.53969 18 1.2092 18C0.878706 18 0.610791 17.7321 0.610791 17.4016V15.3404V14.742V12.3384H0.610691V10.302C0.604916 9.92985 0.672959 9.5602 0.810907 9.21444C0.949541 8.86697 1.156 8.55059 1.41823 8.28377C1.68046 8.01695 1.99321 7.80504 2.33823 7.66041C2.49719 7.59377 2.66153 7.54203 2.82913 7.50561V6.59695V2.81696V1.55369V0.59841C2.82913 0.267917 3.09705 0 3.42754 0ZM4.02595 2.81696L4.02595 2.75051H14.6742V4.71013C14.4025 4.58405 14.1041 4.51692 13.7988 4.51692H10.8356C10.2839 4.51692 9.75486 4.73606 9.36478 5.12615L9.35397 5.13704L9.34316 5.12615C9.15001 4.933 8.92071 4.77978 8.66835 4.67525C8.41599 4.57072 8.14552 4.51692 7.87237 4.51692H4.90915C4.60093 4.51692 4.29976 4.58533 4.02595 4.71374V2.8175L4.02595 2.81696ZM3.07487 8.67698H15.633C15.931 8.74342 16.2068 8.89338 16.4261 9.11272C16.7299 9.41655 16.9006 9.82864 16.9006 10.2583V11.1415H1.8075V10.2919L1.80741 10.2867C1.80365 10.0715 1.84278 9.8578 1.92251 9.65795C2.00224 9.45811 2.12099 9.27614 2.2718 9.12269C2.42262 8.96923 2.6025 8.84735 2.80093 8.76417C2.8897 8.72696 2.98138 8.69782 3.07487 8.67698ZM4.02595 6.59695V7.44137H8.75556V6.59695L8.75556 6.59287C8.75503 6.47827 8.73221 6.36486 8.68834 6.25896C8.64395 6.1518 8.5789 6.05444 8.49689 5.97242C8.41487 5.89041 8.31751 5.82535 8.21035 5.78097C8.1032 5.73658 7.98835 5.71374 7.87237 5.71374H4.90915C4.67491 5.71374 4.45026 5.80679 4.28463 5.97242C4.119 6.13806 4.02595 6.36271 4.02595 6.59695ZM14.6742 6.48019V7.44137L9.95238 7.44137V6.59695L9.95238 6.59283C9.95346 6.36008 10.0464 6.13709 10.2111 5.97242C10.3767 5.80679 10.6013 5.71374 10.8356 5.71374H13.7988C14.033 5.71374 14.2577 5.80679 14.4233 5.97242C14.5612 6.11029 14.6488 6.28905 14.6742 6.48019ZM1.8076 14.1436V12.3772H16.9007V14.1436H1.8076Z" fill="#8B96A5"/>
</svg>
