<svg width="103" height="40" viewBox="0 0 103 40" fill="none" xmlns="http://www.w3.org/2000/svg">
<path fill-rule="evenodd" clip-rule="evenodd" d="M60.6075 15.9922C61.1785 15.9922 61.7496 15.9922 62.3207 15.9922C62.3207 16.9147 62.3207 17.8372 62.3207 18.7597C63.1114 18.7597 63.9021 18.7597 64.6928 18.7597C64.7338 19.3105 64.646 19.8376 64.4292 20.3411C63.7347 20.4664 63.0319 20.5104 62.3207 20.4728C62.2987 23.7238 62.3207 26.9745 62.3866 30.2249C62.4839 30.6298 62.7255 30.9154 63.1114 31.0815C63.7698 31.162 64.4287 31.2279 65.0881 31.2791C65.0881 31.8502 65.0881 32.4213 65.0881 32.9923C64.2523 33.0142 63.4178 32.9923 62.5842 32.9264C61.8278 32.7791 61.2788 32.3619 60.9369 31.6745C60.7939 31.0239 60.706 30.365 60.6734 29.6977C60.6075 26.6231 60.5855 23.5482 60.6075 20.4728C59.8168 20.4728 59.0261 20.4728 58.2354 20.4728C58.309 19.8992 58.3968 19.3282 58.4989 18.7597C59.2017 18.7597 59.9047 18.7597 60.6075 18.7597C60.6075 17.8372 60.6075 16.9147 60.6075 15.9922Z" fill="#010101"/>
<path fill-rule="evenodd" clip-rule="evenodd" d="M71.5453 18.628C76.3625 18.5248 78.8225 20.8969 78.9253 25.7443C79.1145 28.4547 78.1481 30.6292 76.026 32.2676C73.8081 33.3603 71.5678 33.4041 69.305 32.3994C67.6764 31.3181 66.7321 29.8026 66.4717 27.8529C66.0867 25.6608 66.3503 23.5522 67.2624 21.5272C68.2608 19.9195 69.6884 18.953 71.5453 18.628ZM71.6771 20.473C73.9993 20.217 75.5587 21.1834 76.3555 23.3722C76.7947 25.0415 76.7947 26.7107 76.3555 28.38C75.2603 31.1353 73.3495 31.9481 70.6229 30.818C69.4153 29.9196 68.7344 28.7116 68.5802 27.1939C68.4221 25.7592 68.5539 24.3536 68.9756 22.9769C69.2458 22.3556 69.6193 21.8065 70.0957 21.3296C70.5833 20.9471 71.1105 20.6617 71.6771 20.473Z" fill="#010101"/>
<path fill-rule="evenodd" clip-rule="evenodd" d="M81.6928 18.6279C82.3956 18.6279 83.0986 18.6279 83.8014 18.6279C83.7438 22.2345 83.8097 25.8365 83.999 29.4342C84.6686 31.0519 85.8767 31.6449 87.6231 31.2133C89.5212 30.5614 90.4217 29.2215 90.3247 27.1939C90.3906 24.3389 90.4126 21.4836 90.3906 18.6279C91.0934 18.6279 91.7963 18.6279 92.4991 18.6279C92.4991 23.3722 92.4991 28.1164 92.4991 32.8606C91.8402 32.8606 91.1813 32.8606 90.5224 32.8606C90.5655 32.2394 90.5214 31.6245 90.3906 31.0156C89.0207 32.7975 87.2196 33.4783 84.9874 33.0583C83.0866 32.6512 82.0103 31.487 81.7587 29.566C81.6928 25.9202 81.6708 22.2743 81.6928 18.6279Z" fill="black"/>
<path fill-rule="evenodd" clip-rule="evenodd" d="M96.189 18.6278C96.8479 18.6278 97.5068 18.6278 98.1657 18.6278C98.1438 19.5513 98.1657 20.4738 98.2316 21.3952C98.6676 20.5452 99.2166 19.7765 99.8789 19.089C100.754 18.6849 101.677 18.5313 102.646 18.6278C102.646 19.2428 102.646 19.8577 102.646 20.4727C100.828 20.163 99.5758 20.866 98.8905 22.5813C98.725 23.2333 98.5932 23.8923 98.4952 24.558C98.4293 27.3251 98.4073 30.0926 98.4293 32.8604C97.6825 32.8604 96.9358 32.8604 96.189 32.8604C96.189 28.1162 96.189 23.372 96.189 18.6278Z" fill="#010101"/>
<path d="M7.63277 39.5686C12.2793 40.5167 43.6006 39.6129 44.7936 39.5686C45.9866 39.5243 48.862 40.0572 53.3779 36.5583C57.5558 33.3214 58.3708 29.3379 58.4634 26.5908C58.556 23.8436 58.381 21.4269 56.592 18.6167C54.5588 15.423 50.2825 14.0245 47.5677 14.1538C48.0598 12.0958 47.3412 7.50201 43.8521 6.09926C39.1374 4.20377 36.368 6.69283 35.2762 8.28395C35.2762 6.13106 32.8893 3.46334 32.351 2.92512C29.5073 0.0814003 27.1564 -1.30812e-05 24.0437 0C21.5866 1.03289e-05 17.5389 1.62703 13.7473 6.24806C11.1422 9.42292 10.478 15.745 10.5175 18.3122C8.34519 18.6282 2.38892 19.763 0.387446 26.2757C-1.33738 31.8883 2.98626 38.6205 7.63277 39.5686Z" fill="url(#paint0_radial_83_312)"/>
<path fill-rule="evenodd" clip-rule="evenodd" d="M30.7718 11.1353C30.958 11.4937 31.0459 11.889 31.0354 12.3214C31.0354 12.6288 31.0354 12.9364 31.0354 13.2439C30.9823 18.8227 30.9384 24.4015 30.9036 29.9805C30.9036 30.5955 30.9036 31.2104 30.9036 31.8254C29.5858 31.8254 28.2679 31.8254 26.9501 31.8254C26.9062 31.6498 26.8622 31.474 26.8183 31.2983C26.7551 30.5969 26.7112 29.8941 26.6865 29.1898C26.6865 28.6187 26.6865 28.0476 26.6865 27.4766C26.6865 24.2258 26.6865 20.9753 26.6865 17.7245C26.6865 16.5385 26.6865 15.3524 26.6865 14.1664C26.6865 13.2878 26.6865 12.4093 26.6865 11.5307C26.7744 11.4428 26.8622 11.355 26.9501 11.2671C28.2171 11.1421 29.491 11.0982 30.7718 11.1353Z" fill="#FDFEFE"/>
<path fill-rule="evenodd" clip-rule="evenodd" d="M39.6014 17.3291C40.3865 17.2638 41.0014 17.5274 41.4463 18.1198C42.3481 19.8368 43.3146 21.5061 44.3456 23.1276C44.5547 23.6788 44.8623 24.1621 45.2681 24.5772C45.3531 24.7501 45.4849 24.8819 45.6634 24.9726C46.2375 24.3509 46.6768 23.6481 46.9813 22.864C47.6294 21.6997 48.2444 20.5136 48.8262 19.3058C49.1553 18.8235 49.4189 18.2964 49.6169 17.7244C49.6772 17.6193 49.7651 17.5754 49.8805 17.5926C51.1545 17.5926 52.4283 17.5926 53.7023 17.5926C53.5266 18.1637 53.3508 18.7348 53.1751 19.3058C51.8262 21.8719 50.5083 24.4636 49.2216 27.0811C48.9022 27.4116 48.6826 27.807 48.5627 28.2672C47.8014 29.4821 47.1424 30.756 46.5859 32.0889C46.4755 32.134 46.4315 32.2217 46.4541 32.3525C46.0365 32.9235 45.685 33.5385 45.3999 34.1974C45.0924 34.8125 44.7848 35.4274 44.4774 36.0424C44.0964 36.5672 43.7889 37.1382 43.5549 37.7556C43.4444 37.8007 43.4004 37.8884 43.4231 38.0192C42.7746 38.1038 42.1157 38.1477 41.4463 38.151C40.7807 38.15 40.1658 38.0623 39.6014 37.8874C39.6014 37.7995 39.6014 37.7117 39.6014 37.6238C39.7205 37.5304 39.7644 37.3986 39.7331 37.2285C40.0718 36.5945 40.3793 35.9355 40.6556 35.2517C41.0717 34.6842 41.4231 34.0693 41.7099 33.4067C42.1908 32.5671 42.63 31.6887 43.0277 30.7711C43.418 30.2223 43.5718 29.6074 43.489 28.9261C43.2882 28.6101 43.0905 28.3026 42.896 28.0036C42.6967 27.5159 42.4331 27.0766 42.1053 26.6857C41.9313 26.3378 41.7556 25.9864 41.5781 25.6315C40.6998 24.0717 39.6894 22.6002 38.5471 21.2167C38.4153 21.1288 38.2835 21.1288 38.1517 21.2167C37.7229 21.5787 37.3716 21.9961 37.0975 22.4687C36.4138 23.0032 36.1282 23.706 36.2409 24.5772C36.2913 24.6505 36.3572 24.6944 36.4385 24.709C36.7589 25.789 37.286 26.7555 38.02 27.6082C38.2415 27.9644 38.461 28.3158 38.6789 28.6625C39.1797 29.4249 39.619 30.2156 39.9967 31.0346C39.9779 31.2668 40.0219 31.4865 40.1285 31.6935C38.7255 31.8252 37.3198 31.8691 35.9114 31.8253C35.8807 31.6195 35.7928 31.4438 35.6478 31.2982C35.4263 30.942 35.2068 30.5906 34.9889 30.2439C34.4504 29.2982 33.8794 28.3757 33.2757 27.4764C33.0388 26.8211 32.6654 26.2501 32.1556 25.7633C32.0493 25.375 31.8737 25.0237 31.6284 24.709C31.5405 24.3136 31.5405 23.9183 31.6284 23.5229C32.0144 22.8813 32.4318 22.2664 32.8804 21.678C33.4655 21.0483 33.9487 20.3453 34.33 19.5694C34.8694 18.875 35.4404 18.1942 36.0432 17.5268C36.2485 17.4991 36.4242 17.4332 36.5703 17.3291C37.5786 17.1849 38.589 17.1849 39.6014 17.3291Z" fill="#FCFDFD"/>
<path fill-rule="evenodd" clip-rule="evenodd" d="M15.0895 17.3291C15.3969 17.3291 15.7045 17.3291 16.012 17.3291C17.3298 17.3291 18.6477 17.3291 19.9655 17.3291C21.5469 17.3291 23.1283 17.3291 24.7097 17.3291C24.5404 17.721 24.3647 18.1164 24.1826 18.5152C23.836 19.2057 23.4188 19.8646 22.9306 20.4919C22.867 20.6169 22.8451 20.7486 22.8647 20.8873C21.7226 20.8873 20.5805 20.8873 19.4384 20.8873C18.6026 20.8654 17.768 20.8873 16.9345 20.9532C16.3843 21.5206 16.4281 22.0478 17.0662 22.5346C17.6241 22.9036 18.239 23.1012 18.9112 23.1276C19.2193 23.3305 19.5708 23.4183 19.9655 23.3912C20.9353 23.604 21.9018 23.8896 22.8647 24.2478C23.8174 24.4975 24.4104 25.0905 24.6438 26.0269C24.7097 26.9923 24.7316 27.9587 24.7097 28.9261C24.5803 29.3561 24.4924 29.7955 24.4462 30.2439C24.0841 30.9137 23.557 31.3969 22.8647 31.6936C22.5536 31.7165 22.2462 31.7604 21.9423 31.8254C18.7128 31.869 15.5061 31.8251 12.322 31.6936C12.3659 31.5179 12.4099 31.3421 12.4538 31.1664C12.8675 30.6164 13.1749 30.0013 13.3763 29.3215C13.5081 29.1458 13.6399 28.97 13.7716 28.7943C13.8756 28.757 13.9635 28.6911 14.0352 28.5966C14.6927 28.5309 15.3516 28.5089 16.012 28.5307C17.1308 28.6832 18.273 28.7052 19.4384 28.5966C19.6437 28.569 19.8193 28.5031 19.9655 28.399C20.8328 27.8938 20.8328 27.3667 19.9655 26.8176C18.6744 26.3973 17.3566 26.0898 16.012 25.8951C15.2596 25.5856 14.5129 25.2562 13.7716 24.9067C13.4774 24.5119 13.1699 24.1385 12.8492 23.7865C11.797 21.7598 12.0165 19.893 13.5081 18.1857C14.0162 17.8358 14.5434 17.5502 15.0895 17.3291Z" fill="#FCFEFE"/>
<defs>
<radialGradient id="paint0_radial_83_312" cx="0" cy="0" r="1" gradientUnits="userSpaceOnUse" gradientTransform="translate(29.2576 19.796) rotate(90) scale(19.796 29.2254)">
<stop stop-color="#C0E5F2"/>
<stop offset="1" stop-color="#199CC9"/>
</radialGradient>
</defs>
</svg>
