<svg width="18" height="18" viewBox="0 0 25 24" fill="8B96A5" xmlns="http://www.w3.org/2000/svg">
<path  d="M2.354 7.58488C2.354 8.45347 3.02621 9.11812 3.88724 9.11812H20.8208C21.6818 9.11812 22.354 8.45347 22.354 7.58488C22.354 6.7012 21.6818 6.0441 20.8208 6.0441H3.88724C3.02621 6.0441 2.354 6.7012 2.354 7.58488ZM3.55491 7.58488C3.55491 7.37341 3.71353 7.22234 3.94011 7.22234H20.7679C20.9945 7.22234 21.1531 7.37341 21.1531 7.58488C21.1531 7.78881 20.9945 7.93987 20.7679 7.93987H3.94011C3.71353 7.93987 3.55491 7.78881 3.55491 7.58488ZM7.99601 16.2329H16.7196C19.5595 16.2329 21.0323 14.8432 21.0323 12.1393V8.55165H19.8163V12.1393C19.8163 14.035 18.7588 15.0169 16.7196 15.0169H7.99601C5.94917 15.0169 4.89177 14.035 4.89177 12.1393V8.55165H3.67576V12.1393C3.67576 14.8432 5.14857 16.2329 7.99601 16.2329ZM5.88876 17.9172C6.19842 18.0381 6.5534 17.8643 6.6667 17.5547L7.30869 15.7798L6.16821 15.3643L5.52622 17.1393C5.41292 17.4489 5.57909 17.8115 5.88876 17.9172ZM18.8268 17.9172C19.1365 17.8115 19.2951 17.4489 19.1818 17.1393L18.5398 15.3643L17.3994 15.7798L18.0413 17.5547C18.1546 17.8643 18.5096 18.0381 18.8268 17.9172Z" fill="#8B96A5"/>
</svg>
