<svg width="182" height="81" viewBox="0 0 182 81" fill="none" xmlns="http://www.w3.org/2000/svg">
<circle cx="14.8195" cy="51.8681" r="14.6411" fill="#AADDFF"/>
<path d="M50.2414 66.5092H14.3472L14.8195 65.0923C15.4492 58.7951 16.7086 46.0117 16.7086 45.256C16.7086 44.5004 27.0991 50.4512 60.6319 37.2271L50.2414 66.5092Z" fill="#AADDFF"/>
<circle cx="50.2411" cy="43.839" r="22.6701" fill="#AADDFF"/>
<circle cx="142.329" cy="35.1283" r="9.95345" fill="#AADDFF"/>
<path d="M166.41 45.0817H142.008L142.329 44.1185C142.757 39.8374 143.613 31.1469 143.613 30.6331C143.613 30.1194 150.677 34.165 173.474 25.1748L166.41 45.0817Z" fill="#AADDFF"/>
<circle cx="166.41" cy="29.6701" r="15.4118" fill="#AADDFF"/>
<g opacity="0.64">
<mask id="mask0_352_19259" style="mask-type:luminance" maskUnits="userSpaceOnUse" x="50" y="0" width="92" height="81">
<path d="M110.133 81L114.533 78.3185L119.753 45.7395C121.272 45.0948 122.894 44.2665 124.534 43.2661C130.497 39.6323 134.407 35.1805 133.267 33.3232C132.185 31.5601 126.941 32.7727 121.312 36.0088L122.688 27.4189C139.586 16.6027 142.641 11.3841 140.825 8.42483C139.006 5.46143 132.939 5.80071 115.524 15.9076L107.348 13.2569C112.802 9.73587 116.274 5.63672 115.193 3.87364C114.052 2.01729 108.295 3.45747 102.333 7.09227C100.691 8.09271 99.213 9.1547 97.9458 10.2084L66.4643 0L62.0651 2.68253L99.1019 26.1776C86.6953 34.4066 74.3462 43.5695 68.2386 49.4153L54.2099 42.7402L50.6058 44.9369L61.9777 56.8981L67.4826 72.4358L71.0867 70.2381L71.2554 54.1162C79.2844 51.3342 93.0477 44.5689 106.005 37.3342L110.133 81Z" fill="white"/>
</mask>
<g mask="url(#mask0_352_19259)">
<path d="M110.133 81L114.533 78.3185L119.753 45.7395C121.272 45.0948 122.894 44.2665 124.534 43.2661C130.497 39.6323 134.407 35.1805 133.267 33.3232C132.185 31.5601 126.941 32.7727 121.312 36.0088L122.688 27.4189C139.586 16.6027 142.641 11.3841 140.825 8.42483C139.006 5.46143 132.939 5.80071 115.524 15.9076L107.348 13.2569C112.802 9.73587 116.274 5.63672 115.193 3.87364C114.052 2.01729 108.295 3.45747 102.333 7.09227C100.691 8.09271 99.213 9.1547 97.9458 10.2084L66.4643 0L62.0651 2.68253L99.1019 26.1776C86.6953 34.4066 74.3462 43.5695 68.2386 49.4153L54.2099 42.7402L50.6058 44.9369L61.9777 56.8981L67.4826 72.4358L71.0867 70.2381L71.2554 54.1162C79.2844 51.3342 93.0477 44.5689 106.005 37.3342L110.133 81Z" fill="#0D6EFD"/>
</g>
</g>
</svg>
