<svg width="123" height="129" viewBox="0 0 123 129" fill="none" xmlns="http://www.w3.org/2000/svg">
<path d="M60.9355 85.514C84.5024 85.514 103.608 66.408 103.608 42.757C103.608 19.106 84.4182 0 60.9355 0C37.3687 0 18.2627 19.106 18.2627 42.757C18.2627 66.408 37.3687 85.514 60.9355 85.514Z" fill="#0D6EFD" fill-opacity="0.35"/>
<g filter="url(#filter0_d_393_15439)">
<path d="M100.061 69.3127L100.098 64.9766L79.1256 46.773C79.3395 45.4005 79.468 43.873 79.4815 42.2557C79.5322 36.3788 78.0863 31.6063 76.2522 31.596C74.5111 31.5865 73.0487 35.8739 72.8617 41.3358L67.332 36.5362C67.1057 19.6508 64.7319 15.1488 61.8094 15.1329C58.8831 15.1166 56.4304 19.605 55.9203 36.5445L50.3933 41.2122C50.299 35.7486 48.9105 31.4461 47.1699 31.4357C45.3361 31.4265 43.8084 36.182 43.7583 42.0594C43.7444 43.6773 43.847 45.2057 44.0375 46.5798L22.7551 64.5515L22.7188 68.8881L55.9675 52.8468C56.3395 65.3718 57.4046 78.2705 58.8707 85.2336L47.867 92.2977L47.8365 95.8501L61.4391 93.0335L74.9925 95.9999L75.0223 92.4471L63.5715 85.165C65.1491 78.1892 66.4263 65.3446 67.0097 52.8679L100.061 69.3127Z" fill="url(#paint0_linear_393_15439)"/>
</g>
<path d="M92.7603 43.7665L95.0349 43.0809C95.1997 43.0331 95.1997 42.7939 95.0349 42.7461L92.7603 42.0605C92.7019 42.0446 92.6594 42.0021 92.6434 41.9436L91.9578 39.6743C91.91 39.5096 91.6709 39.5096 91.623 39.6743L90.9375 41.9436C90.9215 42.0021 90.879 42.0446 90.8206 42.0605L88.5513 42.7461C88.3865 42.7939 88.3865 43.0331 88.5513 43.0809L90.8259 43.7665C90.8843 43.7824 90.9268 43.8249 90.9428 43.8834L91.6284 46.1579C91.6762 46.3227 91.9153 46.3227 91.9632 46.1579L92.6487 43.8834C92.6594 43.8249 92.7019 43.7824 92.7603 43.7665Z" fill="white"/>
<path d="M79.2935 19.36L81.5681 18.6745C81.7329 18.6266 81.7329 18.3875 81.5681 18.3397L79.2935 17.6541C79.2351 17.6382 79.1926 17.5957 79.1766 17.5372L78.491 15.2681C78.4432 15.1033 78.2041 15.1033 78.1562 15.2681L77.4707 17.5372C77.4547 17.5957 77.4122 17.6382 77.3538 17.6541L75.0845 18.3397C74.9198 18.3875 74.9198 18.6266 75.0845 18.6745L77.3591 19.36C77.4175 19.3759 77.46 19.4185 77.476 19.4769L78.1616 21.7514C78.2094 21.9161 78.4485 21.9161 78.4964 21.7514L79.1819 19.4769C79.1926 19.4185 79.2351 19.3759 79.2935 19.36Z" fill="white"/>
<path d="M45.085 22.1983L47.0752 21.5984C47.2194 21.5566 47.2194 21.3473 47.0752 21.3055L45.085 20.7057C45.0338 20.6917 44.9966 20.6545 44.9827 20.6034L44.3828 18.6179C44.3409 18.4737 44.1317 18.4737 44.0898 18.6179L43.49 20.6034C43.476 20.6545 43.4388 20.6917 43.3877 20.7057L41.4021 21.3055C41.2579 21.3473 41.2579 21.5566 41.4021 21.5984L43.3923 22.1983C43.4435 22.2122 43.4807 22.2494 43.4946 22.3006L44.0945 24.2907C44.1363 24.4349 44.3456 24.4349 44.3874 24.2907L44.9873 22.3006C44.9966 22.2494 45.0338 22.2122 45.085 22.1983Z" fill="white"/>
<path d="M30.7764 58.7489L32.7666 58.0633C32.9108 58.0155 32.9108 57.7763 32.7666 57.7285L30.7764 57.0429C30.7252 57.027 30.688 56.9845 30.6741 56.926L30.0742 54.6568C30.0323 54.492 29.8231 54.492 29.7812 54.6568L29.1814 56.926C29.1674 56.9845 29.1302 57.027 29.0791 57.0429L27.0935 57.7285C26.9493 57.7763 26.9493 58.0155 27.0935 58.0633L29.0837 58.7489C29.1349 58.7648 29.1721 58.8073 29.186 58.8658L29.7859 61.1404C29.8277 61.3051 30.037 61.3051 30.0788 61.1404L30.6787 58.8658C30.688 58.8073 30.7252 58.7648 30.7764 58.7489Z" fill="white"/>
<path d="M27.5897 32.8299L29.0113 32.4015C29.1143 32.3716 29.1143 32.2221 29.0113 32.1922L27.5897 31.7638C27.5532 31.7538 27.5266 31.7272 27.5166 31.6907L27.0882 30.2725C27.0583 30.1696 26.9088 30.1696 26.8789 30.2725L26.4504 31.6907C26.4405 31.7272 26.4139 31.7538 26.3774 31.7638L24.9591 32.1922C24.8561 32.2221 24.8561 32.3716 24.9591 32.4015L26.3807 32.8299C26.4172 32.8399 26.4438 32.8664 26.4537 32.903L26.8822 34.3245C26.9121 34.4274 27.0616 34.4274 27.0915 34.3245L27.52 32.903C27.5266 32.8664 27.5532 32.8399 27.5897 32.8299Z" fill="white"/>
<path d="M42.7401 46.8885L44.1617 46.4601C44.2647 46.4302 44.2647 46.2807 44.1617 46.2508L42.7401 45.8224C42.7036 45.8124 42.677 45.7858 42.667 45.7493L42.2385 44.3311C42.2087 44.2282 42.0592 44.2282 42.0293 44.3311L41.6008 45.7493C41.5908 45.7858 41.5643 45.8124 41.5277 45.8224L40.1095 46.2508C40.0065 46.2807 40.0065 46.4302 40.1095 46.4601L41.5311 46.8885C41.5676 46.8985 41.5942 46.925 41.6041 46.9616L42.0326 48.3831C42.0625 48.486 42.212 48.486 42.2419 48.3831L42.6703 46.9616C42.677 46.925 42.7036 46.8985 42.7401 46.8885Z" fill="white"/>
<path d="M54.7948 6.83381L56.2164 6.40536C56.3194 6.37547 56.3194 6.22602 56.2164 6.19612L54.7948 5.76768C54.7582 5.75772 54.7317 5.73115 54.7217 5.69461L54.2932 4.27644C54.2633 4.17348 54.1139 4.17348 54.084 4.27644L53.6555 5.69461C53.6455 5.73115 53.619 5.75772 53.5824 5.76768L52.1641 6.19612C52.0612 6.22602 52.0612 6.37547 52.1641 6.40536L53.5858 6.83381C53.6223 6.84377 53.6489 6.87034 53.6588 6.90687L54.0873 8.32837C54.1172 8.43133 54.2667 8.43133 54.2966 8.32837L54.725 6.90687C54.7317 6.87034 54.7582 6.84377 54.7948 6.83381Z" fill="white"/>
<path d="M88.4803 67.7283L89.9019 67.2999C90.0049 67.27 90.0049 67.1205 89.9019 67.0907L88.4803 66.6622C88.4438 66.6522 88.4172 66.6257 88.4073 66.5891L87.9788 65.171C87.9489 65.068 87.7994 65.068 87.7695 65.171L87.341 66.5891C87.3311 66.6257 87.3045 66.6522 87.268 66.6622L85.8497 67.0907C85.7467 67.1205 85.7467 67.27 85.8497 67.2999L87.2713 67.7283C87.3078 67.7383 87.3344 67.7649 87.3444 67.8014L87.7728 69.2229C87.8027 69.3259 87.9522 69.3259 87.9821 69.2229L88.4106 67.8014C88.4172 67.7649 88.4438 67.7383 88.4803 67.7283Z" fill="white"/>
<defs>
<filter id="filter0_d_393_15439" x="0.71875" y="4.13281" width="121.379" height="124.867" filterUnits="userSpaceOnUse" color-interpolation-filters="sRGB">
<feFlood flood-opacity="0" result="BackgroundImageFix"/>
<feColorMatrix in="SourceAlpha" type="matrix" values="0 0 0 0 0 0 0 0 0 0 0 0 0 0 0 0 0 0 127 0" result="hardAlpha"/>
<feOffset dy="11"/>
<feGaussianBlur stdDeviation="11"/>
<feColorMatrix type="matrix" values="0 0 0 0 0.397708 0 0 0 0 0.47749 0 0 0 0 0.575 0 0 0 0.27 0"/>
<feBlend mode="normal" in2="BackgroundImageFix" result="effect1_dropShadow_393_15439"/>
<feBlend mode="normal" in="SourceGraphic" in2="effect1_dropShadow_393_15439" result="shape"/>
</filter>
<linearGradient id="paint0_linear_393_15439" x1="61.5817" y1="24.5279" x2="60.9355" y2="89" gradientUnits="userSpaceOnUse">
<stop stop-color="#FBFCFE"/>
<stop offset="0.745623" stop-color="#F0F0F0"/>
</linearGradient>
</defs>
</svg>
