<svg width="134" height="132" viewBox="0 0 134 132" fill="none" xmlns="http://www.w3.org/2000/svg">
<path d="M66.7161 105C93.4008 105 115.041 83.522 115.041 57C115.041 30.478 93.4008 9 66.7161 9C40.0313 9 18.3906 30.478 18.3906 57C18.3906 83.522 40.0313 105 66.7161 105Z" fill="#EAEEF9"/>
<path d="M113.807 34.0579C115.649 34.0579 117.143 32.5645 117.143 30.7223C117.143 28.8801 115.649 27.3867 113.807 27.3867C111.965 27.3867 110.471 28.8801 110.471 30.7223C110.471 32.5645 111.965 34.0579 113.807 34.0579Z" fill="#EAEEF9"/>
<path d="M110.471 23.2371C111.729 23.2371 112.749 22.2172 112.749 20.9591C112.749 19.701 111.729 18.6812 110.471 18.6812C109.213 18.6812 108.193 19.701 108.193 20.9591C108.193 22.2172 109.213 23.2371 110.471 23.2371Z" fill="#EAEEF9"/>
<path d="M18.2138 30.7219C19.4718 30.7219 20.4917 29.7021 20.4917 28.444C20.4917 27.1859 19.4718 26.166 18.2138 26.166C16.9557 26.166 15.9358 27.1859 15.9358 28.444C15.9358 29.7021 16.9557 30.7219 18.2138 30.7219Z" fill="#EAEEF9"/>
<path d="M13.0882 80.8375C15.4246 80.8375 17.3187 78.9434 17.3187 76.607C17.3187 74.2705 15.4246 72.3765 13.0882 72.3765C10.7517 72.3765 8.85767 74.2705 8.85767 76.607C8.85767 78.9434 10.7517 80.8375 13.0882 80.8375Z" fill="#EAEEF9"/>
<g filter="url(#filter0_d_352_22482)">
<path d="M111.238 45.1163V89.1629C111.238 89.3445 111.238 89.4353 111.238 89.617C111.148 92.1599 109.967 94.3395 108.151 95.8834C106.607 97.2457 104.518 98.1538 102.248 98.1538H31.1372C29.5933 98.1538 28.1402 97.7906 26.8688 97.064C26.3239 96.7916 25.779 96.4283 25.3249 95.9742C24.3259 95.1569 23.4177 93.9762 22.9636 92.7048C22.6003 91.7966 22.3279 90.7976 22.3279 89.7986V45.1163C22.3279 45.1163 26.0514 41.9376 31.4097 37.5784C36.9495 32.9467 44.215 26.9527 50.5722 21.6853C54.2049 18.5975 53.8417 18.9607 59.4724 14.2382C63.7408 10.6055 70.0072 10.6055 74.2757 14.2382C75.3655 15.1464 76.5461 16.2362 77.6359 17.1444C79.9972 19.0515 82.5401 21.2312 85.2646 23.5016C90.9861 28.2241 97.2526 33.4916 102.157 37.5784C107.152 41.6652 110.784 44.753 111.238 45.1163Z" fill="url(#paint0_linear_352_22482)"/>
</g>
<path d="M102.157 37.4874V53.2896L86.6269 62.6439L81.9952 65.4592L72.1868 71.3624L67.5551 74.1777L65.5571 75.3584L63.65 74.1777L59.2907 71.3624L49.9365 65.4592L45.5772 62.6439L31.228 53.6529V37.5782C36.7679 32.9465 44.0333 26.9525 50.3906 21.6851L85.1738 23.4106C90.9861 28.2239 97.2526 33.4006 102.157 37.4874Z" fill="#989FB0"/>
<path d="M99.0688 24.9549V52.7452L84.9012 61.1912L80.7236 63.7341L71.7326 69.0016L67.555 71.5445L65.7386 72.5435L64.0131 71.5445L60.0171 69.0016L51.4802 63.7341L47.4843 61.1912L34.4065 53.0176V24.9549C34.4065 22.0488 36.7678 19.6875 39.7647 19.6875H93.7105C96.6167 19.5967 99.0688 22.0488 99.0688 24.9549Z" fill="white"/>
<path opacity="0.5" d="M22.6912 44.9346L65.3755 47.7499L110.603 44.9346L108.877 53.0174C108.877 53.0174 66.3745 75.1769 66.647 75.1769C66.9194 75.1769 22.782 48.9306 22.782 48.9306L22.6912 44.9346Z" fill="url(#paint1_linear_352_22482)"/>
<path d="M111.238 45.1162V89.6169C111.148 92.1598 109.967 94.3394 108.151 95.8833C106.607 97.2456 104.518 98.1538 102.248 98.1538H31.1372C29.5933 98.1538 28.1402 97.7905 26.8688 97.064C26.3239 96.7915 25.779 96.4283 25.3249 95.9742C24.3259 95.1568 23.4177 93.9762 22.9636 92.7047C22.6003 91.7965 22.3279 90.7975 22.3279 89.7986V89.7077V45.1162L62.1061 70.0003L65.5571 72.1799L66.7378 71.4534L67.8276 70.8176L111.238 45.1162Z" fill="#738DFF"/>
<path d="M108.242 95.8833C106.698 97.2456 104.609 98.1538 102.338 98.1538H31.1372C29.5933 98.1538 28.1402 97.7905 26.8688 97.064C26.3239 96.7915 25.779 96.4283 25.3249 95.9742C24.3259 95.1568 23.4177 93.9762 22.9636 92.7047C22.6003 91.7965 22.3279 90.7975 22.3279 89.7986V89.7077V45.1162L26.9596 47.9316L66.7378 71.4534L67.8276 72.0891L67.9184 72.1799L103.61 93.2496L108.242 95.8833Z" fill="url(#paint2_linear_352_22482)"/>
<path d="M67.8276 70.7265V73.8143L26.8688 97.0637C26.3239 96.7912 25.779 96.4279 25.3249 95.9739C24.3259 95.1565 23.4177 93.9759 22.9636 92.7044L62.8326 69.0918L66.2837 71.2714L66.7378 71.4531L67.8276 70.7265Z" fill="url(#paint3_linear_352_22482)"/>
<path d="M22.3279 45.1162L66.7378 71.4534" stroke="white" stroke-miterlimit="10"/>
<path d="M111.238 45.1162V89.6169C111.148 92.1598 109.967 94.3394 108.151 95.8833C106.607 97.2456 104.518 98.1538 102.247 98.1538H31.137C29.5931 98.1538 28.1401 97.7905 26.8686 97.064C26.3237 96.7915 25.7788 96.4283 25.3247 95.9742L29.8656 93.2496L65.557 72.1799L66.7376 71.4534L67.8274 70.8176L106.516 47.8407L111.238 45.1162Z" fill="url(#paint4_linear_352_22482)"/>
<path d="M111.238 45.1162L67.8274 70.7268L66.7376 71.4534L65.557 72.1799L25.3247 95.8834" stroke="white" stroke-miterlimit="10"/>
<path d="M100.522 76.2666H76.9094C76.3645 76.2666 75.9104 75.8125 75.9104 75.2675C75.9104 74.7226 76.3645 74.2686 76.9094 74.2686H100.522C101.067 74.2686 101.521 74.7226 101.521 75.2675C101.612 75.8125 101.158 76.2666 100.522 76.2666Z" fill="#CED7E2"/>
<path d="M100.522 83.0781H76.9094C76.3645 83.0781 75.9104 82.624 75.9104 82.0791C75.9104 81.5342 76.3645 81.0801 76.9094 81.0801H100.522C101.067 81.0801 101.521 81.5342 101.521 82.0791C101.612 82.624 101.158 83.0781 100.522 83.0781Z" fill="#CED7E2"/>
<path d="M105.426 97.2456L108.332 95.7925C108.241 95.8833 108.241 95.8833 108.151 95.9741C108.151 95.9741 108.151 95.9741 108.06 95.9741L105.426 97.2456Z" fill="#526DFF"/>
<path d="M64.465 54.4091C63.7611 54.4091 63.0986 54.1504 62.5604 53.5899L53.4099 44.0615C52.3748 42.9836 52.3748 41.1728 53.4099 40.0949C54.445 39.017 56.184 39.017 57.2191 40.0949L64.465 47.64L81.5238 29.9197C82.559 28.8419 84.298 28.8419 85.3331 29.9197C86.3682 30.9976 86.3682 32.8084 85.3331 33.8863L66.3696 53.5899C65.8728 54.1504 65.1689 54.4091 64.465 54.4091Z" fill="url(#paint5_linear_352_22482)"/>
<defs>
<filter id="filter0_d_352_22482" x="0.327881" y="0.513672" width="132.911" height="130.64" filterUnits="userSpaceOnUse" color-interpolation-filters="sRGB">
<feFlood flood-opacity="0" result="BackgroundImageFix"/>
<feColorMatrix in="SourceAlpha" type="matrix" values="0 0 0 0 0 0 0 0 0 0 0 0 0 0 0 0 0 0 127 0" result="hardAlpha"/>
<feOffset dy="11"/>
<feGaussianBlur stdDeviation="11"/>
<feColorMatrix type="matrix" values="0 0 0 0 0.397708 0 0 0 0 0.47749 0 0 0 0 0.575 0 0 0 0.27 0"/>
<feBlend mode="normal" in2="BackgroundImageFix" result="effect1_dropShadow_352_22482"/>
<feBlend mode="normal" in="SourceGraphic" in2="effect1_dropShadow_352_22482" result="shape"/>
</filter>
<linearGradient id="paint0_linear_352_22482" x1="66.7476" y1="12.5293" x2="66.7476" y2="77.1998" gradientUnits="userSpaceOnUse">
<stop stop-color="#B0BACC"/>
<stop offset="1" stop-color="#969EAE"/>
</linearGradient>
<linearGradient id="paint1_linear_352_22482" x1="66.6079" y1="84.7648" x2="66.6079" y2="46.9725" gradientUnits="userSpaceOnUse">
<stop stop-color="#8A90B5"/>
<stop offset="1" stop-color="#A7AED2" stop-opacity="0"/>
</linearGradient>
<linearGradient id="paint2_linear_352_22482" x1="65.2567" y1="43.8894" x2="65.2567" y2="98.7256" gradientUnits="userSpaceOnUse">
<stop stop-color="#FDFEFF"/>
<stop offset="0.9964" stop-color="#ECF0F5"/>
</linearGradient>
<linearGradient id="paint3_linear_352_22482" x1="47.9575" y1="85.6393" x2="44.4751" y2="80.5424" gradientUnits="userSpaceOnUse">
<stop stop-color="#D5D8E4"/>
<stop offset="1" stop-color="#E1E4F0" stop-opacity="0"/>
</linearGradient>
<linearGradient id="paint4_linear_352_22482" x1="68.2535" y1="43.8894" x2="68.2535" y2="98.7256" gradientUnits="userSpaceOnUse">
<stop stop-color="#FDFEFF"/>
<stop offset="0.9964" stop-color="#ECF0F5"/>
</linearGradient>
<linearGradient id="paint5_linear_352_22482" x1="69.3741" y1="29.9901" x2="69.3741" y2="44.1895" gradientUnits="userSpaceOnUse">
<stop stop-color="#B0BACC"/>
<stop offset="1" stop-color="#969EAE"/>
</linearGradient>
</defs>
</svg>
