<svg width="27" height="26" viewBox="0 0 27 26" fill="none" xmlns="http://www.w3.org/2000/svg">
<rect x="0.5" width="26" height="26" rx="4" fill="#EFF2F4"/>
<path d="M9.50985 14.3191L18.5117 11.9204C18.8476 11.8294 19.145 11.693 19.404 11.511C19.6629 11.329 19.8502 11.12 19.9656 10.8838C20.0811 10.6476 20.0933 10.4052 20.0024 10.1568C19.9184 9.92933 19.7618 9.75874 19.5326 9.64502C19.3034 9.53129 19.0383 9.4718 18.7374 9.46655C18.4364 9.46131 18.1355 9.50942 17.8346 9.6109L14.68 10.6922C14.5715 10.7272 14.4709 10.742 14.3782 10.7368C14.2854 10.7315 14.1761 10.6992 14.0501 10.6397L9.65157 8.56112C9.5046 8.49464 9.35763 8.48239 9.21066 8.52438L8.84849 8.63461C8.7855 8.6556 8.74701 8.69759 8.73302 8.76058C8.71902 8.82357 8.74001 8.8848 8.796 8.94429L11.8036 12.1356L11.9033 11.637L9.2474 12.5503L10.2762 12.5818L7.20034 11.49C7.13036 11.4655 7.063 11.4603 6.99826 11.4743C6.93353 11.4882 6.86617 11.5267 6.79618 11.5897L6.64396 11.7314C6.59147 11.7769 6.56435 11.8294 6.5626 11.8889C6.56086 11.9484 6.58098 12.0009 6.62297 12.0464L8.46532 14.1144C8.5878 14.2509 8.73739 14.334 8.9141 14.3637C9.09082 14.3935 9.2894 14.3786 9.50985 14.3191ZM7.58876 17.8359H18.9158C19.0313 17.8359 19.131 17.7939 19.215 17.7099C19.299 17.6259 19.341 17.5262 19.341 17.4107C19.341 17.2953 19.299 17.1964 19.215 17.1142C19.131 17.0319 19.0313 16.9908 18.9158 16.9908H7.58876C7.47329 16.9908 7.37443 17.0319 7.2922 17.1142C7.20997 17.1964 7.16885 17.2953 7.16885 17.4107C7.16885 17.5262 7.20997 17.6259 7.2922 17.7099C7.37443 17.7939 7.47329 17.8359 7.58876 17.8359Z" fill="#8B96A5"/>
</svg>
