<svg width="27" height="26" viewBox="0 0 27 26" fill="none" xmlns="http://www.w3.org/2000/svg">
<rect x="0.5" width="26" height="26" rx="4" fill="#EFF2F4"/>
<path d="M9.23853 11.339C9.21571 11.4417 9.22522 11.5139 9.26706 11.5558C9.30891 11.5976 9.38498 11.6147 9.49529 11.6071C9.7996 11.5843 10.1305 11.5643 10.4881 11.5472C10.8457 11.5301 11.2536 11.5168 11.712 11.5073C12.1704 11.4978 12.7039 11.493 13.3125 11.493C13.9211 11.493 14.4546 11.4978 14.913 11.5073C15.3714 11.5168 15.7803 11.5301 16.1397 11.5472C16.4992 11.5643 16.8311 11.5843 17.1354 11.6071C17.2419 11.6147 17.3161 11.5976 17.3579 11.5558C17.3998 11.5139 17.4093 11.4417 17.3865 11.339C17.3408 11.1374 17.2837 10.9243 17.2153 10.6999C17.1468 10.4755 17.0764 10.2672 17.0042 10.0751C16.9319 9.88303 16.8653 9.73563 16.8045 9.63292C16.7322 9.50359 16.6495 9.40849 16.5563 9.34763C16.463 9.28677 16.3423 9.24492 16.1939 9.2221C15.9885 9.19167 15.6481 9.1679 15.1726 9.15078C14.6971 9.13366 14.0771 9.12511 13.3125 9.12511C12.5479 9.12511 11.9279 9.13366 11.4524 9.15078C10.9769 9.1679 10.6365 9.19167 10.431 9.2221C10.2827 9.24492 10.1619 9.28677 10.0687 9.34763C9.97554 9.40849 9.8928 9.50359 9.82053 9.63292C9.75966 9.73563 9.6931 9.88303 9.62083 10.0751C9.54855 10.2672 9.47913 10.4755 9.41256 10.6999C9.34599 10.9243 9.28798 11.1374 9.23853 11.339ZM9.19859 15.2246C9.46106 15.2246 9.67978 15.1362 9.85476 14.9593C10.0297 14.7824 10.1172 14.5647 10.1172 14.306C10.1172 14.0435 10.0297 13.8248 9.85476 13.6498C9.67978 13.4749 9.46106 13.3874 9.19859 13.3874C8.93612 13.3874 8.7174 13.4749 8.54242 13.6498C8.36744 13.8248 8.27995 14.0435 8.27995 14.306C8.27995 14.5647 8.36744 14.7824 8.54242 14.9593C8.7174 15.1362 8.93612 15.2246 9.19859 15.2246ZM11.8062 14.9964H14.8245C15.0185 14.9964 15.1764 14.9355 15.2981 14.8138C15.4199 14.6921 15.4807 14.5323 15.4807 14.3345C15.4807 14.1405 15.4199 13.9827 15.2981 13.8609C15.1764 13.7392 15.0185 13.6784 14.8245 13.6784H11.8062C11.6084 13.6784 11.4486 13.7392 11.3269 13.8609C11.2051 13.9827 11.1443 14.1405 11.1443 14.3345C11.1443 14.5323 11.2051 14.6921 11.3269 14.8138C11.4486 14.9355 11.6084 14.9964 11.8062 14.9964ZM17.4264 15.2246C17.6889 15.2246 17.9076 15.1362 18.0826 14.9593C18.2575 14.7824 18.345 14.5647 18.345 14.306C18.345 14.0435 18.2575 13.8248 18.0826 13.6498C17.9076 13.4749 17.6889 13.3874 17.4264 13.3874C17.1677 13.3874 16.9509 13.4749 16.7759 13.6498C16.6009 13.8248 16.5134 14.0435 16.5134 14.306C16.5134 14.5647 16.6009 14.7824 16.7759 14.9593C16.9509 15.1362 17.1677 15.2246 17.4264 15.2246ZM13.3125 16.7652C13.7918 16.7652 14.2977 16.7595 14.8302 16.7481C15.3628 16.7367 15.8858 16.7205 16.3993 16.6996C16.9129 16.6787 17.3836 16.6549 17.8115 16.6283C18.2395 16.6017 18.5885 16.5731 18.8585 16.5427C19.2465 16.497 19.5442 16.3696 19.7515 16.1604C19.9588 15.9512 20.0625 15.664 20.0625 15.2988V14.2946C20.0625 13.9713 20.0397 13.6888 19.994 13.4473C19.9484 13.2057 19.8723 12.9794 19.7658 12.7683C19.6593 12.5572 19.5185 12.3375 19.3435 12.1093L18.8585 11.4873C18.7901 11.145 18.7073 10.8064 18.6103 10.4717C18.5133 10.1369 18.4164 9.83643 18.3194 9.57016C18.2223 9.30389 18.1415 9.10038 18.0768 8.95963C17.9247 8.6363 17.705 8.37954 17.4178 8.18935C17.1306 7.99915 16.7988 7.87933 16.4222 7.82988C16.2928 7.81086 16.077 7.79565 15.7746 7.78423C15.4721 7.77282 15.1089 7.76426 14.6848 7.75856C14.2606 7.75285 13.8032 7.75 13.3125 7.75C12.8218 7.75 12.3644 7.7538 11.9402 7.76141C11.5161 7.76902 11.1528 7.77853 10.8504 7.78994C10.548 7.80135 10.334 7.81467 10.2085 7.82988C9.82813 7.87553 9.49529 7.9944 9.21 8.1865C8.92471 8.37859 8.70599 8.6363 8.55383 8.95963C8.48536 9.10038 8.40358 9.30389 8.30848 9.57016C8.21338 9.83643 8.11639 10.1369 8.01748 10.4717C7.91858 10.8064 7.8349 11.145 7.76643 11.4873L7.28714 12.1093C7.10836 12.3375 6.96666 12.5572 6.86206 12.7683C6.75745 12.9794 6.68137 13.2057 6.63382 13.4473C6.58627 13.6888 6.5625 13.9713 6.5625 14.2946V15.2988C6.5625 15.664 6.66711 15.9512 6.87632 16.1604C7.08553 16.3696 7.38224 16.497 7.76643 16.5427C8.03651 16.5731 8.38551 16.6017 8.81345 16.6283C9.24138 16.6549 9.71211 16.6787 10.2256 16.6996C10.7392 16.7205 11.2622 16.7367 11.7947 16.7481C12.3273 16.7595 12.8332 16.7652 13.3125 16.7652ZM13.3125 16.0177C12.8294 16.0177 12.3235 16.012 11.7947 16.0006C11.266 15.9892 10.7534 15.975 10.257 15.9579C9.76062 15.9407 9.31271 15.9198 8.9133 15.895C8.51389 15.8704 8.19817 15.8428 7.96613 15.8123C7.72649 15.7819 7.55722 15.7049 7.45831 15.5812C7.35941 15.4576 7.30996 15.2874 7.30996 15.0706V14.2946C7.30996 14.0321 7.32708 13.8086 7.36132 13.6241C7.39555 13.4397 7.45356 13.2656 7.53534 13.1021C7.61713 12.9385 7.73219 12.7597 7.88055 12.5657L8.46254 11.8011C8.50058 11.5957 8.55003 11.3751 8.61089 11.1393C8.67175 10.9034 8.73832 10.6695 8.8106 10.4374C8.88287 10.2054 8.95609 9.99049 9.03027 9.79268C9.10444 9.59488 9.17196 9.42941 9.23282 9.29628C9.32412 9.09848 9.45916 8.93966 9.63794 8.81984C9.81672 8.70002 10.0354 8.62489 10.2941 8.59446C10.4158 8.57925 10.6193 8.56403 10.9046 8.54882C11.1899 8.5336 11.538 8.52124 11.9488 8.51173C12.3596 8.50222 12.8142 8.49746 13.3125 8.49746C13.8146 8.49746 14.272 8.50222 14.6848 8.51173C15.0975 8.52124 15.4455 8.5336 15.7289 8.54882C16.0123 8.56403 16.2091 8.57925 16.3194 8.59446C16.5895 8.6287 16.813 8.70572 16.9899 8.82555C17.1668 8.94537 17.3028 9.10228 17.3979 9.29628C17.4587 9.42941 17.5253 9.59488 17.5976 9.79268C17.6698 9.99049 17.7421 10.2054 17.8144 10.4374C17.8867 10.6695 17.9532 10.9034 18.0141 11.1393C18.075 11.3751 18.1244 11.5957 18.1624 11.8011L18.7502 12.5657C18.8985 12.7597 19.0135 12.9385 19.0953 13.1021C19.1771 13.2656 19.2342 13.4397 19.2665 13.6241C19.2989 13.8086 19.315 14.0321 19.315 14.2946V15.0706C19.315 15.2874 19.2665 15.4586 19.1695 15.5841C19.0725 15.7096 18.9023 15.7857 18.6588 15.8123C18.4306 15.8428 18.1168 15.8694 17.7174 15.8922C17.318 15.915 16.8691 15.9359 16.3708 15.955C15.8725 15.974 15.3599 15.9892 14.8331 16.0006C14.3062 16.012 13.7994 16.0177 13.3125 16.0177ZM7.61237 18.3343H8.27995C8.49677 18.3343 8.67746 18.262 8.82201 18.1175C8.96655 17.9729 9.03883 17.7941 9.03883 17.5812V16.2232L6.8535 15.9093V17.5812C6.8535 17.7941 6.92577 17.9729 7.07032 18.1175C7.21486 18.262 7.39555 18.3343 7.61237 18.3343ZM18.345 18.3343H19.0183C19.2313 18.3343 19.4101 18.262 19.5546 18.1175C19.6992 17.9729 19.7715 17.7941 19.7715 17.5812V15.9093L17.5919 16.2232V17.5812C17.5919 17.7941 17.6641 17.9729 17.8087 18.1175C17.9532 18.262 18.132 18.3343 18.345 18.3343Z" fill="#8B96A5"/>
</svg>
