<svg width="18" height="18" viewBox="0 0 18 18" fill="none" xmlns="http://www.w3.org/2000/svg">
<g id="Facilities">
<path id="Shape" fill-rule="evenodd" clip-rule="evenodd" d="M9.68758 4.05469C9.43709 4.05469 9.23403 4.25775 9.23403 4.50823C9.23403 4.75872 9.43709 4.96178 9.68758 4.96178H11.1328L12.8548 7.42355H10.3754L10.3682 7.4236C9.8104 7.43236 9.27746 7.65617 8.88066 8.04837L8.03126 8.90574L7.26649 7.62669C7.1846 7.48974 7.03678 7.40589 6.87722 7.40589H4.87384V7.40546H2.62795C2.41922 7.40546 2.25 7.57468 2.25 7.78342C2.25 7.99215 2.41922 8.16137 2.62795 8.16137H4.15376C4.12448 8.3304 4.06884 8.49443 3.98833 8.6473C3.86138 8.88834 3.67658 9.09408 3.4505 9.24606L2.69896 9.74514C2.57239 9.82919 2.49631 9.97103 2.49631 10.123V10.658V10.6815V11.2459C2.49631 11.3163 2.5127 11.3858 2.54419 11.4487L3.66714 13.6946C3.74396 13.8483 3.90101 13.9453 4.0728 13.9453H12.4919L12.4929 13.9453C12.9232 13.9445 13.3491 13.8585 13.7461 13.6923C14.1431 13.5262 14.5033 13.2832 14.806 12.9773C15.1088 12.6714 15.348 12.3087 15.51 11.91C15.6705 11.5149 15.752 11.0922 15.75 10.6659V10.1229C15.75 10.0299 15.7214 9.9392 15.6681 9.86299L11.7407 4.24827C11.6558 4.12695 11.5171 4.05469 11.3691 4.05469H9.68758ZM10.3792 8.33064H13.4893L14.7999 10.2044H8.80777L8.51184 9.7095L9.5199 8.69197C9.74946 8.46587 10.0571 8.33653 10.3792 8.33064ZM8.56781 11.135H14.7989C14.7698 11.283 14.7266 11.4282 14.6696 11.5686C14.5526 11.8565 14.3799 12.1184 14.1613 12.3393C13.9427 12.5601 13.6826 12.7356 13.396 12.8556C13.1094 12.9755 12.802 13.0376 12.4915 13.0383H4.3531L3.4034 11.1388V11.135H8.56457L8.56781 11.135ZM6.61997 8.31298L7.7509 10.2044H3.64702L3.9533 10.001L3.95331 10.0011L3.9552 9.99978C4.30654 9.76392 4.59372 9.44441 4.79092 9.06999C4.91632 8.83189 5.00282 8.57633 5.04809 8.31298H6.61997Z" fill="#8B96A5"/>
</g>
</svg>
