<svg width="18" height="18" viewBox="0 0 25 24" fill="none" xmlns="http://www.w3.org/2000/svg">
<path fill-rule="evenodd" clip-rule="evenodd" d="M16.2687 4.17299C16.4867 4.08336 16.7202 4.03765 16.9559 4.03847C17.2427 4.03947 17.476 3.80782 17.477 3.52106C17.478 3.2343 17.2463 3.00102 16.9596 3.00002C16.5872 2.99872 16.2182 3.07093 15.8738 3.21253C15.5294 3.35413 15.2164 3.56233 14.9526 3.82517C14.6888 4.08802 14.4795 4.40035 14.3367 4.74426C14.1939 5.08816 14.1204 5.45687 14.1204 5.82925V6.85265H8.99641V5.82923C8.99641 5.35429 9.18508 4.8988 9.52092 4.56297C9.85675 4.22713 10.3122 4.03846 10.7872 4.03846C11.0739 4.03846 11.3064 3.80599 11.3064 3.51923C11.3064 3.23247 11.0739 3 10.7872 3C10.0368 3 9.3172 3.29808 8.78661 3.82866C8.25603 4.35925 7.95795 5.07887 7.95795 5.82923V14.0984C7.56424 14.397 7.08182 14.5608 6.5831 14.5608C5.99922 14.5608 5.43767 14.3363 5.01467 13.9338C4.91814 13.842 4.79 13.7908 4.65676 13.7908H3.84906C3.5623 13.7908 3.32983 14.0232 3.32983 14.31V20.4808C3.32983 20.7675 3.5623 21 3.84906 21H20.8106C21.0974 21 21.3298 20.7675 21.3298 20.4808V14.5293C21.3609 14.4627 21.3783 14.3884 21.3783 14.31C21.3783 14.0232 21.1458 13.7908 20.8591 13.7908H20.0514C19.9181 13.7908 19.79 13.842 19.6935 13.9338C19.2705 14.3363 18.7089 14.5608 18.125 14.5608C17.5411 14.5608 16.9796 14.3363 16.5566 13.9338C16.356 13.743 16.0409 13.7431 15.8405 13.9341C15.6403 14.1248 15.409 14.2755 15.1589 14.3812V5.82924C15.1589 5.59355 15.2054 5.36017 15.2958 5.14249C15.3862 4.92482 15.5187 4.72713 15.6856 4.56076C15.8526 4.39439 16.0507 4.26261 16.2687 4.17299ZM8.99641 7.89111H14.1204V10.7135H8.99641V7.89111ZM8.99641 11.752V14.0478C9.40004 14.3779 9.90683 14.56 10.4318 14.56C11.0142 14.56 11.5742 14.3359 11.9959 13.9341C12.1964 13.743 12.5117 13.743 12.7123 13.9341C13.0961 14.2999 13.5947 14.5184 14.1204 14.5546V11.752H8.99641ZM14.6238 15.5802C14.6291 15.5803 14.6344 15.5804 14.6397 15.5804C14.6919 15.5804 14.7423 15.5727 14.7898 15.5584C15.2976 15.4785 15.7803 15.2812 16.1989 14.982C16.7578 15.3812 17.4305 15.5992 18.125 15.5992C18.9035 15.5992 19.6547 15.3253 20.2488 14.8292H20.2914V19.9615H4.3683V14.8292H4.45932C5.05342 15.3253 5.80463 15.5992 6.5831 15.5992C7.27759 15.5992 7.95036 15.3812 8.50926 14.982C9.06699 15.3807 9.73852 15.5985 10.4318 15.5985C11.1249 15.5985 11.7964 15.3807 12.3541 14.9821C12.9117 15.3807 13.5832 15.5985 14.2764 15.5985C14.393 15.5985 14.5089 15.5923 14.6238 15.5802Z" fill="#8B96A5"/>
</svg>
