<svg width="18" height="18" viewBox="0 0 25 24" fill="none" xmlns="http://www.w3.org/2000/svg">
<path fill-rule="evenodd" clip-rule="evenodd" d="M13.2708 5.40623C12.9368 5.40623 12.666 5.67698 12.666 6.01096C12.666 6.34494 12.9368 6.61569 13.2708 6.61569H15.1978L17.4937 9.89805H14.1878L14.1783 9.89812C13.4345 9.90979 12.724 10.2082 12.1949 10.7311L11.0623 11.8743L10.0427 10.1689C9.93348 9.9863 9.73638 9.87451 9.52363 9.87451H6.85246V9.87393H3.85794C3.57962 9.87393 3.354 10.0996 3.354 10.3779C3.354 10.6562 3.57962 10.8818 3.85794 10.8818H5.89235C5.85331 11.1072 5.77913 11.3259 5.67178 11.5297C5.50252 11.8511 5.2561 12.1254 4.95467 12.3281L3.95261 12.9935C3.78385 13.1056 3.68242 13.2947 3.68242 13.4973V14.2106V14.242V14.9945C3.68242 15.0884 3.70428 15.181 3.74626 15.265L5.24352 18.2595C5.34595 18.4644 5.55535 18.5938 5.7844 18.5938H17.0099L17.0112 18.5938C17.585 18.5926 18.1529 18.478 18.6822 18.2564C19.2115 18.0349 19.6918 17.7109 20.0954 17.3031C20.499 16.8952 20.818 16.4116 21.034 15.88C21.248 15.3532 21.3567 14.7896 21.354 14.2212V13.4973C21.354 13.3733 21.3158 13.2522 21.2448 13.1506L16.0083 5.66435C15.8951 5.50259 15.7101 5.40623 15.5127 5.40623H13.2708ZM14.1929 11.1075H18.3397L20.0872 13.6059H12.0977L11.7031 12.946L13.0472 11.5893C13.3533 11.2878 13.7634 11.1154 14.1929 11.1075ZM11.7778 14.8467H20.0858C20.0471 15.044 19.9895 15.2376 19.9135 15.4248C19.7575 15.8086 19.5272 16.1579 19.2357 16.4523C18.9443 16.7468 18.5975 16.9808 18.2153 17.1407C17.8333 17.3006 17.4234 17.3834 17.0093 17.3843H6.15814L4.89187 14.8518V14.8467H11.7734L11.7778 14.8467ZM9.18063 11.084L10.6885 13.6059H5.2167L5.62507 13.3347L5.62508 13.3347L5.6276 13.333C6.09605 13.0185 6.47897 12.5925 6.74189 12.0933C6.90909 11.7758 7.02443 11.4351 7.08479 11.084H9.18063Z" fill="#8B96A5"/>
</svg>
