<svg width="16" height="16" viewBox="0 0 16 16" fill="none" xmlns="http://www.w3.org/2000/svg">
<rect width="16" height="16" fill="#0D6EFD"/>
<path fill-rule="evenodd" clip-rule="evenodd" d="M12.1222 5.58452C12.3116 5.67191 12.5009 5.75929 12.666 5.89523C13.8457 6.80793 13.6806 8.64304 12.4572 9.50234C11.1415 10.5267 6.83048 13.2066 5.97604 13.4007C4.63126 13.7115 2.78643 13.3425 2.53884 11.5802C2.5 11.3132 2.49029 10.9394 2.50971 10.6723C2.63108 9.01201 3.3059 4.38538 3.36901 4.07468C3.37667 4.03733 3.38414 3.99933 3.39171 3.96084C3.46087 3.60905 3.53798 3.21681 3.83992 2.91923C4.19918 2.56969 4.87885 2.35608 5.86923 2.90467C5.88308 2.91212 5.90159 2.92192 5.92278 2.93312C5.99819 2.97299 6.10746 3.03077 6.16052 3.06488C6.27703 3.13285 6.18965 3.26393 6.06828 3.22023C5.39346 2.9872 4.58756 3.45812 4.52931 4.23003C4.51474 4.46792 4.5196 10.284 4.52931 10.4539C4.53416 10.5704 4.573 10.818 4.66524 10.9831C4.91284 11.4248 5.50512 11.7841 6.25762 11.4346C6.76251 11.2015 11.6901 8.33234 11.6901 8.33234C12.5349 7.64781 12.03 6.60888 11.6028 6.36614C10.7435 5.87581 8.40829 4.5553 8.40829 4.5553C8.00699 4.30961 7.61644 4.08233 7.27979 3.88643C7.01775 3.73395 6.78838 3.60047 6.61202 3.4921C6.51006 3.43384 6.59745 3.27849 6.70426 3.33675C6.82563 3.38044 7.28198 3.56492 7.87912 3.80766C7.97753 3.75617 8.13528 3.67312 8.32592 3.57275C8.94408 3.2473 9.90807 2.73978 10.3162 2.53571C10.6318 2.3755 11.6804 2.78815 11.428 3.10372C10.9765 3.66202 10.3988 4.33198 10.0638 4.71066C11.0008 5.09904 11.8406 5.4583 12.1222 5.58452ZM9.49106 5.55537C9.49106 5.55537 9.05413 7.28854 8.67545 8.55079C8.52981 9.02656 7.56856 8.28377 7.53457 7.8517C7.47146 7.00211 7.3598 4.27371 7.3598 4.27371L9.49106 5.55537Z" fill="white"/>
</svg>
