<svg width="151" height="48" viewBox="0 0 151 48" fill="none" xmlns="http://www.w3.org/2000/svg">
<rect x="0.963135" y="0.5" width="149.463" height="47" rx="9.5" stroke="#1A202C"/>
<path d="M38.0522 24.8267C38.065 23.8301 38.3297 22.853 38.8217 21.9862C39.3136 21.1195 40.0168 20.3912 40.8659 19.8692C40.3265 19.0989 39.6149 18.465 38.7877 18.0178C37.9605 17.5706 37.0404 17.3224 36.1005 17.293C34.0955 17.0826 32.1518 18.4928 31.1301 18.4928C30.0886 18.4928 28.5156 17.3139 26.8216 17.3488C25.7259 17.3842 24.6581 17.7028 23.7222 18.2736C22.7862 18.8444 22.0141 19.6479 21.4811 20.6058C19.1719 24.6037 20.8943 30.4793 23.1063 33.711C24.213 35.2934 25.5064 37.061 27.1988 36.9983C28.8549 36.9297 29.4735 35.9423 31.4725 35.9423C33.4531 35.9423 34.0334 36.9983 35.7601 36.9585C37.5372 36.9296 38.6568 35.369 39.7247 33.7716C40.5199 32.6441 41.1318 31.3979 41.5377 30.0792C40.5052 29.6425 39.6242 28.9116 39.0044 27.9776C38.3845 27.0435 38.0534 25.9477 38.0522 24.8267Z" fill="#1A202C"/>
<path d="M34.7906 15.1677C35.7596 14.0045 36.2369 12.5095 36.1213 11C34.641 11.1555 33.2736 11.863 32.2916 12.9815C31.8114 13.528 31.4437 14.1637 31.2094 14.8523C30.975 15.541 30.8788 16.2691 30.926 16.995C31.6664 17.0026 32.3989 16.8421 33.0684 16.5256C33.7378 16.2091 34.3266 15.7448 34.7906 15.1677Z" fill="#1A202C"/>
<path d="M59.6511 30.4086H54.6241L53.4169 33.8918H51.2876L56.0491 21.005H58.2614L63.0229 33.8918H60.8573L59.6511 30.4086ZM55.1447 28.8013H59.1295L57.1651 23.1484H57.1102L55.1447 28.8013Z" fill="#1A202C"/>
<path d="M73.3062 29.1945C73.3062 32.1142 71.7069 33.9901 69.2935 33.9901C68.6821 34.0213 68.0741 33.8837 67.5391 33.593C67.004 33.3023 66.5636 32.8702 66.2681 32.3463H66.2225V36.9999H64.2488V24.4963H66.1592V26.059H66.1955C66.5045 25.5376 66.9524 25.1077 67.4915 24.8152C68.0307 24.5228 68.6409 24.3786 69.2572 24.398C71.6975 24.398 73.3062 26.283 73.3062 29.1945ZM71.2775 29.1945C71.2775 27.2923 70.2715 26.0418 68.7365 26.0418C67.2285 26.0418 66.2142 27.3187 66.2142 29.1945C66.2142 31.0876 67.2285 32.3554 68.7365 32.3554C70.2715 32.3554 71.2775 31.114 71.2775 29.1945Z" fill="#1A202C"/>
<path d="M83.8892 29.1945C83.8892 32.1142 82.2899 33.9901 79.8765 33.9901C79.2651 34.0213 78.6571 33.8837 78.1221 33.593C77.587 33.3023 77.1466 32.8702 76.8511 32.3463H76.8055V36.9999H74.8318V24.4963H76.7422V26.059H76.7785C77.0875 25.5375 77.5354 25.1077 78.0745 24.8152C78.6136 24.5228 79.2238 24.3785 79.8402 24.398C82.2806 24.398 83.8892 26.2829 83.8892 29.1945ZM81.8605 29.1945C81.8605 27.2923 80.8545 26.0417 79.3195 26.0417C77.8115 26.0417 76.7972 27.3187 76.7972 29.1945C76.7972 31.0876 77.8115 32.3554 79.3195 32.3554C80.8545 32.3554 81.8606 31.114 81.8606 29.1945H81.8605Z" fill="#1A202C"/>
<path d="M90.8837 30.3012C91.0299 31.5792 92.3004 32.4182 94.0366 32.4182C95.7002 32.4182 96.897 31.5791 96.897 30.4269C96.897 29.4266 96.1752 28.8277 94.466 28.4172L92.7568 28.0149C90.335 27.4433 89.2108 26.3367 89.2108 24.5409C89.2108 22.3174 91.1938 20.7902 94.0096 20.7902C96.7964 20.7902 98.7069 22.3174 98.7712 24.5409H96.7788C96.6595 23.2548 95.5715 22.4785 93.9816 22.4785C92.3917 22.4785 91.3037 23.2639 91.3037 24.4071C91.3037 25.3182 91.9986 25.8543 93.6985 26.2647L95.1515 26.6133C97.8574 27.2386 98.9817 28.3007 98.9817 30.1856C98.9817 32.5966 97.0163 34.1066 93.8903 34.1066C90.9656 34.1066 88.9909 32.632 88.8633 30.3011L90.8837 30.3012Z" fill="#1A202C"/>
<path d="M103.241 22.2728V24.4963H105.07V26.0235H103.241V31.2032C103.241 32.0078 103.607 32.3828 104.411 32.3828C104.628 32.3791 104.845 32.3642 105.06 32.3382V33.8563C104.699 33.9223 104.332 33.9521 103.964 33.9455C102.017 33.9455 101.258 33.231 101.258 31.4088V26.0235H99.8601V24.4963H101.258V22.2728H103.241Z" fill="#1A202C"/>
<path d="M106.129 29.1945C106.129 26.2384 107.91 24.3807 110.689 24.3807C113.477 24.3807 115.25 26.2383 115.25 29.1945C115.25 32.1588 113.486 34.0083 110.689 34.0083C107.893 34.0083 106.129 32.1588 106.129 29.1945ZM113.239 29.1945C113.239 27.1667 112.288 25.9698 110.689 25.9698C109.09 25.9698 108.14 27.1758 108.14 29.1945C108.14 31.2305 109.09 32.4182 110.689 32.4182C112.288 32.4182 113.239 31.2305 113.239 29.1945H113.239Z" fill="#1A202C"/>
<path d="M116.878 24.4963H118.76V26.0955H118.806C118.933 25.596 119.233 25.1546 119.654 24.8455C120.075 24.5364 120.592 24.3784 121.119 24.398C121.346 24.3972 121.573 24.4214 121.795 24.47V26.2739C121.508 26.1881 121.208 26.1488 120.908 26.1573C120.621 26.1459 120.335 26.1953 120.07 26.3021C119.805 26.4089 119.566 26.5705 119.371 26.7759C119.175 26.9812 119.028 27.2255 118.938 27.4918C118.849 27.7582 118.819 28.0403 118.851 28.3189V33.8918H116.878L116.878 24.4963Z" fill="#1A202C"/>
<path d="M130.895 31.1322C130.629 32.8378 128.929 34.0083 126.754 34.0083C123.957 34.0083 122.221 32.177 122.221 29.2391C122.221 26.2921 123.966 24.3807 126.671 24.3807C129.332 24.3807 131.005 26.1664 131.005 29.0151V29.6759H124.213V29.7924C124.182 30.1382 124.226 30.4866 124.343 30.8143C124.46 31.1421 124.647 31.4418 124.892 31.6935C125.137 31.9452 125.433 32.1431 125.762 32.2742C126.091 32.4053 126.445 32.4665 126.8 32.4537C127.266 32.4964 127.734 32.3908 128.134 32.1527C128.535 31.9146 128.845 31.5567 129.02 31.1322L130.895 31.1322ZM124.223 28.328H129.03C129.048 28.0171 128.999 27.706 128.888 27.4142C128.777 27.1224 128.605 26.8561 128.384 26.6322C128.162 26.4083 127.896 26.2315 127.601 26.113C127.307 25.9945 126.99 25.9368 126.671 25.9434C126.35 25.9416 126.031 26.0019 125.734 26.121C125.436 26.2401 125.166 26.4155 124.939 26.6372C124.711 26.8589 124.53 27.1225 124.408 27.4127C124.285 27.7029 124.222 28.014 124.223 28.328V28.328Z" fill="#1A202C"/>
<path d="M54.8974 11.3051C55.3112 11.2761 55.7264 11.3372 56.1131 11.484C56.4998 11.6307 56.8483 11.8595 57.1336 12.1539C57.4188 12.4482 57.6337 12.8007 57.7626 13.186C57.8915 13.5713 57.9313 13.9797 57.8792 14.3819C57.8792 16.3601 56.785 17.4972 54.8974 17.4972H52.6084V11.3051H54.8974ZM53.5926 16.6215H54.7874C55.0831 16.6388 55.379 16.5914 55.6536 16.4829C55.9282 16.3743 56.1745 16.2073 56.3747 15.9939C56.5749 15.7806 56.7239 15.5264 56.8108 15.2497C56.8977 14.973 56.9205 14.6808 56.8773 14.3945C56.9173 14.1093 56.8923 13.819 56.804 13.5443C56.7158 13.2697 56.5664 13.0175 56.3667 12.8058C56.1669 12.5942 55.9218 12.4284 55.6488 12.3202C55.3757 12.212 55.0816 12.1642 54.7874 12.1802H53.5926V16.6215Z" fill="#1A202C"/>
<path d="M58.9909 15.1586C58.9608 14.8515 58.9968 14.5417 59.0964 14.2489C59.1961 13.9562 59.3573 13.6871 59.5696 13.4588C59.782 13.2305 60.0408 13.0481 60.3295 12.9233C60.6182 12.7985 60.9305 12.734 61.2462 12.734C61.5619 12.734 61.8741 12.7985 62.1628 12.9233C62.4515 13.0481 62.7104 13.2305 62.9227 13.4588C63.1351 13.6871 63.2962 13.9562 63.3959 14.2489C63.4956 14.5417 63.5315 14.8515 63.5014 15.1586C63.5321 15.466 63.4965 15.7763 63.3971 16.0694C63.2977 16.3626 63.1367 16.6323 62.9243 16.861C62.7119 17.0897 62.4529 17.2725 62.1638 17.3976C61.8748 17.5227 61.5623 17.5873 61.2462 17.5873C60.9301 17.5873 60.6175 17.5227 60.3285 17.3976C60.0395 17.2725 59.7805 17.0897 59.5681 16.861C59.3557 16.6323 59.1946 16.3626 59.0952 16.0694C58.9958 15.7763 58.9603 15.466 58.9909 15.1586ZM62.5307 15.1586C62.5307 14.1457 62.065 13.5533 61.2477 13.5533C60.4273 13.5533 59.9658 14.1457 59.9658 15.1586C59.9658 16.1796 60.4274 16.7674 61.2477 16.7674C62.065 16.7674 62.5307 16.1756 62.5307 15.1586H62.5307Z" fill="#1A202C"/>
<path d="M69.4972 17.4971H68.5181L67.5297 14.0555H67.4551L66.4708 17.4971H65.5011L64.1829 12.8242H65.1401L65.9968 16.3899H66.0674L67.0506 12.8242H67.956L68.9392 16.3899H69.0139L69.8664 12.8242H70.8102L69.4972 17.4971Z" fill="#1A202C"/>
<path d="M71.919 12.8242H72.8275V13.5665H72.898C73.0177 13.2999 73.2194 13.0764 73.4753 12.9271C73.7311 12.7779 74.0282 12.7104 74.3251 12.734C74.5578 12.7169 74.7915 12.7512 75.0088 12.8343C75.226 12.9174 75.4214 13.0472 75.5804 13.2141C75.7393 13.3811 75.8578 13.5808 75.9271 13.7985C75.9963 14.0163 76.0146 14.2464 75.9804 14.472V17.497H75.0366V14.7036C75.0366 13.9526 74.7026 13.5792 74.0046 13.5792C73.8467 13.572 73.6889 13.5983 73.5423 13.6562C73.3957 13.7141 73.2636 13.8024 73.1552 13.9148C73.0467 14.0273 72.9644 14.1614 72.914 14.3078C72.8635 14.4543 72.846 14.6097 72.8627 14.7634V17.4971H71.9189L71.919 12.8242Z" fill="#1A202C"/>
<path d="M77.4844 11H78.4282V17.4971H77.4844V11Z" fill="#1A202C"/>
<path d="M79.7401 15.1587C79.7101 14.8516 79.7461 14.5417 79.8458 14.249C79.9454 13.9562 80.1066 13.6871 80.319 13.4588C80.5314 13.2305 80.7902 13.0481 81.079 12.9233C81.3677 12.7985 81.6799 12.734 81.9957 12.734C82.3114 12.734 82.6236 12.7985 82.9124 12.9233C83.2011 13.0481 83.46 13.2305 83.6723 13.4588C83.8847 13.6871 84.0459 13.9562 84.1456 14.249C84.2453 14.5417 84.2812 14.8516 84.2512 15.1587C84.2818 15.4661 84.2462 15.7764 84.1468 16.0696C84.0474 16.3627 83.8863 16.6324 83.6739 16.8611C83.4614 17.0898 83.2024 17.2726 82.9134 17.3977C82.6244 17.5228 82.3118 17.5874 81.9957 17.5874C81.6796 17.5874 81.367 17.5228 81.078 17.3977C80.7889 17.2726 80.5299 17.0898 80.3175 16.8611C80.1051 16.6324 79.944 16.3627 79.8445 16.0696C79.7451 15.7764 79.7095 15.4661 79.7401 15.1587ZM83.2799 15.1587C83.2799 14.1458 82.8142 13.5534 81.997 13.5534C81.1766 13.5534 80.7151 14.1458 80.7151 15.1587C80.7151 16.1797 81.1766 16.7675 81.997 16.7675C82.8142 16.7675 83.2799 16.1756 83.2799 15.1587H83.2799Z" fill="#1A202C"/>
<path d="M85.2446 16.1756C85.2446 15.3345 85.8856 14.8495 87.0233 14.7806L88.3187 14.7077V14.3043C88.3187 13.8108 87.9848 13.5321 87.3397 13.5321C86.8128 13.5321 86.4477 13.7211 86.343 14.0515H85.4292C85.5257 13.2488 86.2984 12.734 87.3832 12.734C88.5822 12.734 89.2584 13.3172 89.2584 14.3043V17.4971H88.3498V16.8404H88.2752C88.1236 17.076 87.9108 17.268 87.6584 17.3969C87.406 17.5258 87.1232 17.587 86.8387 17.5741C86.638 17.5945 86.4351 17.5736 86.2431 17.5127C86.0511 17.4518 85.8743 17.3522 85.7241 17.2204C85.5739 17.0887 85.4537 16.9276 85.3711 16.7477C85.2885 16.5677 85.2454 16.3728 85.2446 16.1756ZM88.3187 15.7763V15.3856L87.1509 15.4586C86.4923 15.5017 86.1936 15.7206 86.1936 16.1325C86.1936 16.5531 86.567 16.7978 87.0804 16.7978C87.2308 16.8127 87.3828 16.7979 87.5272 16.7542C87.6717 16.7105 87.8057 16.6389 87.9212 16.5436C88.0367 16.4483 88.1315 16.3312 88.1998 16.1994C88.268 16.0676 88.3085 15.9237 88.3187 15.7763Z" fill="#1A202C"/>
<path d="M90.499 15.1586C90.499 13.6821 91.2759 12.7467 92.4841 12.7467C92.783 12.7332 93.0796 12.8031 93.3393 12.9483C93.599 13.0935 93.811 13.3079 93.9506 13.5665H94.0212V11H94.965V17.4971H94.0606V16.7588H93.9859C93.8355 17.0156 93.6161 17.2274 93.3514 17.3711C93.0867 17.5148 92.7867 17.585 92.4841 17.5741C91.2676 17.5741 90.499 16.6387 90.499 15.1586ZM91.474 15.1586C91.474 16.1498 91.9521 16.7462 92.7517 16.7462C93.5472 16.7462 94.0388 16.1411 94.0388 15.1627C94.0388 14.1888 93.542 13.5751 92.7517 13.5751C91.9573 13.5751 91.4739 14.1756 91.4739 15.1586H91.474Z" fill="#1A202C"/>
<path d="M98.8698 15.1586C98.8397 14.8515 98.8757 14.5417 98.9753 14.2489C99.075 13.9562 99.2362 13.6871 99.4485 13.4588C99.6609 13.2305 99.9197 13.0481 100.208 12.9233C100.497 12.7985 100.809 12.734 101.125 12.734C101.441 12.734 101.753 12.7985 102.042 12.9233C102.33 13.0481 102.589 13.2305 102.802 13.4588C103.014 13.6871 103.175 13.9562 103.275 14.2489C103.374 14.5417 103.41 14.8515 103.38 15.1586C103.411 15.466 103.375 15.7763 103.276 16.0694C103.177 16.3626 103.016 16.6323 102.803 16.861C102.591 17.0897 102.332 17.2725 102.043 17.3976C101.754 17.5227 101.441 17.5873 101.125 17.5873C100.809 17.5873 100.496 17.5227 100.207 17.3976C99.9184 17.2725 99.6594 17.0897 99.447 16.861C99.2346 16.6323 99.0735 16.3626 98.9741 16.0694C98.8747 15.7763 98.8392 15.466 98.8698 15.1586ZM102.41 15.1586C102.41 14.1457 101.944 13.5533 101.127 13.5533C100.306 13.5533 99.8447 14.1457 99.8447 15.1586C99.8447 16.1796 100.306 16.7674 101.127 16.7674C101.944 16.7674 102.41 16.1756 102.41 15.1586Z" fill="#1A202C"/>
<path d="M104.647 12.8242H105.555V13.5665H105.626C105.745 13.2999 105.947 13.0764 106.203 12.9271C106.459 12.7779 106.756 12.7104 107.053 12.734C107.286 12.7169 107.519 12.7512 107.737 12.8343C107.954 12.9174 108.149 13.0472 108.308 13.2141C108.467 13.3811 108.586 13.5808 108.655 13.7985C108.724 14.0163 108.742 14.2464 108.708 14.472V17.497H107.764V14.7036C107.764 13.9526 107.43 13.5792 106.732 13.5792C106.574 13.572 106.417 13.5983 106.27 13.6562C106.123 13.7141 105.991 13.8024 105.883 13.9148C105.775 14.0273 105.692 14.1614 105.642 14.3078C105.591 14.4543 105.574 14.6097 105.591 14.7634V17.4971H104.647V12.8242Z" fill="#1A202C"/>
<path d="M114.041 11.6608V12.8455H115.077V13.6223H114.041V16.0251C114.041 16.5146 114.248 16.7289 114.717 16.7289C114.838 16.7285 114.958 16.7214 115.077 16.7076V17.4758C114.908 17.5054 114.736 17.5212 114.564 17.5229C113.514 17.5229 113.096 17.1621 113.096 16.2612V13.6222H112.337V12.8454H113.096V11.6608H114.041Z" fill="#1A202C"/>
<path d="M116.366 11H117.302V13.5751H117.377C117.502 13.306 117.709 13.0812 117.97 12.9315C118.231 12.7817 118.533 12.7141 118.835 12.738C119.066 12.7257 119.298 12.7635 119.513 12.8486C119.727 12.9338 119.92 13.0642 120.078 13.2306C120.235 13.397 120.353 13.5952 120.423 13.8112C120.492 14.0272 120.513 14.2556 120.482 14.4801V17.4971H119.537V14.7076C119.537 13.9612 119.181 13.5832 118.514 13.5832C118.352 13.5702 118.189 13.592 118.036 13.6471C117.884 13.7021 117.745 13.7891 117.63 13.902C117.516 14.0148 117.428 14.1508 117.372 14.3003C117.317 14.4499 117.296 14.6095 117.31 14.7679V17.4971H116.366L116.366 11Z" fill="#1A202C"/>
<path d="M125.985 16.2354C125.857 16.6624 125.579 17.0319 125.2 17.279C124.821 17.5261 124.365 17.6353 123.913 17.5873C123.598 17.5954 123.284 17.5364 122.995 17.4145C122.706 17.2925 122.447 17.1105 122.237 16.881C122.026 16.6515 121.87 16.38 121.778 16.0855C121.686 15.791 121.66 15.4804 121.704 15.1753C121.662 14.8693 121.687 14.558 121.779 14.2626C121.871 13.9672 122.027 13.6945 122.236 13.463C122.445 13.2315 122.703 13.0466 122.991 12.9208C123.28 12.7951 123.592 12.7313 123.908 12.734C125.239 12.734 126.042 13.6223 126.042 15.0897V15.4115H122.665V15.4631C122.65 15.6346 122.672 15.8072 122.73 15.9699C122.787 16.1326 122.879 16.2817 122.999 16.4077C123.119 16.5338 123.264 16.6339 123.426 16.7018C123.588 16.7697 123.762 16.8037 123.939 16.8018C124.164 16.8283 124.393 16.7886 124.596 16.6877C124.798 16.5868 124.966 16.4294 125.076 16.2353L125.985 16.2354ZM122.665 14.7294H125.08C125.092 14.5726 125.07 14.415 125.016 14.2669C124.962 14.1188 124.877 13.9834 124.766 13.8694C124.655 13.7554 124.521 13.6653 124.373 13.605C124.224 13.5446 124.064 13.5153 123.903 13.5189C123.74 13.5169 123.578 13.5468 123.427 13.6069C123.276 13.6671 123.138 13.7562 123.023 13.869C122.907 13.9818 122.816 14.1161 122.755 14.2638C122.693 14.4116 122.663 14.5699 122.665 14.7294H122.665Z" fill="#1A202C"/>
</svg>
