<svg width="151" height="48" viewBox="0 0 151 48" fill="none" xmlns="http://www.w3.org/2000/svg">
<rect x="0.5" y="0.5" width="149.463" height="47" rx="9.5" stroke="#1A202C"/>
<path d="M18.4077 16.5681L25.0417 23.2247C25.4915 23.6766 25.4915 24.4084 25.0417 24.8593L18.3991 31.6331L18.4077 16.5681ZM20.7009 13.3097L28.1333 17.5925L30.7708 19.1119L28.2947 21.5966C27.8449 22.0475 27.1153 22.0475 26.6655 21.5966L18.6918 13.5992C19.1675 13.1085 20.0262 12.9105 20.7009 13.3097ZM19.868 34.9238C19.4214 34.9238 19.0243 34.7247 18.7392 34.4374L26.6655 26.4874C27.1153 26.0365 27.8449 26.0365 28.2947 26.4874L30.7353 28.9365L20.6675 34.7096C20.4275 34.8495 20.151 34.9238 19.868 34.9238ZM36.7914 25.3908L32.8013 27.7507L29.9185 24.8593C29.4687 24.4084 29.4687 23.6766 29.9185 23.2247L32.8336 20.301L36.8043 22.6393L36.8301 22.6533C37.3327 22.9266 37.6437 23.4464 37.6437 24.0113C37.6437 24.5806 37.3284 25.1024 36.7914 25.3908ZM38.044 20.6475L21.8576 11.3201C21.2561 10.9628 20.5674 10.7734 19.868 10.7734C18.0666 10.7734 16.4891 12.0012 16.1243 13.6616C16.0845 13.8209 15.992 14.2341 16.0006 14.6269L16.0016 33.414C16.0146 33.795 16.1179 34.3104 16.134 34.3728C16.5838 36.0537 18.1194 37.2266 19.868 37.2266C20.5577 37.2266 21.2346 37.0436 21.8167 36.7036L38.0095 27.4182C39.2664 26.7435 40.0476 25.4425 40.0476 24.0221C40.0476 22.6167 39.2804 21.3243 38.044 20.6475Z" fill="#1A202C"/>
<path d="M58.2465 14.0574C58.2465 14.8721 58.0054 15.5205 57.5222 16.0046C56.9729 16.5802 56.2584 16.8679 55.3796 16.8679C54.5367 16.8679 53.8212 16.5763 53.2331 15.992C52.643 15.4087 52.3494 14.6845 52.3494 13.8212C52.3494 12.9569 52.643 12.2337 53.2331 11.6494C53.8212 11.0661 54.5367 10.7735 55.3796 10.7735C55.7966 10.7735 56.1972 10.8551 56.5763 11.0185C56.9564 11.1818 57.2607 11.3986 57.4892 11.6698L56.9759 12.1831C56.5899 11.7223 56.0581 11.4909 55.3796 11.4909C54.7652 11.4909 54.2344 11.7067 53.7862 12.1384C53.338 12.571 53.1145 13.131 53.1145 13.8212C53.1145 14.5104 53.338 15.0714 53.7862 15.503C54.2344 15.9356 54.7652 16.1505 55.3796 16.1505C56.0309 16.1505 56.5734 15.9337 57.0089 15.4991C57.2908 15.2162 57.4532 14.8235 57.4969 14.318H55.3796V13.617H58.2056C58.2328 13.7697 58.2465 13.9165 58.2465 14.0574Z" fill="#1A202C"/>
<path d="M58.2465 14.0574C58.2465 14.8721 58.0054 15.5205 57.5222 16.0046C56.9729 16.5802 56.2584 16.8679 55.3796 16.8679C54.5367 16.8679 53.8212 16.5763 53.2331 15.992C52.643 15.4087 52.3494 14.6845 52.3494 13.8212C52.3494 12.9569 52.643 12.2337 53.2331 11.6494C53.8212 11.0661 54.5367 10.7735 55.3796 10.7735C55.7966 10.7735 56.1972 10.8551 56.5763 11.0185C56.9564 11.1818 57.2607 11.3986 57.4892 11.6698L56.9759 12.1831C56.5899 11.7223 56.0581 11.4909 55.3796 11.4909C54.7652 11.4909 54.2344 11.7067 53.7862 12.1384C53.338 12.571 53.1145 13.131 53.1145 13.8212C53.1145 14.5104 53.338 15.0714 53.7862 15.503C54.2344 15.9356 54.7652 16.1505 55.3796 16.1505C56.0309 16.1505 56.5734 15.9337 57.0089 15.4991C57.2908 15.2162 57.4532 14.8235 57.4969 14.318H55.3796V13.617H58.2056C58.2328 13.7697 58.2465 13.9165 58.2465 14.0574Z" fill="#1A202C"/>
<path d="M62.7275 11.6212H60.0716V13.4703H62.4669V14.1712H60.0716V16.0202H62.7275V16.7377H59.322V10.9047H62.7275V11.6212Z" fill="#1A202C"/>
<path d="M62.7275 11.6212H60.0716V13.4703H62.4669V14.1712H60.0716V16.0202H62.7275V16.7377H59.322V10.9047H62.7275V11.6212Z" fill="#1A202C"/>
<path d="M65.8879 16.7374H65.1384V11.621H63.509V10.9045H67.5172V11.621H65.8879V16.7374Z" fill="#1A202C"/>
<path d="M65.8879 16.7374H65.1384V11.621H63.509V10.9045H67.5172V11.621H65.8879V16.7374Z" fill="#1A202C"/>
<path d="M70.4175 10.9045H71.167V16.7374H70.4175V10.9045Z" fill="#1A202C"/>
<path d="M74.4912 16.7374H73.7416V11.621H72.1123V10.9045H76.1205V11.621H74.4912V16.7374Z" fill="#1A202C"/>
<path d="M74.4912 16.7374H73.7416V11.621H72.1123V10.9045H76.1205V11.621H74.4912V16.7374Z" fill="#1A202C"/>
<path d="M79.9846 15.4952C80.4162 15.9327 80.9441 16.1505 81.5692 16.1505C82.1943 16.1505 82.7222 15.9327 83.1538 15.4952C83.5854 15.0578 83.8022 14.4997 83.8022 13.8212C83.8022 13.1426 83.5854 12.5836 83.1538 12.1471C82.7222 11.7097 82.1943 11.4909 81.5692 11.4909C80.9441 11.4909 80.4162 11.7097 79.9846 12.1471C79.5539 12.5836 79.3371 13.1426 79.3371 13.8212C79.3371 14.4997 79.5539 15.0578 79.9846 15.4952ZM83.7079 15.9833C83.1343 16.5734 82.4218 16.8679 81.5692 16.8679C80.7166 16.8679 80.004 16.5734 79.4314 15.9833C78.8578 15.3941 78.572 14.6738 78.572 13.8212C78.572 12.9686 78.8578 12.2473 79.4314 11.6581C80.004 11.069 80.7166 10.7735 81.5692 10.7735C82.4169 10.7735 83.1275 11.07 83.704 11.662C84.2795 12.2541 84.5673 12.9735 84.5673 13.8212C84.5673 14.6738 84.2805 15.3941 83.7079 15.9833Z" fill="#1A202C"/>
<path d="M79.9846 15.4952C80.4162 15.9327 80.9441 16.1505 81.5692 16.1505C82.1943 16.1505 82.7222 15.9327 83.1538 15.4952C83.5854 15.0578 83.8022 14.4997 83.8022 13.8212C83.8022 13.1426 83.5854 12.5836 83.1538 12.1471C82.7222 11.7097 82.1943 11.4909 81.5692 11.4909C80.9441 11.4909 80.4162 11.7097 79.9846 12.1471C79.5539 12.5836 79.3371 13.1426 79.3371 13.8212C79.3371 14.4997 79.5539 15.0578 79.9846 15.4952ZM83.7079 15.9833C83.1343 16.5734 82.4218 16.8679 81.5692 16.8679C80.7166 16.8679 80.004 16.5734 79.4314 15.9833C78.8578 15.3941 78.572 14.6738 78.572 13.8212C78.572 12.9686 78.8578 12.2473 79.4314 11.6581C80.004 11.069 80.7166 10.7735 81.5692 10.7735C82.4169 10.7735 83.1275 11.07 83.704 11.662C84.2795 12.2541 84.5673 12.9735 84.5673 13.8212C84.5673 14.6738 84.2805 15.3941 83.7079 15.9833Z" fill="#1A202C"/>
<path d="M85.6191 16.7374V10.9045H86.531L89.3658 15.4415H89.3989L89.3658 14.3177V10.9045H90.1163V16.7374H89.3337L86.3677 11.9797H86.3356L86.3677 13.1045V16.7374H85.6191Z" fill="#1A202C"/>
<path d="M85.6191 16.7374V10.9045H86.531L89.3658 15.4415H89.3989L89.3658 14.3177V10.9045H90.1163V16.7374H89.3337L86.3677 11.9797H86.3356L86.3677 13.1045V16.7374H85.6191Z" fill="#1A202C"/>
<path d="M116.107 33.2641H117.921V21.1111H116.107V33.2641ZM132.446 25.4888L130.366 30.7578H130.304L128.146 25.4888H126.192L129.428 32.8528L127.584 36.9495H129.475L134.463 25.4888H132.446ZM122.158 31.8836C121.564 31.8836 120.735 31.5871 120.735 30.8512C120.735 29.914 121.767 29.5543 122.658 29.5543C123.455 29.5543 123.832 29.7264 124.316 29.9607C124.175 31.0864 123.205 31.8836 122.158 31.8836ZM122.377 25.2234C121.064 25.2234 119.703 25.8018 119.141 27.0841L120.751 27.7558C121.095 27.0841 121.736 26.8644 122.408 26.8644C123.346 26.8644 124.3 27.4272 124.316 28.4286V28.553C123.987 28.3654 123.284 28.0844 122.424 28.0844C120.689 28.0844 118.921 29.0381 118.921 30.8201C118.921 32.4465 120.344 33.4945 121.939 33.4945C123.159 33.4945 123.832 32.9471 124.253 32.3055H124.316V33.2436H126.067V28.5841C126.067 26.4269 124.457 25.2234 122.377 25.2234ZM111.166 26.9684H108.586V22.8027H111.166C112.522 22.8027 113.292 23.9255 113.292 24.8851C113.292 25.8271 112.522 26.9684 111.166 26.9684ZM111.12 21.1111H106.773V33.2641H108.586V28.6599H111.12C113.13 28.6599 115.106 27.2036 115.106 24.8851C115.106 22.5665 113.13 21.1111 111.12 21.1111ZM87.4175 31.8855C86.1644 31.8855 85.1155 30.8366 85.1155 29.3959C85.1155 27.9396 86.1644 26.8741 87.4175 26.8741C88.6551 26.8741 89.6253 27.9396 89.6253 29.3959C89.6253 30.8366 88.6551 31.8855 87.4175 31.8855ZM89.5009 26.1693H89.4377C89.0303 25.6842 88.2478 25.2457 87.261 25.2457C85.1932 25.2457 83.2985 27.0617 83.2985 29.3959C83.2985 31.7135 85.1932 33.5149 87.261 33.5149C88.2478 33.5149 89.0303 33.0764 89.4377 32.5748H89.5009V33.1707C89.5009 34.7524 88.6551 35.5982 87.2921 35.5982C86.18 35.5982 85.4907 34.7991 85.2088 34.1254L83.6271 34.7835C84.0811 35.8801 85.2875 37.2266 87.2921 37.2266C89.4221 37.2266 91.2235 35.9735 91.2235 32.9199V25.4956H89.5009V26.1693ZM92.4766 33.2641H94.2936V21.1102H92.4766V33.2641ZM96.9709 29.2549C96.9242 27.6576 98.2085 26.843 99.132 26.843C99.8533 26.843 100.464 27.2027 100.667 27.7199L96.9709 29.2549ZM102.609 27.8764C102.265 26.9528 101.215 25.2457 99.0698 25.2457C96.9398 25.2457 95.1705 26.9207 95.1705 29.3803C95.1705 31.6979 96.9242 33.5149 99.273 33.5149C101.169 33.5149 102.265 32.3561 102.719 31.6824L101.31 30.7423C100.84 31.4315 100.197 31.8855 99.273 31.8855C98.3494 31.8855 97.6913 31.4627 97.2684 30.6334L102.797 28.3459L102.609 27.8764ZM58.563 26.5144V28.2682H62.7598C62.6344 29.2549 62.3058 29.9753 61.8051 30.4759C61.1936 31.0874 60.238 31.7611 58.563 31.7611C55.978 31.7611 53.9579 29.6778 53.9579 27.0938C53.9579 24.5088 55.978 22.4265 58.563 22.4265C59.9571 22.4265 60.9749 22.9748 61.7264 23.6796L62.9639 22.442C61.914 21.4397 60.5209 20.6717 58.563 20.6717C55.0234 20.6717 52.0476 23.5542 52.0476 27.0938C52.0476 30.6334 55.0234 33.5149 58.563 33.5149C60.4733 33.5149 61.914 32.8878 63.0417 31.7135C64.2015 30.5547 64.5612 28.9263 64.5612 27.61C64.5612 27.2027 64.5301 26.8274 64.4669 26.5144H58.563ZM69.3335 31.8855C68.0804 31.8855 66.9994 30.8521 66.9994 29.3803C66.9994 27.8919 68.0804 26.8741 69.3335 26.8741C70.5856 26.8741 71.6667 27.8919 71.6667 29.3803C71.6667 30.8521 70.5856 31.8855 69.3335 31.8855ZM69.3335 25.2457C67.046 25.2457 65.1824 26.9839 65.1824 29.3803C65.1824 31.7611 67.046 33.5149 69.3335 33.5149C71.62 33.5149 73.4836 31.7611 73.4836 29.3803C73.4836 26.9839 71.62 25.2457 69.3335 25.2457ZM78.3872 31.8855C77.1341 31.8855 76.053 30.8521 76.053 29.3803C76.053 27.8919 77.1341 26.8741 78.3872 26.8741C79.6403 26.8741 80.7204 27.8919 80.7204 29.3803C80.7204 30.8521 79.6403 31.8855 78.3872 31.8855ZM78.3872 25.2457C76.1007 25.2457 74.237 26.9839 74.237 29.3803C74.237 31.7611 76.1007 33.5149 78.3872 33.5149C80.6737 33.5149 82.5373 31.7611 82.5373 29.3803C82.5373 26.9839 80.6737 25.2457 78.3872 25.2457Z" fill="#1A202C"/>
</svg>
