<svg width="68" height="25" viewBox="0 0 68 25" fill="none" xmlns="http://www.w3.org/2000/svg">
<g id="Sky tour_logo">
<g id="Group 658">
<g id="Group">
<path id="Vector" fill-rule="evenodd" clip-rule="evenodd" d="M39.657 10.3813C40.0404 10.3813 40.4239 10.3813 40.8073 10.3813C40.8073 11.0007 40.8073 11.62 40.8073 12.2394C41.3381 12.2394 41.869 12.2394 42.3998 12.2394C42.4274 12.6092 42.3684 12.9631 42.2229 13.3011C41.7566 13.3852 41.2848 13.4148 40.8073 13.3896C40.7925 15.5722 40.8073 17.7547 40.8515 19.9369C40.9169 20.2088 41.0791 20.4005 41.3381 20.512C41.7802 20.5661 42.2225 20.6103 42.6653 20.6447C42.6653 21.0281 42.6653 21.4116 42.6653 21.7949C42.1042 21.8096 41.5438 21.7949 40.9842 21.7507C40.4763 21.6518 40.1078 21.3717 39.8782 20.9102C39.7822 20.4733 39.7232 20.031 39.7013 19.583C39.657 17.5187 39.6423 15.4543 39.657 13.3896C39.1262 13.3896 38.5953 13.3896 38.0645 13.3896C38.1139 13.0044 38.1728 12.6211 38.2414 12.2394C38.7133 12.2394 39.1852 12.2394 39.657 12.2394C39.657 11.62 39.657 11.0007 39.657 10.3813Z" fill="#010101"/>
</g>
<g id="Group_2">
<path id="Vector_2" fill-rule="evenodd" clip-rule="evenodd" d="M47.0019 12.1511C50.236 12.0818 51.8876 13.6744 51.9566 16.9289C52.0837 18.7486 51.4349 20.2085 50.0101 21.3085C48.5211 22.0421 47.0169 22.0715 45.4978 21.397C44.4044 20.671 43.7704 19.6535 43.5955 18.3445C43.3371 16.8728 43.514 15.4571 44.1264 14.0976C44.7967 13.0182 45.7552 12.3693 47.0019 12.1511ZM47.0904 13.3898C48.6494 13.218 49.6964 13.8668 50.2313 15.3363C50.5262 16.457 50.5262 17.5777 50.2313 18.6984C49.4961 20.5483 48.2132 21.0939 46.3826 20.3352C45.5718 19.7321 45.1147 18.921 45.0112 17.9021C44.905 16.9389 44.9935 15.9952 45.2766 15.0708C45.4581 14.6538 45.7088 14.2851 46.0287 13.9649C46.356 13.7081 46.7099 13.5165 47.0904 13.3898Z" fill="#010101"/>
</g>
<g id="Group_3">
<path id="Vector_3" fill-rule="evenodd" clip-rule="evenodd" d="M53.8122 12.1509C54.284 12.1509 54.756 12.1509 55.2278 12.1509C55.1892 14.5722 55.2334 16.9906 55.3605 19.406C55.8101 20.4921 56.6212 20.8902 57.7937 20.6005C59.068 20.1628 59.6726 19.2632 59.6075 17.9019C59.6517 15.9851 59.6665 14.0681 59.6517 12.1509C60.1235 12.1509 60.5955 12.1509 61.0673 12.1509C61.0673 15.3361 61.0673 18.5212 61.0673 21.7064C60.6249 21.7064 60.1826 21.7064 59.7402 21.7064C59.7691 21.2894 59.7395 20.8765 59.6517 20.4678C58.732 21.6641 57.5227 22.1211 56.0241 21.8391C54.7479 21.5658 54.0253 20.7842 53.8564 19.4945C53.8122 17.0468 53.7974 14.599 53.8122 12.1509Z" fill="black"/>
</g>
<g id="Group_4">
<path id="Vector_4" fill-rule="evenodd" clip-rule="evenodd" d="M63.5469 12.1511C63.9893 12.1511 64.4316 12.1511 64.874 12.1511C64.8593 12.7711 64.874 13.3904 64.9183 14.0091C65.211 13.4384 65.5796 12.9223 66.0242 12.4607C66.6121 12.1895 67.2314 12.0863 67.8823 12.1511C67.8823 12.564 67.8823 12.9768 67.8823 13.3897C66.6613 13.1818 65.8207 13.6538 65.3607 14.8054C65.2495 15.2432 65.1611 15.6856 65.0952 16.1325C65.051 17.9903 65.0362 19.8483 65.051 21.7066C64.5496 21.7066 64.0483 21.7066 63.5469 21.7066C63.5469 18.5214 63.5469 15.3362 63.5469 12.1511Z" fill="#010101"/>
</g>
</g>
<path id="Vector 1" d="M5.321 23.989C8.10364 24.5568 26.8609 24.0155 27.5753 23.989C28.2898 23.9625 30.0118 24.2816 32.7162 22.1862C35.2182 20.2478 35.7063 17.8622 35.7617 16.217C35.8172 14.5718 35.7123 13.1246 34.641 11.4416C33.4234 9.52899 30.8625 8.6915 29.2366 8.76892C29.5313 7.53647 29.101 4.78541 27.0115 3.94536C24.188 2.81022 22.5295 4.30083 21.8757 5.25369C21.8757 3.9644 20.4462 2.3668 20.1239 2.04447C18.4209 0.341472 17.013 0.292717 15.1489 0.292725C13.6775 0.292731 11.2534 1.2671 8.98275 4.03447C7.4227 5.93578 7.02489 9.72184 7.04855 11.2593C5.74764 11.4485 2.18064 12.1281 0.982028 16.0283C-0.0509119 19.3895 2.53837 23.4212 5.321 23.989Z" fill="url(#paint0_radial_1159_108905)"/>
<g id="Group 657">
<g id="Group_5">
<path id="Vector_5" fill-rule="evenodd" clip-rule="evenodd" d="M19.4809 6.67672C19.5943 6.89484 19.6478 7.1355 19.6414 7.3987C19.6414 7.58585 19.6414 7.77308 19.6414 7.96024C19.6091 11.3562 19.5823 14.7521 19.5612 18.1481C19.5612 18.5225 19.5612 18.8968 19.5612 19.2712C18.759 19.2712 17.9568 19.2712 17.1546 19.2712C17.1279 19.1642 17.1011 19.0572 17.0744 18.9503C17.0359 18.5234 17.0091 18.0956 16.9941 17.6668C16.9941 17.3192 16.9941 16.9715 16.9941 16.6239C16.9941 14.6452 16.9941 12.6665 16.9941 10.6877C16.9941 9.96572 16.9941 9.24375 16.9941 8.52177C16.9941 7.98695 16.9941 7.45221 16.9941 6.91738C17.0476 6.86388 17.1011 6.81045 17.1546 6.75694C17.9258 6.68082 18.7013 6.6541 19.4809 6.67672Z" fill="#FDFEFE"/>
</g>
<g id="Group_6">
<path id="Vector_6" fill-rule="evenodd" clip-rule="evenodd" d="M24.8563 10.4469C25.3342 10.4072 25.7085 10.5677 25.9794 10.9282C26.5283 11.9734 27.1166 12.9896 27.7442 13.9766C27.8715 14.3121 28.0587 14.6063 28.3057 14.859C28.3575 14.9642 28.4377 15.0445 28.5464 15.0997C28.8958 14.7213 29.1633 14.2934 29.3486 13.8161C29.7431 13.1074 30.1175 12.3854 30.4717 11.6502C30.672 11.3566 30.8324 11.0357 30.953 10.6876C30.9896 10.6236 31.0431 10.5969 31.1134 10.6074C31.8889 10.6074 32.6643 10.6074 33.4398 10.6074C33.3328 10.955 33.2258 11.3026 33.1189 11.6502C32.2978 13.2122 31.4956 14.7898 30.7123 16.3832C30.5179 16.5844 30.3842 16.825 30.3112 17.1051C29.8478 17.8447 29.4467 18.6202 29.1079 19.4315C29.0407 19.4589 29.0139 19.5124 29.0277 19.5919C28.7735 19.9395 28.5595 20.3139 28.386 20.715C28.1988 21.0894 28.0116 21.4637 27.8244 21.8381C27.5925 22.1575 27.4054 22.5051 27.2629 22.8809C27.1957 22.9084 27.1689 22.9618 27.1827 23.0414C26.7879 23.0929 26.3868 23.1196 25.9794 23.1216C25.5742 23.121 25.1999 23.0676 24.8563 22.9612C24.8563 22.9077 24.8563 22.8542 24.8563 22.8007C24.9288 22.7438 24.9555 22.6636 24.9365 22.5601C25.1427 22.1741 25.3298 21.773 25.4981 21.3568C25.7513 21.0113 25.9653 20.637 26.1398 20.2337C26.4325 19.7226 26.6999 19.1879 26.942 18.6293C27.1795 18.2953 27.2731 17.921 27.2228 17.5062C27.1005 17.3139 26.9802 17.1267 26.8618 16.9447C26.7405 16.6478 26.5801 16.3804 26.3805 16.1425C26.2746 15.9307 26.1676 15.7168 26.0596 15.5007C25.5249 14.5513 24.9099 13.6555 24.2145 12.8134C24.1343 12.7599 24.0541 12.7599 23.9739 12.8134C23.7128 13.0338 23.499 13.2878 23.3321 13.5755C22.9159 13.9009 22.7421 14.3287 22.8107 14.859C22.8414 14.9036 22.8815 14.9303 22.931 14.9392C23.126 15.5966 23.4469 16.1849 23.8937 16.704C24.0285 16.9209 24.1622 17.1347 24.2948 17.3458C24.5996 17.8099 24.867 18.2912 25.097 18.7897C25.0855 18.9311 25.1123 19.0648 25.1772 19.1908C24.3232 19.271 23.4675 19.2977 22.6102 19.2711C22.5915 19.1458 22.538 19.0388 22.4497 18.9502C22.3149 18.7334 22.1812 18.5195 22.0486 18.3084C21.7208 17.7328 21.3732 17.1712 21.0058 16.6238C20.8615 16.2249 20.6343 15.8773 20.3239 15.581C20.2592 15.3446 20.1523 15.1308 20.003 14.9392C19.9495 14.6986 19.9495 14.4579 20.003 14.2172C20.238 13.8266 20.492 13.4523 20.7651 13.0942C21.1213 12.7109 21.4154 12.283 21.6475 11.8107C21.9759 11.388 22.3234 10.9736 22.6904 10.5673C22.8154 10.5504 22.9223 10.5103 23.0113 10.4469C23.625 10.3592 24.2401 10.3592 24.8563 10.4469Z" fill="#FCFDFD"/>
</g>
<g id="Group_7">
<path id="Vector_7" fill-rule="evenodd" clip-rule="evenodd" d="M9.93497 10.447C10.1221 10.447 10.3094 10.447 10.4965 10.447C11.2987 10.447 12.1009 10.447 12.9031 10.447C13.8657 10.447 14.8284 10.447 15.791 10.447C15.6879 10.6856 15.581 10.9263 15.4701 11.169C15.2591 11.5893 15.0052 11.9904 14.708 12.3723C14.6693 12.4483 14.656 12.5286 14.6679 12.6129C13.9727 12.6129 13.2775 12.6129 12.5822 12.6129C12.0735 12.5996 11.5654 12.6129 11.058 12.6531C10.7231 12.9985 10.7498 13.3194 11.1383 13.6157C11.4778 13.8403 11.8521 13.9606 12.2613 13.9767C12.4489 14.1002 12.6628 14.1536 12.9031 14.1371C13.4934 14.2667 14.0818 14.4405 14.6679 14.6585C15.2478 14.8106 15.6088 15.1715 15.7509 15.7415C15.791 16.3292 15.8043 16.9174 15.791 17.5063C15.7122 17.7681 15.6587 18.0355 15.6306 18.3085C15.4102 18.7162 15.0893 19.0104 14.6679 19.1909C14.4785 19.2049 14.2914 19.2316 14.1064 19.2712C12.1405 19.2977 10.1885 19.271 8.25036 19.1909C8.27708 19.084 8.30387 18.977 8.33058 18.8701C8.58239 18.5352 8.76954 18.1608 8.89212 17.747C8.97234 17.6401 9.05256 17.533 9.13278 17.4261C9.19607 17.4034 9.24958 17.3633 9.29322 17.3058C9.69343 17.2658 10.0945 17.2524 10.4965 17.2657C11.1776 17.3585 11.8728 17.3719 12.5822 17.3058C12.7072 17.2889 12.8141 17.2488 12.9031 17.1855C13.431 16.878 13.431 16.5571 12.9031 16.2228C12.1172 15.967 11.315 15.7799 10.4965 15.6613C10.0385 15.4729 9.58401 15.2724 9.13278 15.0596C8.95365 14.8193 8.7665 14.592 8.57124 14.3778C7.93077 13.1441 8.06441 12.0077 8.97234 10.9684C9.28166 10.7555 9.60254 10.5816 9.93497 10.447Z" fill="#FCFEFE"/>
</g>
</g>
</g>
<defs>
<radialGradient id="paint0_radial_1159_108905" cx="0" cy="0" r="1" gradientUnits="userSpaceOnUse" gradientTransform="translate(18.2713 12.1478) rotate(90) scale(11.8551 17.5021)">
<stop stop-color="#C0E5F2"/>
<stop offset="1" stop-color="#199CC9"/>
</radialGradient>
</defs>
</svg>
