<svg width="149" height="20" viewBox="0 0 149 20" fill="none" xmlns="http://www.w3.org/2000/svg">
<g clip-path="url(#clip0_2501_636)">
<path d="M40.0972 12.038C40.2681 12.4094 40.4272 12.7902 40.5838 13.1781C40.7381 12.7785 40.9018 12.393 41.0751 12.0168C41.2484 11.6407 41.4264 11.2764 41.6091 10.9237L46.7287 0.930797C46.8213 0.759194 46.9138 0.625202 47.0088 0.531173C47.1037 0.437144 47.2129 0.366622 47.3316 0.319607C47.4502 0.274944 47.5855 0.251436 47.735 0.251436C47.8846 0.251436 48.0626 0.251436 48.2619 0.251436H51.7937V19.9976H47.7137V8.63413C47.7137 8.08171 47.7398 7.48698 47.7944 6.84288L42.5111 17.0004C42.3473 17.3177 42.1265 17.5551 41.8465 17.7197C41.5688 17.8843 41.2507 17.9642 40.8947 17.9642H40.2634C39.9074 17.9642 39.5893 17.8843 39.3116 17.7197C39.0316 17.5575 38.8132 17.3201 38.6471 17.0004L33.3353 6.83113C33.3732 7.14612 33.3993 7.46112 33.4183 7.77377C33.4349 8.08642 33.4444 8.3732 33.4444 8.63649V19.9999H29.3645V0.253787H32.8962C33.0979 0.253787 33.2735 0.253787 33.4231 0.253787C33.5726 0.253787 33.7103 0.277294 33.8266 0.321958C33.9429 0.366622 34.052 0.437144 34.1494 0.533524C34.2443 0.627553 34.3392 0.761544 34.4294 0.933148L39.5656 10.9661C39.7531 11.3093 39.9287 11.6666 40.0972 12.038ZM65.0233 12.4541V19.967H60.3974V12.4541L53.1655 0.206772H57.2455C57.6466 0.206772 57.967 0.298451 58.2044 0.484158C58.4417 0.669866 58.634 0.90729 58.7811 1.19643L61.6008 6.94631C61.8287 7.40705 62.0375 7.83254 62.2298 8.22041C62.422 8.61063 62.5905 8.9938 62.7353 9.37226C62.873 8.98439 63.0367 8.59652 63.229 8.2063C63.4212 7.81608 63.6254 7.39765 63.8437 6.94631L66.6373 1.19643C66.6919 1.07889 66.7678 0.961356 66.8628 0.84382C66.9577 0.726283 67.0669 0.620501 67.1927 0.524121C67.3161 0.430092 67.4561 0.352518 67.6175 0.293749C67.7789 0.234981 67.9522 0.206772 68.1444 0.206772H72.2529L65.0233 12.4541ZM89.5341 2.8819H83.3868V19.9929H80.1969V2.8819H74.0354V0.239683H89.5341V2.8819ZM109.898 10.1339C109.898 11.5608 109.663 12.8772 109.196 14.0808C108.728 15.2843 108.068 16.3234 107.216 17.1908C106.364 18.0606 105.341 18.7423 104.147 19.2312C102.954 19.7202 101.627 19.967 100.17 19.967C98.7193 19.967 97.3973 19.7225 96.2035 19.2312C95.0096 18.7399 93.9843 18.0606 93.1299 17.1908C92.273 16.321 91.6108 15.2843 91.1433 14.0808C90.6733 12.8748 90.4407 11.5608 90.4407 10.1339C90.4407 8.70701 90.6733 7.3906 91.1433 6.18703C91.6108 4.9811 92.273 3.94208 93.1299 3.06996C93.9843 2.19549 95.0096 1.51143 96.2035 1.02248C97.3973 0.533524 98.7193 0.286697 100.17 0.286697C101.629 0.286697 102.954 0.531173 104.147 1.02248C105.341 1.51378 106.364 2.19549 107.216 3.06996C108.068 3.94443 108.728 4.98345 109.196 6.18703C109.666 7.3906 109.898 8.70701 109.898 10.1339ZM106.67 10.1339C106.67 9.02671 106.521 8.03235 106.219 7.14847C105.918 6.2646 105.486 5.51472 104.921 4.90118C104.356 4.28529 103.675 3.81279 102.873 3.48134C102.071 3.14989 101.171 2.98533 100.172 2.98533C99.1798 2.98533 98.285 3.14989 97.4828 3.48134C96.6805 3.81279 95.997 4.28294 95.4297 4.90118C94.8625 5.51707 94.4258 6.2646 94.1196 7.14847C93.811 8.03235 93.6591 9.02671 93.6591 10.1339C93.6591 11.2481 93.811 12.2496 94.1196 13.1311C94.4258 14.0126 94.8625 14.7601 95.4297 15.3713C95.997 15.9825 96.6805 16.4503 97.4828 16.7771C98.285 17.1038 99.1798 17.266 100.172 17.266C101.171 17.266 102.073 17.1038 102.873 16.7771C103.675 16.4503 104.356 15.9825 104.921 15.3713C105.484 14.7601 105.916 14.0126 106.219 13.1311C106.519 12.2496 106.67 11.2481 106.67 10.1339ZM121.31 17.2049C122.067 17.2049 122.746 17.078 123.344 16.8241C123.942 16.5702 124.448 16.2176 124.863 15.7662C125.278 15.3149 125.596 14.7695 125.815 14.1325C126.033 13.4954 126.142 12.7879 126.142 12.0098V0.239683H129.332V12.0098C129.332 13.1569 129.147 14.2195 128.779 15.1974C128.409 16.1729 127.877 17.0168 127.184 17.7268C126.491 18.4367 125.649 18.9914 124.657 19.3934C123.664 19.7954 122.551 19.9976 121.308 19.9976C120.066 19.9976 118.951 19.7954 117.961 19.3934C116.969 18.9914 116.129 18.4343 115.433 17.7268C114.74 17.0168 114.209 16.1729 113.838 15.1974C113.468 14.2195 113.283 13.1593 113.283 12.0098V0.239683H116.487V11.998C116.487 12.7738 116.596 13.4837 116.815 14.1207C117.035 14.7578 117.349 15.3032 117.759 15.7615C118.17 16.2199 118.675 16.5725 119.274 16.8264C119.876 17.078 120.553 17.2049 121.31 17.2049ZM148.965 19.9905H146.07C145.498 19.9905 145.08 19.7719 144.821 19.3323L140.167 12.6797C140.01 12.4517 139.84 12.2872 139.654 12.1861C139.472 12.085 139.194 12.0356 138.824 12.0356H137.025V19.9905H133.782V0.239683H139.654C140.967 0.239683 142.094 0.371323 143.041 0.636956C143.988 0.902588 144.764 1.28106 145.374 1.76766C145.984 2.25661 146.435 2.84429 146.725 3.5307C147.017 4.21477 147.162 4.97875 147.162 5.82031C147.162 6.50437 147.06 7.14612 146.851 7.74086C146.644 8.33559 146.343 8.87391 145.949 9.36051C145.555 9.84476 145.073 10.2655 144.501 10.6229C143.929 10.9802 143.279 11.2575 142.548 11.4597C142.944 11.6971 143.286 12.0333 143.573 12.4611L148.965 19.9905ZM139.576 9.70372C140.314 9.70372 140.96 9.61439 141.515 9.43573C142.071 9.25708 142.529 9.0079 142.899 8.6882C143.267 8.36615 143.545 7.98533 143.73 7.54105C143.915 7.09911 144.005 6.60781 144.005 6.06714C144.005 4.98815 143.644 4.1654 142.925 3.59887C142.206 3.03235 141.116 2.74791 139.657 2.74791H137.027V9.70372H139.576ZM5.97163 4.26883C5.33317 3.61298 4.22951 2.45172 3.36557 1.48087C2.88138 0.933148 4.75642 0.108042 5.34266 0.371323C6.0998 0.707478 7.89413 1.54669 9.04289 2.085C9.39653 2.25191 9.69084 2.38825 9.8736 2.47288C10.9417 1.98863 11.7558 1.62191 11.9741 1.53493C12.164 1.4221 12.3349 1.69478 12.1545 1.80762C11.8436 2.01683 11.4353 2.27541 10.9725 2.56925C10.3744 2.94772 9.68372 3.38731 8.97406 3.86216C8.97406 3.86216 4.82999 6.41975 3.30623 7.36944C2.5491 7.83959 1.71127 9.74838 3.30149 10.9167C3.30149 10.9167 12.4844 15.7028 13.4219 16.0836C14.8175 16.6548 15.8666 15.9614 16.2819 15.148C16.4362 14.8424 16.4884 14.3958 16.4884 14.1842C16.4932 13.8786 16.047 3.40376 16.0019 2.97593C15.8357 1.59135 14.3333 0.803858 13.1252 1.27635C12.9069 1.36333 12.7384 1.13531 12.9449 1.00367C13.0398 0.937849 13.232 0.825014 13.3673 0.74744C13.4053 0.726283 13.4385 0.707478 13.4623 0.691023C15.2186 -0.373858 16.4718 -0.0424047 17.153 0.559382C17.725 1.07184 17.8959 1.77236 18.0502 2.4C18.0668 2.46817 18.0834 2.53634 18.1 2.60216C18.24 3.15694 19.8279 11.4362 20.1792 14.4169C20.2361 14.8965 20.248 15.5688 20.1982 16.053C19.8849 19.2453 16.5596 20.054 14.0912 19.5979C12.5129 19.3182 4.46686 14.826 1.99371 13.0841C-0.299053 11.6313 -0.740516 8.34029 1.33151 6.60546C1.62108 6.34688 1.95811 6.17527 2.29514 6.00367C2.79831 5.75214 4.29834 5.04222 5.97163 4.26883ZM7.07766 5.74509C7.07766 5.74509 8.00806 8.8316 8.79367 11.0765C9.0951 11.9228 10.785 10.51 10.8135 9.72957C10.861 8.19455 10.8515 3.27212 10.8515 3.27212L7.07766 5.74509Z" fill="black"/>
</g>
<defs>
<clipPath id="clip0_2501_636">
<rect width="148.965" height="20" fill="white"/>
</clipPath>
</defs>
</svg>
