<svg width="299" height="40" viewBox="0 0 299 40" fill="none" xmlns="http://www.w3.org/2000/svg">
<g clip-path="url(#clip0_2106_1583)">
<path d="M80.8222 24.076C81.1639 24.8189 81.482 25.5805 81.7953 26.3562C82.1038 25.557 82.4314 24.786 82.7779 24.0337C83.1244 23.2815 83.4804 22.5528 83.8459 21.8475L94.0851 1.86165C94.2702 1.51844 94.4553 1.25046 94.6452 1.0624C94.8351 0.874339 95.0534 0.733296 95.2908 0.639266C95.5281 0.549939 95.7987 0.502924 96.0978 0.502924C96.3968 0.502924 96.7528 0.502924 97.1516 0.502924H104.215V39.9952H96.055V17.2683C96.055 16.1635 96.1072 14.974 96.2164 13.6858L85.6498 34.0008C85.3222 34.6355 84.8808 35.1103 84.3206 35.4395C83.7653 35.7686 83.1292 35.9284 82.4171 35.9284H81.1544C80.4424 35.9284 79.8063 35.7686 79.2509 35.4395C78.6908 35.115 78.2541 34.6402 77.9218 34.0008L67.2982 13.6623C67.3741 14.2923 67.4263 14.9223 67.4643 15.5476C67.4976 16.1729 67.5165 16.7465 67.5165 17.273V39.9999H59.3566V0.507626H66.42C66.8235 0.507626 67.1748 0.507626 67.4738 0.507626C67.7729 0.507626 68.0482 0.55464 68.2808 0.643968C68.5134 0.733296 68.7318 0.874339 68.9264 1.0671C69.1163 1.25516 69.3061 1.52314 69.4865 1.86635L79.7589 21.9322C80.1339 22.6186 80.4851 23.3332 80.8222 24.076ZM130.674 24.9082V39.934H121.423V24.9082L106.959 0.413596H115.119C115.921 0.413596 116.562 0.596953 117.036 0.968368C117.511 1.33978 117.896 1.81463 118.19 2.39291L123.829 13.8927C124.285 14.8142 124.703 15.6651 125.087 16.4409C125.472 17.2213 125.809 17.9876 126.098 18.7446C126.374 17.9688 126.701 17.1931 127.086 16.4127C127.47 15.6322 127.878 14.7954 128.315 13.8927L133.902 2.39291C134.011 2.15784 134.163 1.92276 134.353 1.68769C134.543 1.45262 134.761 1.24105 135.013 1.04829C135.26 0.860235 135.54 0.705087 135.863 0.58755C136.186 0.470014 136.532 0.413596 136.917 0.413596H145.133L130.674 24.9082ZM179.696 5.76385H167.401V39.9858H161.021V5.76385H148.698V0.479417H179.696V5.76385ZM220.424 20.2679C220.424 23.1216 219.954 25.7545 219.019 28.1616C218.084 30.5687 216.765 32.6468 215.06 34.3816C213.356 36.1212 211.31 37.4846 208.923 38.4625C206.535 39.4404 203.881 39.934 200.967 39.934C198.066 39.934 195.422 39.4451 193.035 38.4625C190.647 37.4799 188.596 36.1212 186.887 34.3816C185.174 32.6421 183.849 30.5687 182.914 28.1616C181.974 25.7498 181.509 23.1216 181.509 20.2679C181.509 17.4141 181.974 14.7812 182.914 12.3741C183.849 9.96226 185.174 7.88421 186.887 6.13997C188.596 4.39103 190.647 3.02291 193.035 2.045C195.422 1.0671 198.066 0.573446 200.967 0.573446C203.886 0.573446 206.535 1.0624 208.923 2.045C211.31 3.02761 213.356 4.39103 215.06 6.13997C216.765 7.88891 218.084 9.96696 219.019 12.3741C219.959 14.7812 220.424 17.4141 220.424 20.2679ZM213.969 20.2679C213.969 18.0535 213.67 16.0647 213.067 14.297C212.464 12.5293 211.6 11.0295 210.47 9.80241C209.34 8.57063 207.978 7.62563 206.373 6.96273C204.769 6.29982 202.97 5.97072 200.971 5.97072C198.987 5.97072 197.198 6.29982 195.593 6.96273C193.989 7.62563 192.622 8.56592 191.487 9.80241C190.353 11.0342 189.479 12.5293 188.867 14.297C188.25 16.0647 187.946 18.0535 187.946 20.2679C187.946 22.4963 188.25 24.4992 188.867 26.2622C189.479 28.0253 190.353 29.5203 191.487 30.7427C192.622 31.9651 193.989 32.9007 195.593 33.5542C197.198 34.2077 198.987 34.5321 200.971 34.5321C202.97 34.5321 204.774 34.2077 206.373 33.5542C207.978 32.9007 209.34 31.9651 210.47 30.7427C211.595 29.5203 212.459 28.0253 213.067 26.2622C213.665 24.4992 213.969 22.4963 213.969 20.2679ZM243.248 34.4098C244.762 34.4098 246.119 34.156 247.316 33.6482C248.512 33.1404 249.523 32.4352 250.354 31.5325C251.184 30.6299 251.821 29.5391 252.257 28.265C252.694 26.9909 252.912 25.5758 252.912 24.0196V0.479417H259.292V24.0196C259.292 26.3139 258.922 28.439 258.186 30.3948C257.446 32.3459 256.382 34.0337 254.996 35.4536C253.61 36.8734 251.925 37.9829 249.941 38.7869C247.957 39.5908 245.73 39.9952 243.243 39.9952C240.76 39.9952 238.529 39.5908 236.55 38.7869C234.565 37.9829 232.885 36.8687 231.494 35.4536C230.108 34.0337 229.045 32.3459 228.304 30.3948C227.564 28.439 227.193 26.3186 227.193 24.0196V0.479417H233.602V23.9961C233.602 25.5476 233.82 26.9674 234.257 28.2415C234.698 29.5156 235.325 30.6064 236.146 31.5231C236.967 32.4399 237.978 33.1451 239.175 33.6529C240.38 34.156 241.733 34.4098 243.248 34.4098ZM298.559 39.9811H292.767C291.623 39.9811 290.788 39.5438 290.271 38.6647L280.962 25.3595C280.649 24.9035 280.307 24.5744 279.937 24.3722C279.571 24.1701 279.016 24.0713 278.275 24.0713H274.677V39.9811H268.193V0.479417H279.937C282.562 0.479417 284.816 0.742698 286.71 1.27396C288.604 1.80523 290.157 2.56216 291.377 3.53536C292.597 4.51327 293.498 5.68863 294.078 7.06146C294.661 8.42958 294.951 9.95755 294.951 11.6407C294.951 13.0088 294.747 14.2923 294.329 15.4818C293.916 16.6712 293.313 17.7479 292.525 18.7211C291.737 19.6896 290.774 20.5311 289.63 21.2458C288.486 21.9604 287.185 22.5151 285.723 22.9195C286.516 23.3943 287.199 24.0666 287.774 24.9223L298.559 39.9811ZM279.78 19.4075C281.256 19.4075 282.547 19.2288 283.658 18.8715C284.769 18.5142 285.685 18.0159 286.426 17.3765C287.161 16.7324 287.717 15.9707 288.087 15.0821C288.457 14.1983 288.638 13.2157 288.638 12.1343C288.638 9.97636 287.916 8.33085 286.478 7.1978C285.039 6.06475 282.861 5.49587 279.941 5.49587H274.682V19.4075H279.78ZM12.5709 8.53771C11.294 7.22601 9.08669 4.90349 7.35881 2.96179C6.39044 1.86635 10.1405 0.216135 11.313 0.742698C12.8273 1.41501 16.4159 3.09343 18.7134 4.17006C19.4207 4.50386 20.0094 4.77655 20.3749 4.9458C22.511 3.9773 24.1392 3.24387 24.5759 3.06992C24.9556 2.84425 25.2974 3.38962 24.9367 3.61529C24.3148 4.03372 23.4983 4.55088 22.5727 5.13856C21.3765 5.8955 19.9951 6.77467 18.5758 7.72436C18.5758 7.72436 10.2877 12.8395 7.24014 14.7389C5.72587 15.6792 4.05021 19.4968 7.23064 21.8334C7.23064 21.8334 25.5965 31.4056 27.4715 32.1672C30.2627 33.3097 32.3608 31.9228 33.1916 30.2961C33.5001 29.6849 33.6045 28.7916 33.6045 28.3685C33.614 27.7573 32.7216 6.80758 32.6314 5.95191C32.2991 3.18275 29.2943 1.60777 26.8782 2.55276C26.4414 2.72671 26.1044 2.27067 26.5174 2.00739C26.7073 1.87575 27.0918 1.65008 27.3623 1.49493C27.4383 1.45262 27.5047 1.41501 27.5522 1.3821C31.0649 -0.747664 33.5713 -0.0847579 34.9337 1.11882C36.0777 2.14373 36.4195 3.54477 36.728 4.80006C36.7612 4.9364 36.7945 5.07274 36.8277 5.20438C37.1078 6.31393 40.2835 22.8725 40.986 28.8339C41.0999 29.793 41.1237 31.1376 41.024 32.1061C40.3974 38.4907 33.7469 40.108 28.8101 39.1959C25.6534 38.6364 9.56138 29.652 4.61509 26.1682C0.0295639 23.2627 -0.853363 16.6806 3.2907 13.211C3.86982 12.6938 4.54389 12.3506 5.21795 12.0074C6.2243 11.5043 9.22435 10.0845 12.5709 8.53771ZM14.783 11.4902C14.783 11.4902 16.6438 17.6632 18.215 22.1531C18.8179 23.8457 22.1977 21.0201 22.2547 19.4592C22.3496 16.3891 22.3306 6.5443 22.3306 6.5443L14.783 11.4902Z" fill="black"/>
</g>
<defs>
<clipPath id="clip0_2106_1583">
<rect width="297.931" height="40" fill="white" transform="translate(0.627686)"/>
</clipPath>
</defs>
</svg>
