<svg width="1124" height="240" viewBox="0 0 1124 240" fill="none" xmlns="http://www.w3.org/2000/svg">
<path d="M305.815 99.6571C304.634 96.7343 303.436 93.8647 302.148 91.066C300.879 88.2673 299.555 85.5748 298.142 82.9886L259.439 7.38705C258.76 6.09396 258.044 5.08428 257.329 4.37574C256.596 3.64948 255.773 3.11808 254.897 2.78152C254.02 2.44496 252.983 2.26782 251.856 2.26782H221.273V151.062H252.017V65.4344C252.017 63.4505 251.946 61.2895 251.82 58.9336C251.677 56.5777 251.481 54.204 251.194 51.8304L291.221 128.459C292.473 130.868 294.118 132.657 296.229 133.88C298.321 135.12 300.718 135.722 303.4 135.722H308.158C310.841 135.722 313.237 135.12 315.33 133.88C317.44 132.64 319.103 130.851 320.337 128.459L360.149 51.919C359.738 56.7725 359.541 61.254 359.541 65.4167V151.044H390.285V2.25011H359.702C358.575 2.25011 357.556 2.42725 356.662 2.7638C355.767 3.11808 354.945 3.64948 354.229 4.35803C353.514 5.06657 352.816 6.07624 352.119 7.36934L313.541 82.6698C312.164 85.3268 310.823 88.0724 309.517 90.9066C308.211 93.7407 306.977 96.6458 305.815 99.6571Z" fill="black"/>
<path d="M489.975 150.814V94.2013L544.453 1.91355H513.494C512.045 1.91355 510.74 2.12612 509.524 2.56895C508.307 3.01179 507.252 3.59634 506.322 4.30489C505.374 5.03114 504.552 5.82825 503.836 6.71393C503.121 7.59961 502.549 8.48529 502.137 9.37097L481.087 52.6984C479.441 56.0994 477.903 59.2524 476.454 62.1929C475.006 65.1333 473.772 68.0561 472.734 70.9788C471.643 68.1269 470.374 65.2396 468.925 62.2991C468.135 60.7058 467.308 59.0282 466.441 57.2693C465.718 55.8017 464.966 54.2775 464.185 52.6984L442.938 9.37097C441.829 7.1922 440.381 5.40313 438.592 4.00375C436.804 2.60438 434.389 1.91355 431.367 1.91355H400.623L455.118 94.2013V150.814H489.975Z" fill="black"/>
<path d="M628.351 22.0716H674.673V2.16154H557.884V22.0716H604.313V151.009H628.351V22.0716Z" fill="black"/>
<path fill-rule="evenodd" clip-rule="evenodd" d="M822.831 106.459C826.354 97.3897 828.125 87.4701 828.125 76.718C828.125 65.9659 826.372 56.0462 822.831 46.9769C819.307 37.9075 814.336 30.0781 807.915 23.4887C801.494 16.8992 793.786 11.7623 784.79 8.06016C775.794 4.35803 765.814 2.51581 754.815 2.51581C743.887 2.51581 733.925 4.37574 724.929 8.06016C715.933 11.7446 708.207 16.8992 701.768 23.4887C695.312 30.0604 690.322 37.8898 686.798 46.9769C683.257 56.0462 681.505 65.9659 681.505 76.718C681.505 87.4701 683.257 97.372 686.798 106.459C690.322 115.528 695.312 123.34 701.768 129.894C708.207 136.448 715.933 141.567 724.929 145.27C733.925 148.972 743.887 150.814 754.815 150.814C765.796 150.814 775.794 148.954 784.79 145.27C793.786 141.585 801.494 136.448 807.915 129.894C814.336 123.358 819.307 115.528 822.831 106.459ZM800.403 54.2218C802.675 60.8821 803.801 68.3749 803.801 76.718C803.801 85.1142 802.657 92.6602 800.403 99.3028C798.114 105.945 794.859 111.578 790.62 116.184C786.364 120.789 781.231 124.314 775.185 126.777C769.158 129.239 762.362 130.461 754.833 130.461C747.357 130.461 740.614 129.239 734.569 126.777C728.524 124.314 723.373 120.789 719.099 116.184C714.824 111.578 711.533 105.945 709.226 99.3028C706.901 92.6602 705.756 85.1142 705.756 76.718C705.756 68.3749 706.901 60.8821 709.226 54.2218C711.533 47.5614 714.824 41.9285 719.099 37.2876C723.373 32.6289 728.524 29.0862 734.569 26.5886C740.614 24.091 747.357 22.851 754.833 22.851C762.362 22.851 769.14 24.091 775.185 26.5886C781.231 29.0862 786.364 32.6466 790.62 37.2876C794.877 41.9108 798.132 47.5614 800.403 54.2218Z" fill="black"/>
<path d="M929.443 127.131C924.936 129.044 919.82 130 914.115 130C908.41 130 903.313 129.044 898.77 127.149C894.263 125.235 890.454 122.578 887.359 119.124C884.265 115.67 881.905 111.561 880.241 106.76C878.596 101.96 877.773 96.6104 877.773 90.7649V2.16154H853.629V90.8534C853.629 99.5154 855.024 107.504 857.814 114.873C860.604 122.224 864.61 128.583 869.832 133.933C875.073 139.265 881.404 143.463 888.88 146.492C896.338 149.521 904.744 151.044 914.097 151.044C923.469 151.044 931.857 149.521 939.333 146.492C946.809 143.463 953.158 139.282 958.38 133.933C963.603 128.583 967.609 122.224 970.399 114.873C973.171 107.504 974.566 99.4977 974.566 90.8534V2.16154H950.529V90.8534C950.529 96.7166 949.706 102.048 948.061 106.849C946.415 111.649 944.019 115.759 940.889 119.16C937.759 122.561 933.95 125.218 929.443 127.131Z" fill="black"/>
<path fill-rule="evenodd" clip-rule="evenodd" d="M1100.69 150.991H1122.51L1081.88 94.2544C1079.71 91.0306 1077.14 88.4975 1074.15 86.7085C1079.66 85.1851 1084.56 83.0949 1088.87 80.4024C1093.18 77.71 1096.81 74.5392 1099.78 70.8902C1102.75 67.2235 1105.02 63.1671 1106.57 58.6856C1108.15 54.204 1108.92 49.3682 1108.92 44.2136C1108.92 37.8721 1107.83 32.1152 1105.63 26.9606C1103.44 21.7882 1100.05 17.3598 1095.45 13.6754C1090.85 10.0087 1085.01 7.15677 1077.87 5.15514C1070.73 3.1535 1062.24 2.16154 1052.35 2.16154H1008.1V150.991H1032.53V91.0483H1046.09C1048.88 91.0483 1050.97 91.4203 1052.35 92.182C1053.74 92.9436 1055.03 94.1836 1056.21 95.9018L1091.28 146.031C1093.23 149.344 1096.38 150.991 1100.69 150.991ZM1066.37 71.4571C1062.18 72.8033 1057.32 73.4764 1051.76 73.4764H1032.55V21.0619H1052.37C1063.36 21.0619 1071.57 23.2053 1076.99 27.4742C1082.41 31.7432 1085.13 37.943 1085.13 46.0735C1085.13 50.1476 1084.45 53.8498 1083.06 57.1799C1081.66 60.5278 1079.57 63.3974 1076.8 65.8241C1074.01 68.2332 1070.55 70.1108 1066.37 71.4571Z" fill="black"/>
<path d="M25.3622 11.5143C31.8722 18.83 40.1887 27.5805 44.9997 32.5226C32.3909 38.3504 21.0877 43.6999 17.2961 45.5952C14.7564 46.8883 12.2168 48.1814 10.0348 50.1299C-5.57868 63.2025 -2.25209 88.0015 15.0247 98.9485C33.6607 112.074 94.2905 145.925 106.184 148.033C124.784 151.469 149.841 145.376 152.202 121.321C152.577 117.672 152.488 112.606 152.059 108.992C149.412 86.5313 137.447 24.1441 136.391 19.9637C136.266 19.4677 136.141 18.954 136.016 18.4403L136.006 18.3994C134.846 13.6803 133.553 8.42101 129.255 4.57059C124.122 0.0359135 114.679 -2.4617 101.444 5.56255C101.266 5.68654 101.015 5.82825 100.729 5.98768C99.7096 6.57222 98.2609 7.42248 97.5455 7.91846C95.9895 8.91042 97.2594 10.6286 98.9048 9.97323C108.008 6.4128 119.329 12.3469 120.581 22.7801C120.921 26.004 124.283 104.936 124.248 107.238C124.248 108.833 123.854 112.198 122.692 114.501C119.562 120.63 111.657 125.855 101.14 121.551C94.0758 118.681 24.8793 82.6166 24.8793 82.6166C12.8964 73.813 19.2098 59.4295 24.915 55.8868C36.3971 48.7305 67.6241 29.4582 67.6241 29.4582C72.9717 25.88 78.1762 22.5676 82.6832 19.7157L83.1681 19.4079C86.4559 17.3207 89.3561 15.4795 91.5899 13.9765C92.9491 13.1262 91.6614 11.0715 90.2306 11.9217C88.5852 12.5771 82.4507 15.3404 74.4025 18.9894C73.0253 18.3518 70.8076 17.3244 68.1428 16.0667C59.4865 12.0103 45.9655 5.68654 40.2603 3.1535C35.8427 1.16958 21.7136 7.38705 25.3622 11.5143Z" fill="black"/>
<path d="M66.2649 83.8211C60.345 66.9047 53.3341 43.6467 53.3341 43.6467L81.7711 25.0121C81.7711 25.0121 81.8426 62.1043 81.4849 73.6713C81.2703 79.5522 68.5362 90.198 66.2649 83.8211Z" fill="black"/>
<path d="M776.588 201.5L766.358 224.827H766.357C766.299 224.959 766.168 225.044 766.024 225.044H761.151C760.891 225.044 760.715 224.776 760.82 224.536L772.518 197.864C774.073 194.318 779.103 194.318 780.658 197.864L792.356 224.536C792.462 224.776 792.285 225.044 792.025 225.044H787.151C787.007 225.044 786.876 224.959 786.818 224.827L776.588 201.5Z" fill="black"/>
<path fill-rule="evenodd" clip-rule="evenodd" d="M752.676 239.552H800.502C803.542 239.552 806.015 237.079 806.015 234.038V186.212C806.015 183.171 803.543 180.698 800.502 180.698H752.676C749.636 180.698 747.163 183.171 747.163 186.212V234.038C747.163 237.079 749.635 239.552 752.676 239.552ZM748.974 186.212C748.974 184.17 750.634 182.51 752.676 182.51H800.502C802.544 182.51 804.205 184.17 804.205 186.212V234.038C804.205 236.079 802.542 237.739 800.502 237.739H752.676C750.634 237.739 748.974 236.079 748.974 234.038V186.212Z" fill="black"/>
<path d="M1088.69 195.2H1083.87C1083.67 195.2 1083.51 195.362 1083.51 195.562V215.795L1069.2 196.647C1068.52 195.736 1067.45 195.199 1066.31 195.199C1064.32 195.199 1062.7 196.814 1062.7 198.806V224.686C1062.7 224.886 1062.86 225.049 1063.06 225.049H1067.92C1068.12 225.049 1068.29 224.886 1068.29 224.686V204.495L1082.49 223.512C1083.19 224.45 1084.28 225.05 1085.45 225.049C1087.44 225.046 1089.05 223.433 1089.05 221.441V195.562C1089.05 195.361 1088.89 195.2 1088.69 195.2Z" fill="black"/>
<path fill-rule="evenodd" clip-rule="evenodd" d="M1018.1 209.272C1019.72 208.874 1020.99 208.085 1021.91 206.905C1022.84 205.726 1023.3 204.312 1023.3 202.663C1023.3 200.361 1022.38 198.541 1020.55 197.205C1018.72 195.869 1016.21 195.201 1013.02 195.201H1003.02C1001.22 195.201 999.762 196.658 999.762 198.455V221.796C999.762 223.593 1001.22 225.05 1003.02 225.05H1013.41C1016.82 225.05 1019.51 224.318 1021.49 222.855C1023.46 221.391 1024.45 219.379 1024.45 216.82C1024.45 214.831 1023.89 213.168 1022.77 211.832C1021.64 210.496 1020.09 209.643 1018.1 209.273V209.272ZM1005.48 200.147H1012.72C1014.2 200.118 1015.36 200.417 1016.2 201.042C1017.04 201.667 1017.46 202.549 1017.46 203.686C1017.46 204.852 1017.04 205.761 1016.2 206.415C1015.36 207.069 1014.2 207.395 1012.72 207.395H1005.48V200.147ZM1016.99 219.08C1015.97 219.791 1014.54 220.132 1012.72 220.103H1005.48V212.214H1012.72C1014.54 212.186 1015.96 212.52 1016.99 213.217C1018.01 213.914 1018.52 214.872 1018.52 216.095C1018.52 217.374 1018.01 218.369 1016.99 219.08Z" fill="black"/>
<path d="M1111.27 207.821L1123.06 224.477H1123.06C1123.23 224.719 1123.06 225.05 1122.77 225.05H1116.79C1116.67 225.05 1116.56 224.994 1116.49 224.902L1107.22 212.257L1102.53 217.417V224.688C1102.53 224.888 1102.37 225.05 1102.17 225.05H1097.18C1096.98 225.05 1096.82 224.889 1096.82 224.688V195.564C1096.82 195.363 1096.98 195.201 1097.18 195.201H1102.17C1102.37 195.201 1102.53 195.363 1102.53 195.564V210.082L1115.9 195.32C1115.97 195.243 1116.06 195.2 1116.17 195.2H1121.92C1122.24 195.2 1122.4 195.573 1122.19 195.806L1111.27 207.821Z" fill="black"/>
<path d="M882.422 195.2C880.86 195.2 879.445 196.118 878.809 197.545L870.048 217.181L861.205 197.533C860.566 196.113 859.154 195.2 857.597 195.2H857.589C855.403 195.2 853.632 196.971 853.632 199.156V224.686C853.632 224.886 853.794 225.049 853.994 225.049H858.471C858.671 225.049 858.833 224.886 858.833 224.686V203.642L867.414 223.312C867.769 224.124 868.465 224.758 869.327 224.967C870.693 225.299 872.037 224.591 872.569 223.365L881.134 203.642V224.686C881.134 224.886 881.297 225.049 881.496 225.049H886.016C886.216 225.049 886.378 224.886 886.378 224.686V199.156C886.378 196.971 884.607 195.2 882.422 195.2Z" fill="black"/>
<path d="M899.853 220.06H916.164C916.364 220.06 916.527 220.223 916.527 220.424V224.687C916.527 224.888 916.364 225.05 916.164 225.05H897.394C895.597 225.05 894.14 223.593 894.14 221.796V198.455C894.14 196.658 895.597 195.201 897.394 195.201H915.652C915.852 195.201 916.014 195.362 916.014 195.563V199.827C916.014 200.028 915.853 200.19 915.652 200.19H899.853V207.567H913.989C914.189 207.567 914.351 207.729 914.351 207.929V212.194C914.351 212.393 914.19 212.556 913.989 212.556H899.853V220.06Z" fill="black"/>
<path d="M959.359 195.2H954.369C954.168 195.2 954.007 195.362 954.007 195.562V224.686C954.007 224.886 954.168 225.049 954.369 225.049H959.359C959.559 225.049 959.721 224.886 959.721 224.686V195.562C959.721 195.361 959.558 195.2 959.359 195.2Z" fill="black"/>
<path fill-rule="evenodd" clip-rule="evenodd" d="M942.961 214.392C942.516 214.686 942.022 214.935 941.507 215.146L948.114 224.477C948.284 224.719 948.113 225.05 947.819 225.05H941.838C941.722 225.05 941.614 224.994 941.545 224.902L935.212 216.265H928.468V224.687C928.468 224.888 928.305 225.049 928.104 225.049H923.115C922.915 225.049 922.753 224.888 922.753 224.687V198.454C922.753 196.657 924.21 195.2 926.007 195.2H935.203C939.07 195.2 942.054 196.095 944.158 197.886C946.261 199.678 947.314 202.208 947.314 205.477C947.314 207.808 946.809 209.799 945.8 211.447C945.081 212.62 944.11 213.635 942.961 214.392ZM935.202 211.233C937.363 211.233 939.012 210.763 940.149 209.825C941.286 208.888 941.855 207.496 941.855 205.648C941.855 203.829 941.286 202.464 940.149 201.554C939.011 200.644 937.363 200.189 935.202 200.189H928.466V211.233H935.202Z" fill="black"/>
<path d="M823.381 224.827L833.612 201.5L843.842 224.827C843.9 224.959 844.031 225.044 844.174 225.044H849.048C849.309 225.044 849.485 224.776 849.379 224.536L837.681 197.864C836.126 194.318 831.096 194.318 829.541 197.864L817.844 224.536C817.738 224.776 817.914 225.044 818.176 225.044H823.048C823.192 225.044 823.323 224.959 823.381 224.827Z" fill="black"/>
<path d="M979.742 201.5L969.512 224.827C969.453 224.959 969.323 225.044 969.179 225.044H964.307C964.045 225.044 963.869 224.776 963.975 224.536L975.672 197.864C977.227 194.318 982.257 194.318 983.812 197.864L995.51 224.536C995.616 224.776 995.44 225.044 995.179 225.044H990.305C990.161 225.044 990.03 224.959 989.972 224.827L979.742 201.5Z" fill="black"/>
<path d="M1032.45 224.827L1042.68 201.5L1052.91 224.827C1052.97 224.959 1053.1 225.044 1053.24 225.044H1058.12C1058.38 225.044 1058.56 224.776 1058.45 224.536L1046.75 197.864C1045.2 194.318 1040.17 194.318 1038.61 197.864L1026.92 224.536C1026.81 224.776 1026.98 225.044 1027.25 225.044H1032.12C1032.26 225.044 1032.39 224.959 1032.45 224.827Z" fill="black"/>
<path fill-rule="evenodd" clip-rule="evenodd" d="M540.124 199.715V220.698H544.021V214.643H548.757C550.615 214.643 552.204 214.343 553.523 213.744C554.862 213.144 555.891 212.285 556.61 211.166C557.329 210.047 557.689 208.718 557.689 207.179C557.689 205.64 557.329 204.312 556.61 203.192C555.891 202.073 554.862 201.214 553.523 200.615C552.204 200.015 550.615 199.715 548.757 199.715H540.124ZM544.021 211.346H548.577C550.295 211.346 551.584 210.986 552.444 210.266C553.323 209.527 553.762 208.498 553.762 207.179C553.762 205.84 553.323 204.811 552.444 204.092C551.584 203.372 550.295 203.013 548.577 203.013H544.021V211.346Z" fill="black"/>
<path fill-rule="evenodd" clip-rule="evenodd" d="M563.68 219.858C564.959 220.558 566.418 220.907 568.056 220.907C569.715 220.907 571.184 220.558 572.463 219.858C573.761 219.139 574.771 218.16 575.49 216.921C576.229 215.682 576.599 214.273 576.599 212.694C576.599 211.076 576.229 209.657 575.49 208.438C574.771 207.219 573.761 206.26 572.463 205.56C571.184 204.861 569.715 204.511 568.056 204.511C566.418 204.511 564.959 204.861 563.68 205.56C562.401 206.26 561.392 207.229 560.653 208.468C559.913 209.687 559.544 211.096 559.544 212.694C559.544 214.273 559.913 215.682 560.653 216.921C561.392 218.16 562.401 219.139 563.68 219.858ZM570.514 217.101C569.795 217.5 568.976 217.7 568.056 217.7C567.157 217.7 566.348 217.5 565.628 217.101C564.929 216.701 564.369 216.122 563.95 215.362C563.53 214.603 563.32 213.714 563.32 212.694C563.32 211.655 563.53 210.766 563.95 210.027C564.369 209.267 564.929 208.688 565.628 208.288C566.348 207.888 567.167 207.689 568.086 207.689C568.986 207.689 569.795 207.888 570.514 208.288C571.234 208.688 571.793 209.267 572.193 210.027C572.612 210.766 572.822 211.655 572.822 212.694C572.822 213.714 572.612 214.603 572.193 215.362C571.793 216.122 571.234 216.701 570.514 217.101Z" fill="black"/>
<path d="M577.105 204.691L582.98 220.698H586.577L590.783 209.666L594.91 220.698H598.507L604.412 204.691H601.085L596.728 216.552L592.422 204.691H589.275L584.858 216.511L580.642 204.691H577.105Z" fill="black"/>
<path fill-rule="evenodd" clip-rule="evenodd" d="M609.097 219.858C610.436 220.558 611.994 220.907 613.773 220.907C615.172 220.907 616.411 220.688 617.49 220.248C618.589 219.788 619.498 219.139 620.217 218.3L618.209 215.992C617.65 216.591 617.01 217.031 616.291 217.311C615.571 217.59 614.762 217.73 613.863 217.73C612.824 217.73 611.905 217.53 611.105 217.131C610.306 216.731 609.686 216.161 609.247 215.422C608.97 214.956 608.78 214.447 608.678 213.893H621.237C621.257 213.714 621.267 213.524 621.267 213.324C621.287 213.124 621.297 212.944 621.297 212.784C621.297 211.106 620.947 209.647 620.247 208.408C619.548 207.169 618.589 206.21 617.37 205.53C616.151 204.851 614.762 204.511 613.203 204.511C611.605 204.511 610.176 204.861 608.917 205.56C607.678 206.26 606.699 207.229 605.98 208.468C605.28 209.687 604.93 211.096 604.93 212.694C604.93 214.273 605.29 215.682 606.01 216.921C606.749 218.16 607.778 219.139 609.097 219.858ZM608.644 211.406H617.753C617.68 210.801 617.503 210.251 617.22 209.757C616.82 209.058 616.271 208.508 615.571 208.108C614.892 207.709 614.103 207.509 613.203 207.509C612.284 207.509 611.475 207.709 610.776 208.108C610.096 208.508 609.557 209.067 609.157 209.787C608.897 210.266 608.726 210.805 608.644 211.406Z" fill="black"/>
<path d="M624.596 204.691V220.698H628.343V212.934C628.343 211.296 628.762 210.067 629.602 209.247C630.441 208.408 631.57 207.988 632.989 207.988C633.129 207.988 633.269 207.998 633.408 208.018C633.548 208.018 633.698 208.038 633.858 208.078V204.511C632.319 204.511 631.03 204.791 629.991 205.351C629.232 205.767 628.623 206.328 628.163 207.034V204.691H624.596Z" fill="black"/>
<path fill-rule="evenodd" clip-rule="evenodd" d="M639.438 219.858C640.777 220.558 642.336 220.907 644.114 220.907C645.513 220.907 646.752 220.688 647.831 220.248C648.93 219.788 649.839 219.139 650.559 218.3L648.55 215.992C647.991 216.591 647.351 217.031 646.632 217.311C645.912 217.59 645.103 217.73 644.204 217.73C643.165 217.73 642.246 217.53 641.446 217.131C640.647 216.731 640.027 216.161 639.588 215.422C639.311 214.956 639.121 214.447 639.019 213.893H651.578C651.585 213.829 651.591 213.764 651.595 213.698C651.604 213.577 651.608 213.453 651.608 213.324C651.628 213.124 651.638 212.944 651.638 212.784C651.638 211.106 651.288 209.647 650.589 208.408C649.889 207.169 648.93 206.21 647.711 205.53C646.492 204.851 645.103 204.511 643.544 204.511C641.946 204.511 640.517 204.861 639.258 205.56C638.019 206.26 637.04 207.229 636.321 208.468C635.621 209.687 635.272 211.096 635.272 212.694C635.272 214.273 635.631 215.682 636.351 216.921C637.09 218.16 638.119 219.139 639.438 219.858ZM638.985 211.406H648.094C648.021 210.801 647.844 210.251 647.561 209.757C647.161 209.058 646.612 208.508 645.912 208.108C645.233 207.709 644.444 207.509 643.544 207.509C642.625 207.509 641.816 207.709 641.117 208.108C640.437 208.508 639.898 209.067 639.498 209.787C639.238 210.266 639.067 210.805 638.985 211.406Z" fill="black"/>
<path fill-rule="evenodd" clip-rule="evenodd" d="M657.545 219.888C658.784 220.568 660.173 220.907 661.711 220.907C663.09 220.907 664.309 220.608 665.368 220.008C665.999 219.651 666.549 219.187 667.017 218.617V220.698H670.584V198.456H666.867V206.66C666.415 206.148 665.895 205.732 665.308 205.411C664.249 204.811 663.05 204.511 661.711 204.511C660.173 204.511 658.784 204.851 657.545 205.53C656.326 206.21 655.367 207.159 654.667 208.378C653.968 209.597 653.618 211.036 653.618 212.694C653.618 214.353 653.968 215.792 654.667 217.011C655.367 218.23 656.326 219.189 657.545 219.888ZM664.559 217.101C663.859 217.5 663.06 217.7 662.161 217.7C661.262 217.7 660.452 217.5 659.733 217.101C659.034 216.701 658.464 216.122 658.024 215.362C657.605 214.603 657.395 213.714 657.395 212.694C657.395 211.655 657.605 210.766 658.024 210.027C658.464 209.267 659.034 208.688 659.733 208.288C660.452 207.888 661.262 207.689 662.161 207.689C663.06 207.689 663.859 207.888 664.559 208.288C665.278 208.688 665.848 209.267 666.267 210.027C666.707 210.766 666.927 211.655 666.927 212.694C666.927 213.714 666.707 214.603 666.267 215.362C665.848 216.122 665.278 216.701 664.559 217.101Z" fill="black"/>
<path fill-rule="evenodd" clip-rule="evenodd" d="M683.559 199.715V220.698H693.991C696.708 220.698 698.757 220.198 700.135 219.199C701.514 218.2 702.204 216.801 702.204 215.002C702.204 213.783 701.924 212.764 701.364 211.945C700.825 211.126 700.085 210.506 699.146 210.087C698.907 209.975 698.661 209.877 698.407 209.794C699.211 209.362 699.857 208.78 700.345 208.048C700.865 207.249 701.125 206.29 701.125 205.171C701.125 203.512 700.465 202.193 699.146 201.214C697.827 200.215 695.909 199.715 693.391 199.715H683.559ZM693.751 217.64H687.456V211.585H693.751C695.21 211.585 696.329 211.835 697.108 212.335C697.887 212.814 698.277 213.574 698.277 214.613C698.277 215.672 697.887 216.441 697.108 216.921C696.329 217.4 695.21 217.64 693.751 217.64ZM687.456 208.558H692.971C694.33 208.558 695.369 208.318 696.089 207.839C696.828 207.359 697.198 206.64 697.198 205.68C697.198 204.701 696.828 203.972 696.089 203.492C695.369 203.013 694.33 202.773 692.971 202.773H687.456V208.558Z" fill="black"/>
<path d="M704.684 226.333C705.463 226.593 706.242 226.723 707.022 226.723C707.921 226.723 708.74 226.583 709.48 226.303C710.239 226.023 710.918 225.534 711.518 224.834C712.137 224.135 712.697 223.186 713.197 221.987L720.69 204.691H717.093L712.026 216.532L706.992 204.691H703.095L710.093 220.748L709.809 221.387C709.45 222.186 709.06 222.756 708.64 223.096C708.221 223.435 707.671 223.605 706.992 223.605C706.492 223.605 706.003 223.505 705.523 223.305C705.043 223.106 704.614 222.836 704.234 222.496L702.735 225.254C703.255 225.713 703.904 226.073 704.684 226.333Z" fill="black"/>
</svg>
