<svg width="1124" height="272" viewBox="0 0 1124 272" fill="none" xmlns="http://www.w3.org/2000/svg">
<path fill-rule="evenodd" clip-rule="evenodd" d="M26.0849 11.9378C32.595 19.2535 40.9115 28.004 45.7225 32.9461C33.1137 38.7738 21.8104 44.1233 18.0189 46.0187C15.4792 47.3118 12.9395 48.6049 10.7576 50.5534C-4.8559 63.626 -1.52931 88.425 15.7475 99.372C34.3835 112.498 95.0132 146.348 106.907 148.456C125.507 151.893 150.564 145.799 152.924 121.744C153.3 118.095 153.211 113.029 152.781 109.416C150.134 86.9548 138.169 24.5676 137.114 20.3872C136.989 19.8912 136.864 19.3775 136.739 18.8638L136.729 18.8228C135.569 14.1038 134.276 8.84447 129.978 4.99405C124.845 0.459375 115.402 -2.03824 102.167 5.98601C101.988 6.11001 101.738 6.25172 101.452 6.41114C100.432 6.99569 98.9837 7.84594 98.2683 8.34192C96.7123 9.33388 97.9821 11.0521 99.6275 10.3967C108.731 6.83626 120.052 12.7703 121.304 23.2036C121.644 26.4275 125.006 105.359 124.97 107.662C124.97 109.256 124.577 112.622 123.414 114.925C120.285 121.053 112.379 126.279 101.863 121.975C94.7986 119.105 25.602 83.0401 25.602 83.0401C13.6192 74.2364 19.9325 59.853 25.6378 56.3103C37.1199 49.154 68.3469 29.8816 68.3469 29.8816C73.6945 26.3035 78.899 22.991 83.406 20.1392L83.8909 19.8313C87.1787 17.7441 90.0789 15.903 92.3126 14.4C93.6719 13.5497 92.3842 11.4949 90.9534 12.3452C89.308 13.0006 83.1735 15.7639 75.1253 19.4129C73.7481 18.7752 71.5304 17.7478 68.8656 16.4902C60.2093 12.4338 46.6883 6.11001 40.983 3.57697C36.5655 1.59304 22.4364 7.81051 26.0849 11.9378ZM490.698 94.6248V151.237H455.841V94.6248L401.345 2.33701H432.089C435.112 2.33701 437.526 3.02784 439.315 4.42722C441.103 5.82659 442.552 7.61566 443.661 9.79443L464.908 53.1218C465.689 54.701 466.441 56.2252 467.164 57.6927C468.031 59.4517 468.858 61.1293 469.648 62.7226C471.096 65.6631 472.366 68.5504 473.457 71.4023C474.495 68.4795 475.729 65.5568 477.177 62.6163C478.626 59.6759 480.164 56.5229 481.809 53.1218L502.86 9.79443C503.271 8.90875 503.844 8.02307 504.559 7.13739C505.274 6.25172 506.097 5.4546 507.045 4.72835C507.975 4.0198 509.03 3.43526 510.246 2.99242C511.463 2.54958 512.768 2.33701 514.217 2.33701H545.176L490.698 94.6248ZM302.871 91.4895C304.159 94.2882 305.357 97.1578 306.538 100.081C307.7 97.0692 308.934 94.1642 310.24 91.33C311.545 88.4959 312.887 85.7503 314.264 83.0932L352.842 7.7928C353.539 6.49971 354.237 5.49003 354.952 4.78149C355.667 4.07295 356.49 3.54154 357.384 3.18727C358.279 2.85071 359.298 2.67357 360.425 2.67357H391.008V151.468H360.264V65.8402C360.264 61.6775 360.461 57.196 360.872 52.3424L321.06 128.883C319.826 131.274 318.163 133.063 316.052 134.303C313.96 135.543 311.563 136.145 308.881 136.145H304.123C301.44 136.145 299.044 135.543 296.951 134.303C294.841 133.081 293.196 131.292 291.944 128.883L251.917 52.2539C252.203 54.6275 252.4 57.0011 252.543 59.357C252.668 61.7129 252.74 63.874 252.74 65.8579V151.485H221.996V2.69129H252.579C253.706 2.69129 254.743 2.86842 255.619 3.20498C256.496 3.54154 257.318 4.07295 258.052 4.7992C258.767 5.50775 259.483 6.51742 260.162 7.81051L298.865 83.4121C300.278 85.9983 301.601 88.6907 302.871 91.4895ZM629.073 22.4951H675.395V2.585H558.607V22.4951H605.036V151.432H629.073V22.4951ZM828.848 77.1415C828.848 87.8936 827.077 97.8132 823.554 106.883C820.03 115.952 815.058 123.781 808.638 130.318C802.217 136.872 794.509 142.009 785.512 145.693C776.516 149.377 766.519 151.237 755.537 151.237C744.61 151.237 734.648 149.395 725.652 145.693C716.656 141.991 708.929 136.872 702.491 130.318C696.034 123.764 691.045 115.952 687.521 106.883C683.98 97.7955 682.227 87.8936 682.227 77.1415C682.227 66.3893 683.98 56.4697 687.521 47.4004C691.045 38.3133 696.034 30.4839 702.491 23.9122C708.929 17.3227 716.656 12.168 725.652 8.48363C734.648 4.7992 744.61 2.93928 755.537 2.93928C766.537 2.93928 776.516 4.78149 785.512 8.48363C794.509 12.1858 802.217 17.3227 808.638 23.9122C815.058 30.5016 820.03 38.331 823.554 47.4004C827.095 56.4697 828.848 66.3893 828.848 77.1415ZM804.524 77.1415C804.524 68.7984 803.397 61.3055 801.126 54.6452C798.855 47.9849 795.6 42.3343 791.343 37.711C787.086 33.0701 781.953 29.5096 775.908 27.012C769.863 24.5144 763.085 23.2745 755.555 23.2745C748.079 23.2745 741.337 24.5144 735.292 27.012C729.247 29.5096 724.096 33.0524 719.821 37.711C715.547 42.352 712.256 47.9849 709.949 54.6452C707.624 61.3055 706.479 68.7984 706.479 77.1415C706.479 85.5377 707.624 93.0837 709.949 99.7263C712.256 106.369 715.547 112.002 719.821 116.607C724.096 121.213 729.247 124.738 735.292 127.2C741.337 129.662 748.079 130.884 755.555 130.884C763.085 130.884 769.881 129.662 775.908 127.2C781.953 124.738 787.086 121.213 791.343 116.607C795.582 112.002 798.837 106.369 801.126 99.7263C803.379 93.0837 804.524 85.5377 804.524 77.1415ZM930.165 127.554C925.658 129.467 920.543 130.424 914.838 130.424C909.133 130.424 904.036 129.467 899.493 127.572C894.986 125.659 891.176 123.002 888.082 119.548C884.988 116.094 882.627 111.984 880.964 107.184C879.319 102.383 878.496 97.0338 878.496 91.1883V2.585H854.351V91.2769C854.351 99.9388 855.746 107.928 858.536 115.297C861.326 122.648 865.333 129.007 870.555 134.356C875.795 139.688 882.127 143.886 889.602 146.915C897.06 149.944 905.466 151.468 914.82 151.468C924.192 151.468 932.58 149.944 940.056 146.915C947.532 143.886 953.881 139.706 959.103 134.356C964.325 129.007 968.332 122.648 971.122 115.297C973.894 107.928 975.289 99.9211 975.289 91.2769V2.585H951.252V91.2769C951.252 97.1401 950.429 102.472 948.784 107.272C947.138 112.073 944.742 116.182 941.612 119.583C938.482 122.984 934.672 125.641 930.165 127.554ZM1123.23 151.415H1101.41C1097.1 151.415 1093.95 149.767 1092.01 146.455L1056.93 96.3253C1055.75 94.607 1054.47 93.3671 1053.07 92.6054C1051.69 91.8437 1049.6 91.4717 1046.81 91.4717H1033.25V151.415H1008.82V2.585H1053.07C1062.96 2.585 1071.46 3.57697 1078.59 5.5786C1085.73 7.58023 1091.58 10.4321 1096.17 14.0988C1100.77 17.7833 1104.17 22.2117 1106.35 27.384C1108.55 32.5387 1109.64 38.2956 1109.64 44.637C1109.64 49.7917 1108.87 54.6275 1107.3 59.109C1105.74 63.5906 1103.47 67.647 1100.5 71.3137C1097.53 74.9627 1093.9 78.1334 1089.59 80.8259C1085.28 83.5183 1080.38 85.6086 1074.87 87.1319C1077.86 88.921 1080.43 91.454 1082.6 94.6779L1123.23 151.415ZM1052.48 73.8999C1058.04 73.8999 1062.91 73.2268 1067.09 71.8805C1071.28 70.5343 1074.73 68.6567 1077.52 66.2476C1080.29 63.8209 1082.38 60.9513 1083.78 57.6034C1085.17 54.2732 1085.85 50.5711 1085.85 46.497C1085.85 38.3664 1083.13 32.1667 1077.72 27.8977C1072.3 23.6287 1064.09 21.4854 1053.09 21.4854H1033.27V73.8999H1052.48ZM54.0569 44.0702C54.0569 44.0702 61.0678 67.3281 66.9876 84.2446C69.259 90.6215 81.9931 79.9756 82.2077 74.0947C82.5654 62.5278 82.4938 25.4355 82.4938 25.4355L54.0569 44.0702ZM550.62 271.214H624.55C629.249 271.214 633.073 267.391 633.073 262.691V188.76C633.073 184.06 629.251 180.236 624.55 180.236H550.62C545.921 180.236 542.098 184.06 542.098 188.76V262.691C542.098 267.391 545.92 271.214 550.62 271.214ZM544.898 188.76C544.898 185.604 547.464 183.038 550.62 183.038H624.55C627.706 183.038 630.274 185.604 630.274 188.76V262.691C630.274 265.847 627.705 268.413 624.55 268.413H550.62C547.464 268.413 544.898 265.847 544.898 262.691V188.76ZM587.584 212.393L571.77 248.453H571.768C571.679 248.657 571.476 248.788 571.254 248.788H563.721C563.318 248.788 563.047 248.374 563.209 248.003L581.292 206.772C583.696 201.291 591.471 201.291 593.875 206.772L611.958 248.003C612.122 248.374 611.849 248.788 611.446 248.788H603.912C603.689 248.788 603.487 248.657 603.397 248.453L587.584 212.393ZM1062.59 202.654H1070.04C1070.35 202.654 1070.6 202.903 1070.6 203.213V243.218C1070.6 246.297 1068.11 248.79 1065.03 248.795C1063.22 248.797 1061.54 247.87 1060.45 246.42L1038.5 217.023V248.234C1038.5 248.544 1038.25 248.795 1037.94 248.795H1030.42C1030.11 248.795 1029.86 248.544 1029.86 248.234V208.229C1029.86 205.149 1032.36 202.652 1035.44 202.652C1037.2 202.652 1038.86 203.483 1039.91 204.891L1062.03 234.49V203.213C1062.03 202.905 1062.28 202.654 1062.59 202.654ZM960.915 224.407C963.42 223.792 965.386 222.573 966.814 220.748C968.242 218.926 968.956 216.739 968.956 214.19C968.956 210.631 967.54 207.819 964.705 205.754C961.872 203.689 957.993 202.655 953.072 202.655H937.602C934.824 202.655 932.571 204.908 932.571 207.686V243.766C932.571 246.545 934.824 248.797 937.602 248.797H953.664C958.937 248.797 963.1 247.666 966.154 245.403C969.209 243.141 970.735 240.03 970.735 236.075C970.735 233 969.867 230.429 968.132 228.364C966.396 226.298 963.99 224.98 960.915 224.409V224.407ZM941.404 210.301H952.608C954.893 210.257 956.685 210.719 957.981 211.685C959.276 212.651 959.925 214.015 959.925 215.772C959.925 217.574 959.276 218.98 957.981 219.99C956.685 221.001 954.893 221.505 952.608 221.505H941.404V210.301ZM959.2 239.568C957.619 240.668 955.42 241.195 952.608 241.15H941.404V228.955H952.608C955.42 228.912 957.617 229.428 959.2 230.505C960.781 231.582 961.574 233.064 961.574 234.954C961.574 236.932 960.783 238.469 959.2 239.568ZM1123.17 247.912L1104.94 222.165L1121.82 203.591C1122.15 203.23 1121.9 202.654 1121.41 202.654H1112.51C1112.35 202.654 1112.2 202.721 1112.1 202.839L1091.43 225.66V203.217C1091.43 202.907 1091.18 202.655 1090.87 202.655H1083.16C1082.85 202.655 1082.6 202.907 1082.6 203.217V248.237C1082.6 248.547 1082.85 248.797 1083.16 248.797H1090.87C1091.18 248.797 1091.43 248.546 1091.43 248.237V236.997L1098.68 229.021L1113.02 248.568C1113.12 248.711 1113.29 248.797 1113.47 248.797H1122.71C1123.17 248.797 1123.44 248.284 1123.17 247.912H1123.17ZM751.184 202.654C748.77 202.654 746.582 204.073 745.599 206.278L732.056 236.633L718.387 206.26C717.399 204.065 715.216 202.654 712.81 202.654H712.796C709.418 202.654 706.68 205.392 706.68 208.77V248.234C706.68 248.544 706.931 248.795 707.239 248.795H714.16C714.469 248.795 714.72 248.544 714.72 248.234V215.704L727.985 246.11C728.533 247.366 729.61 248.345 730.942 248.669C733.052 249.181 735.131 248.087 735.954 246.192L749.193 215.704V248.234C749.193 248.544 749.445 248.795 749.753 248.795H756.74C757.05 248.795 757.299 248.544 757.299 248.234V208.77C757.299 205.392 754.562 202.654 751.184 202.654ZM803.343 241.084H778.13V229.483H799.981C800.291 229.483 800.541 229.232 800.541 228.923V222.332C800.541 222.021 800.29 221.772 799.981 221.772H778.13V210.368H802.552C802.862 210.368 803.112 210.117 803.112 209.807V203.215C803.112 202.905 802.86 202.655 802.552 202.655H774.328C771.55 202.655 769.297 204.908 769.297 207.686V243.766C769.297 246.545 771.55 248.797 774.328 248.797H803.343C803.653 248.797 803.904 248.546 803.904 248.236V241.645C803.904 241.335 803.653 241.084 803.343 241.084ZM870.115 202.654H862.402C862.091 202.654 861.842 202.905 861.842 203.213V248.234C861.842 248.544 862.091 248.795 862.402 248.795H870.115C870.425 248.795 870.674 248.544 870.674 248.234V203.213C870.674 202.903 870.423 202.654 870.115 202.654ZM842.519 233.487C843.315 233.16 844.079 232.776 844.767 232.322C846.544 231.151 848.044 229.583 849.155 227.769C850.714 225.221 851.495 222.144 851.495 218.54C851.495 213.487 849.868 209.576 846.618 206.806C843.364 204.038 838.751 202.654 832.775 202.654H818.559C815.781 202.654 813.528 204.906 813.528 207.684V248.236C813.528 248.546 813.78 248.795 814.088 248.795H821.801C822.111 248.795 822.363 248.546 822.363 248.236V235.217H832.788L842.578 248.568C842.684 248.711 842.851 248.797 843.03 248.797H852.276C852.731 248.797 852.996 248.284 852.732 247.912L842.519 233.487ZM840.42 225.262C838.662 226.712 836.113 227.438 832.773 227.438H822.359V210.367H832.773C836.113 210.367 838.66 211.07 840.42 212.476C842.177 213.883 843.057 215.993 843.057 218.805C843.057 221.662 842.177 223.813 840.42 225.262ZM659.917 248.453L675.733 212.393L691.547 248.453C691.636 248.657 691.839 248.788 692.059 248.788H699.594C699.997 248.788 700.27 248.374 700.106 248.003L682.023 206.772C679.619 201.291 671.844 201.291 669.439 206.772L651.358 248.003C651.195 248.374 651.466 248.788 651.871 248.788H659.403C659.626 248.788 659.828 248.657 659.917 248.453ZM885.81 248.453L901.624 212.393L917.438 248.453C917.527 248.657 917.729 248.788 917.952 248.788H925.486C925.889 248.788 926.162 248.374 925.999 248.003L907.916 206.772C905.512 201.291 897.736 201.291 895.332 206.772L877.251 248.003C877.087 248.374 877.358 248.788 877.763 248.788H885.296C885.518 248.788 885.719 248.657 885.81 248.453ZM983.104 248.453L998.918 212.393L1014.73 248.453C1014.82 248.657 1015.02 248.788 1015.25 248.788H1022.78C1023.18 248.788 1023.46 248.374 1023.29 248.003L1005.21 206.772C1002.81 201.291 995.03 201.291 992.626 206.772L974.545 248.003C974.381 248.374 974.653 248.788 975.057 248.788H982.59C982.812 248.788 983.013 248.657 983.104 248.453ZM222.052 242.069V209.634H235.397C238.27 209.634 240.725 210.097 242.764 211.024C244.834 211.951 246.425 213.279 247.537 215.009C248.649 216.739 249.205 218.793 249.205 221.172C249.205 223.55 248.649 225.604 247.537 227.334C246.425 229.064 244.834 230.392 242.764 231.319C240.725 232.246 238.27 232.709 235.397 232.709H228.076V242.069H222.052ZM235.119 227.612H228.076V214.731H235.119C237.776 214.731 239.768 215.287 241.096 216.399C242.455 217.511 243.135 219.102 243.135 221.172C243.135 223.21 242.455 224.801 241.096 225.944C239.768 227.056 237.776 227.612 235.119 227.612ZM258.466 240.771C260.443 241.853 262.698 242.393 265.231 242.393C267.795 242.393 270.065 241.853 272.042 240.771C274.05 239.659 275.61 238.146 276.722 236.231C277.865 234.315 278.436 232.138 278.436 229.697C278.436 227.195 277.865 225.002 276.722 223.118C275.61 221.233 274.05 219.751 272.042 218.67C270.065 217.588 267.795 217.048 265.231 217.048C262.698 217.048 260.443 217.588 258.466 218.67C256.489 219.751 254.929 221.249 253.786 223.164C252.643 225.048 252.072 227.226 252.072 229.697C252.072 232.138 252.643 234.315 253.786 236.231C254.929 238.146 256.489 239.659 258.466 240.771ZM269.03 236.509C267.918 237.126 266.652 237.435 265.231 237.435C263.841 237.435 262.59 237.126 261.478 236.509C260.396 235.891 259.531 234.995 258.883 233.821C258.234 232.647 257.91 231.273 257.91 229.697C257.91 228.091 258.234 226.716 258.883 225.574C259.531 224.4 260.396 223.504 261.478 222.886C262.59 222.268 263.856 221.959 265.277 221.959C266.667 221.959 267.918 222.268 269.03 222.886C270.142 223.504 271.007 224.4 271.625 225.574C272.274 226.716 272.598 228.091 272.598 229.697C272.598 231.273 272.274 232.647 271.625 233.821C271.007 234.995 270.142 235.891 269.03 236.509ZM288.3 242.069L279.219 217.326H284.686L291.203 235.597L298.031 217.326H302.896L309.553 235.661L316.287 217.326H321.43L312.302 242.069H306.742L300.363 225.017L293.861 242.069H288.3ZM328.672 240.771C330.742 241.853 333.151 242.393 335.9 242.393C338.063 242.393 339.978 242.053 341.646 241.374C343.345 240.663 344.751 239.659 345.863 238.362L342.758 234.794C341.893 235.721 340.905 236.401 339.793 236.833C338.681 237.265 337.43 237.482 336.039 237.482C334.433 237.482 333.012 237.173 331.777 236.555C330.541 235.937 329.583 235.057 328.904 233.914C328.476 233.194 328.182 232.406 328.024 231.551H347.438C347.469 231.273 347.484 230.979 347.484 230.67C347.515 230.361 347.531 230.083 347.531 229.836C347.531 227.242 346.99 224.987 345.909 223.071C344.828 221.156 343.345 219.673 341.461 218.623C339.576 217.573 337.43 217.048 335.02 217.048C332.549 217.048 330.34 217.588 328.394 218.67C326.479 219.751 324.965 221.249 323.853 223.164C322.772 225.048 322.232 227.226 322.232 229.697C322.232 232.138 322.788 234.315 323.9 236.231C325.043 238.146 326.633 239.659 328.672 240.771ZM327.972 227.705H342.053C341.941 226.771 341.666 225.921 341.229 225.156C340.611 224.075 339.762 223.226 338.681 222.608C337.63 221.99 336.41 221.681 335.02 221.681C333.599 221.681 332.348 221.99 331.267 222.608C330.217 223.226 329.383 224.091 328.765 225.203C328.363 225.943 328.099 226.777 327.972 227.705ZM352.631 242.069V217.326H358.145V220.947C358.855 219.857 359.798 218.99 360.971 218.345C362.578 217.48 364.57 217.048 366.948 217.048V222.562C366.701 222.5 366.47 222.469 366.253 222.469C366.037 222.438 365.821 222.423 365.605 222.423C363.411 222.423 361.666 223.071 360.369 224.369C359.071 225.635 358.423 227.535 358.423 230.068V242.069H352.631ZM375.574 240.771C377.644 241.853 380.053 242.393 382.802 242.393C384.965 242.393 386.88 242.053 388.548 241.374C390.247 240.663 391.652 239.659 392.765 238.362L389.66 234.794C388.795 235.721 387.807 236.401 386.695 236.833C385.582 237.265 384.332 237.482 382.941 237.482C381.335 237.482 379.914 237.173 378.679 236.555C377.443 235.937 376.485 235.057 375.806 233.914C375.378 233.194 375.084 232.406 374.926 231.551H394.34C394.351 231.452 394.36 231.351 394.367 231.248C394.372 231.181 394.375 231.113 394.378 231.045C394.381 230.994 394.382 230.943 394.384 230.892C394.385 230.819 394.386 230.745 394.386 230.67C394.417 230.361 394.433 230.083 394.433 229.836C394.433 227.242 393.892 224.987 392.811 223.071C391.73 221.156 390.247 219.673 388.363 218.623C386.478 217.573 384.332 217.048 381.922 217.048C379.451 217.048 377.242 217.588 375.296 218.67C373.381 219.751 371.867 221.249 370.755 223.164C369.674 225.048 369.134 227.226 369.134 229.697C369.134 232.138 369.69 234.315 370.802 236.231C371.944 238.146 373.535 239.659 375.574 240.771ZM374.874 227.705H388.955C388.843 226.771 388.568 225.921 388.131 225.156C387.513 224.075 386.664 223.226 385.582 222.608C384.532 221.99 383.312 221.681 381.922 221.681C380.501 221.681 379.25 221.99 378.169 222.608C377.119 223.226 376.285 224.091 375.667 225.203C375.265 225.943 375.001 226.777 374.874 227.705ZM410.005 242.393C407.626 242.393 405.479 241.868 403.564 240.818C401.68 239.737 400.197 238.254 399.116 236.37C398.035 234.485 397.494 232.261 397.494 229.697C397.494 227.133 398.035 224.909 399.116 223.025C400.197 221.141 401.68 219.673 403.564 218.623C405.479 217.573 407.626 217.048 410.005 217.048C412.074 217.048 413.928 217.511 415.565 218.438C416.472 218.934 417.275 219.578 417.974 220.369V207.688H423.72V242.069H418.206V238.853C417.483 239.734 416.633 240.451 415.657 241.003C414.02 241.93 412.136 242.393 410.005 242.393ZM410.7 237.435C412.09 237.435 413.325 237.126 414.406 236.509C415.518 235.891 416.399 234.995 417.047 233.821C417.727 232.647 418.067 231.273 418.067 229.697C418.067 228.091 417.727 226.716 417.047 225.574C416.399 224.4 415.518 223.504 414.406 222.886C413.325 222.268 412.09 221.959 410.7 221.959C409.31 221.959 408.058 222.268 406.946 222.886C405.865 223.504 404.985 224.4 404.305 225.574C403.657 226.716 403.332 228.091 403.332 229.697C403.332 231.273 403.657 232.647 404.305 233.821C404.985 234.995 405.865 235.891 406.946 236.509C408.058 237.126 409.31 237.435 410.7 237.435ZM443.778 209.634V242.069H459.903C464.104 242.069 467.27 241.297 469.401 239.752C471.533 238.208 472.599 236.045 472.599 233.265C472.599 231.381 472.166 229.805 471.301 228.539C470.467 227.272 469.324 226.315 467.872 225.666C467.503 225.493 467.122 225.343 466.729 225.214C467.973 224.546 468.972 223.646 469.726 222.515C470.529 221.28 470.93 219.797 470.93 218.067C470.93 215.503 469.911 213.465 467.872 211.951C465.834 210.406 462.868 209.634 458.976 209.634H443.778ZM459.532 237.343H449.802V227.983H459.532C461.787 227.983 463.517 228.369 464.722 229.141C465.926 229.883 466.529 231.057 466.529 232.663C466.529 234.3 465.926 235.489 464.722 236.231C463.517 236.972 461.787 237.343 459.532 237.343ZM449.802 223.303H458.327C460.428 223.303 462.034 222.932 463.146 222.191C464.289 221.45 464.861 220.338 464.861 218.855C464.861 217.341 464.289 216.214 463.146 215.472C462.034 214.731 460.428 214.36 458.327 214.36H449.802V223.303ZM480.047 251.382C478.842 251.382 477.637 251.182 476.432 250.78C475.228 250.378 474.224 249.822 473.421 249.112L475.737 244.849C476.324 245.374 476.988 245.791 477.73 246.1C478.471 246.409 479.228 246.563 480 246.563C481.051 246.563 481.9 246.301 482.549 245.776C483.197 245.251 483.8 244.37 484.356 243.135L484.794 242.146L473.977 217.326H480L487.782 235.629L495.615 217.326H501.176L489.592 244.061C488.819 245.915 487.955 247.382 486.997 248.463C486.07 249.544 485.02 250.301 483.846 250.734C482.703 251.166 481.437 251.382 480.047 251.382Z" fill="black"/>
</svg>
