<svg width="41" height="40" viewBox="0 0 41 40" fill="none" xmlns="http://www.w3.org/2000/svg">
<path fill-rule="evenodd" clip-rule="evenodd" d="M11.9933 8.66411C10.7111 7.33361 8.49456 4.9778 6.7595 3.00827C5.7871 1.89713 9.55276 0.223267 10.7301 0.757377C12.2507 1.43932 15.8543 3.1418 18.1614 4.23386C18.8716 4.57245 19.4626 4.84904 19.8297 5.02072C21.9747 4.03834 23.6096 3.2944 24.0482 3.11795C24.4295 2.88905 24.7727 3.44223 24.4104 3.67114C23.786 4.09556 22.9661 4.62014 22.0366 5.21624C20.8354 5.98403 19.4484 6.8758 18.0231 7.8391C18.0231 7.8391 9.70053 13.0276 6.64033 14.9542C5.11977 15.908 3.43714 19.7803 6.6308 22.1504C6.6308 22.1504 25.073 31.8598 26.9558 32.6323C29.7586 33.7911 31.8655 32.3843 32.6997 30.7343C33.0095 30.1144 33.1144 29.2083 33.1144 28.7791C33.1239 28.1591 32.2278 6.90918 32.1372 6.04125C31.8035 3.2324 28.7862 1.63484 26.36 2.59338C25.9215 2.76983 25.583 2.30725 25.9977 2.04019C26.1884 1.90667 26.5745 1.67776 26.8462 1.52039C26.9225 1.47747 26.9892 1.43932 27.0369 1.40594C30.5642 -0.754346 33.081 -0.081939 34.449 1.13888C35.5978 2.17849 35.941 3.59961 36.2508 4.87289C36.2842 5.01118 36.3176 5.14948 36.3509 5.28301C36.6322 6.40845 39.8211 23.2043 40.5265 29.2512C40.6409 30.224 40.6648 31.5879 40.5647 32.5703C39.9355 39.0464 33.2574 40.6869 28.3 39.7617C25.1302 39.1942 8.97123 30.081 4.00437 26.5473C-0.600226 23.6001 -1.48682 16.9237 2.67447 13.4043C3.256 12.8798 3.93287 12.5316 4.60973 12.1835C5.62027 11.6733 8.6328 10.2331 11.9933 8.66411Z" fill="black"/>
<path fill-rule="evenodd" clip-rule="evenodd" d="M21.7983 6.64211C21.7983 6.64211 21.8174 16.6281 21.7221 19.7421C21.6649 21.3254 18.271 24.1914 17.6656 22.4747C16.0831 17.9252 14.2193 11.6589 14.2193 11.6589L21.7983 6.64211Z" fill="black"/>
</svg>
